<mxfile host="app.diagrams.net" modified="2023-07-05T12:39:01.510Z" agent="Mozilla/5.0 (X11; Linux x86_64) AppleWebKit/537.36 (KHTML, like Gecko) Chrome/114.0.0.0 Safari/537.36" etag="2PLMf6RxLjAn16sB-hlw" version="21.5.2" type="google">
  <diagram id="PihfjUU_v_dvda1Fzyti" name="Page-1">
    <mxGraphModel grid="0" page="0" gridSize="10" guides="0" tooltips="1" connect="1" arrows="1" fold="1" pageScale="1" pageWidth="850" pageHeight="1100" math="0" shadow="0">
      <root>
        <mxCell id="0" />
        <mxCell id="1" parent="0" />
        <mxCell id="cAXRqbwzUYpm79ER4dvK-13" value="" style="group" connectable="0" vertex="1" parent="1">
          <mxGeometry x="141" y="412" width="110" height="40" as="geometry" />
        </mxCell>
        <mxCell id="cAXRqbwzUYpm79ER4dvK-74" value="" style="group" connectable="0" vertex="1" parent="cAXRqbwzUYpm79ER4dvK-13">
          <mxGeometry width="110" height="40" as="geometry" />
        </mxCell>
        <mxCell id="cAXRqbwzUYpm79ER4dvK-5" value="&amp;nbsp; &amp;nbsp; &amp;nbsp;SinkBinding" style="rounded=0;whiteSpace=wrap;html=1;fontFamily=Helvetica;fontSize=12;" vertex="1" parent="cAXRqbwzUYpm79ER4dvK-74">
          <mxGeometry width="110" height="40" as="geometry" />
        </mxCell>
        <mxCell id="cAXRqbwzUYpm79ER4dvK-71" value="" style="shape=image;imageAspect=0;aspect=fixed;verticalLabelPosition=bottom;verticalAlign=top;fontFamily=Helvetica;fontSize=12;strokeColor=default;strokeWidth=1;fillColor=none;image=data:image/png,iVBORw0KGgoAAAANSUhEUgAAARgAAAEYCAYAAACHjumMAAArwklEQVR4nOzdd5xV1bk//s+zz/TeOzDMwDAMMwMydKSIoEQBY4wl0RuNLYnlJjbsJTf+/CaKxnjVmHgtMWpEDCGgIFURBUQ6DH16Z5jeT9nP73UOcq+FOmfvs/c553n78g+Vs/Zy5pzPWXvttZ6lQAghdCIBI4TQjQSMEEI3EjBCCN1IwAghdCMBI4TQjQSMEEI3EjBCCN1IwAghdCMBI4TQjQSMEEI3EjBCCN1IwAghdCMBI4TQjQSMEEI3EjBCCN1IwAghdCMBI4TQjQSMEEI3EjBCCN1IwAghdCMBI4TQjQSMEEI3EjBCCN1IwAghdCMBI4TQjQSMEEI3EjBCCN1IwAghdCMBI4TQjQSMEEI3EjBCCN1IwAghdCMBI4TQjQSMEEI3EjBCCN1IwAghdCMBI4TQjQSMEEI3EjBCCN1IwAghdCMBI4TQjQSMEEI3EjBCCN1IwAghdCMBI4TQTYDRHRA6GDI5nMbMm6BEDRkPIFsB9dotVILGhhW8bslBNH+sGt1FXze0cIwlOm1kcnTq4AKAFDXQenDvmg8qG0uL7Ub3zZPI6A4IDY2+IpTSCs9TUvPvBzALhNDv/Ik6Bt7lss0v8uFVFSjfxQb11Ccl5k3DwMzc8MGjpo2PTcm6CeAJIMpwfc4YjQxeVTcg+m8Nrz67s3R7TVtz/cc+//OXgPEFqUVEk64brcQNvBvEswGKO82fdr6p9zDjBW48uIyXvH0U2OfBzvqezMxpGDLjogGDR82aAzguBWgKCFEn/9PcAaZdDH67umrTss3v/LmutfawzwaNBIw3y/9VHOXkXEgJGZcTKzNASD6HV1vBKOe4kIW8a90/+PD6EpRsterYWx+SgexRQ4MG5k3PjhwwZFpSetZUgCYSkA5C4Fk1wWwFUa0K/qJs+9qPFFK3V26tLju0+68+9TuQgPFGhVdF0PhrLiZS7yHQWPfn0rgBwFq1ueFZXv/SdjTKiOZUci+8IfSCS6+baQ+I+BkI05x3Rho0q4JxDIS1dmvAW3vWvrp56/K/tGrQruEkYLxJ2u2B9MMJM8keOh+gMQREaNg6M7iKQX+l8J5F6rIFR3Bkp0wGO8cr2XcpY6+bmpWQkDIXjB+BaCSASB0u5bxV6gSjBIw3K6t2Lqk9tLFmz9K3vHZiWALG7KIyCPEZUTTlutlKcMrPGDifiE5xf68JB4PrScW/HWVb3kb557tRe6ALPc06XtJcojLykJCYFhw/MH9oZv7YmdEp2VMIGMfgVAJZPNEHZtiJXJPy+7qaGz462HZkTcunH1U0lRd3tzc3eKILmpCAMbNZtyUomRf+BxGuAaMIBI+8ub+hF4yNbLMsUK2r1+Ddl2wevr5HTZs2DYFZMwcMLpp1CRiXOP8VgGij+/W1dgA7QXi7qXj1R2s+eLOuvbHE9JPDEjBmk5gIpM+MoPRbx1N603wCTQcQZFh/nG9h4mMgel8tbX2BD71WioqNPhU05839dXBSxvC8jLzCixUoVwPIBRBidL9OoYeZD8PC72zvKvnAvmlD9e6Dn1uxz5zzZhIwZhGVAWRPSKfcmZdRZOINAEYQEGZ0t76FUcvEG7mx6g3et+4zHFzWaXSX+mvE5B9GJueOGTVk5IxJDLoYcI4QKdJ7PhOsMtMxAhcrjp4V5fu/XH34q3WHShv3d6O62ujO/S8v+WH6sMxM0Kj/zKbEQbcCuJoIGYDHb4XOVR8zb+YAPIWwhk387Esd3rCWxjVZe+nIwQlDcucxcC0RRoAR4gOfAhVAF8CHwfxW1f6EJZ2H/lLz+dpnDZ8c9v4frbcaNDGcsm8cQ0Pi54H5ciIM8qq9Ya5bJ3QAOKB2NL+F/asXc2tVA8o3OYzu2jdlFM4ISBmcP2zs9LkzbQGR5xMwHow0A+azPMXOQB0xinvajy4vbju8pnXt8jLb0YO91QaMbCRgPG3CtSE09qIipTf8foBmn/XCLHNjgCvAymK1/cCLvHBlGbDe6D6hYN5doeNnXX0/Mf4ThFij+2MEBtqJeemOFa/esXXF622evr6vprj5JBcqNOHaQkvuRQvIETwfhNEgzzzy9AACKAaEcRScMJ3GjrGCL6xG77Zu9BozTRMVlYEf3PzUFSD1KRBiDOmECRAQDNCIkOjYPfs+++deA64vdDV4bBCNuGwqpeb+nFwbEEmLlZ/mxrADXMKM97nmq3e5ZM1hHNrm0VunCZc/m1kwY/JyAMM9eV2zYvCmMFv93BfuvrzJk9eVgNHLuPnhVDh+DhFuAjCZyGRPhDyCGSDnG3qN2hbxR14/fyvqd3lkdfBNL3zxXwopjwAk7/HjHAw89vHzv/p9dckOj63Q9pUhunmkjFQw47aRluzRT0HBfUQYTr4xz9IPrg+3M1jzEdw3i3IvCOHIgSUo36jrfdPoS26JTR8yegGIkvS8jpdRwMjKK5q4+qtV7zZ66qISMFop+lEsXXDP5ZaCi59WIpIeAmgckfP+V8AVNRRDwAUUn/5DZfTVCTRslJX7oo6i+YCmt05zf3pHSM70Gx4D0RyveirnAUQc7bCEZYQF0fLKg9v7PHJNT1zEpxU9lqCMLvgJEf0HmEaCDFx16y1cC9y5k5n/zbVxT3Pdmwex4++avOF/+cKmHzmI3gBOVY/F79mb68qu/edTP3nfExeTEUx/jb48nOY+NV1JS/4jgX4BogE+vLZCW+T6Og0iQiFF9s1T0odnIX1yCZorjqG7/6P3vFk3RqYPG/MSEYZq2l/fooRExgaH2CMWV5Vu1n3iXUYw5yLmYgUTs9Mo/rx5FBp3Awi5pM+2fX+jurYhgJZzWcsSPrrkC+xe1n4uDSQmJuLCO167OTIu6SVD9255AWbuVBBw67IF17xXV6nvhkn5xj1bF87PoMnzHlJisv6gBIZeS4SM42sMhAYIhCgiFFFsyJVKxqgJGHP1UdipGg3FZ/Utm3v+T2IyR011hku6/t31bkQUxKQWdrc2L6o9skPXCXcJmDOZeXu0MmP+1Up8xotEdBkBCTLy05XzPTkY4LlKRv54ZdwPq7k6tQadW075TZuaU0RT/uPh6xXQ9fKePjsExCXlTT60o3P/dlRU6HYd+WWcTFKuhXLvGKqcf9k1lDryGSjKLQRKl6cSHkMECgEwjFXLPGVY5hhkTQpDgFKLDms3bP+34j0qKgMzrn9iUlhk7AKAEgzttVchIoctfVhUytK9X+i3K14C5psypwFTbh2ojLn6YSU16UUKjfkxETlvheT8KIMQURiI8ig0+jIlY/RFVDDbxoH5paj5xPXUKX34mPC8qT9+DUSjje6rtyGi5MDoZLW2dNsnnU31uszFyFDfZRowoyiFsifeqICuAtEIOZTOtHrAWKHWxz3Ddc/vunzm1VMS0rOWQubD+olr7IF9l7/xwm1f6VG0yr8DJmlIEPLnnkdDzr+UmJ2jlWFyG+QFvi4VEUDYetnQpJjo4MDzjO6SF3P+NNcUr/7g6o1LF7Ro3bh/BkzaiEC6/KlCstruAugyIk2r8wsPGRobhklp0bAo8p3gJjU1LvSm/7p25JtaN+w/AROVQcgbHUXJE2cryTk/Y/A4Ykrwo5+AT4kPCcT0gXGIDpY7WS0w85bynWvmrHn9UU33KfnHJO/suxKUyb+4RUka9TSFx98BwjAChUm4eKcAhTApPQaJoUGyV1ojRJQSm5LVrQb1fVF/cLdmu619+9eTfVMIXTJlotIX+cDXR1DIRKAPSA0PxqzMeFfQCE1V1h+JmrfsT3m7tGrQ90YwUYlAwZw0mnzrbCVv9B/IEfwAHS86JGNpH2AhYFxqNGJD/LQChr6iI2L70tOTEpYf2vW5JptPfecrIDMTVHRNPOLGXEeEu75eGCeh4mOyY8IwOT0aATKxqxe7agm94bXbRr6jRWO+8QGceFm4Unjtj8HK9QBNJPMemiXcEKgQhseHeXW4uOaM+OuKFeYUQI7un6Zkn7ewvmSH28eeeO8IJiHHQkUXZVPG9IvJQtcBGCW7aH1bblwYJqTFQDFoZndAYhgGJYaDvnP9zh4bDlS3o8f67X2ZESEByE6NQHZKJBKigxEdFohAiwK7ymjvtqG2qRuHajpQ1tCJPrvHqlieEQPdxMov1//1tncO7d3qVse8L2Ay8hSMm5euxBfdSaDrQJQsi+N8X4hFweysBMQZOPdy6Zh0zB2XDuU7k8sOlbFsSzWWb611/XNokAVT85MwcVgikmKCEWA59dvTaldxuLYDK7bV4khtO1STDG0YOKwG9fzo9V9c4NZJBN41yTtjfqoy/rrblbD0/0dEl4EoyitDUpyznLgwZEeHfW/04NE+pEVhWHrU9/rgHFE5/9588BjCgi24cspAzByViujwwO+F0XdZFEJSdAhGDIpBY1sv6lt6df6/ODsExJE9wNJRvWdF89Gafsee+edgYi5WMC4njwZOu4IUuobAQ70uGIVbksOCkJ8QccYPq5GSYkIwYVgCJucluW6JznWayHn7dPXUTPTaHDhQ1W6GORoiop9OuOKxhYf3zPmkv42Y94OamAjMuH84TZh9nxKd+Yyi0NzjtVhIbof8SKBCmJwei7jQIMOHqqcawTgFB1lQMCgGidEh/V7857y1ykqOxKHaDrT32NzvsPuCA0JDo7ptjn8dK93Zr/Kapv2w0vSHp1vSRixVQHcTUarR/RHGSAkPRnK48eFyJs7+nW6u5WwlxYZgekGyaVYoMzBj/I+vL+rv6805gim6Ks2SNfFdgHLNHIJCXwEKYXxqNKKDzbGo7nQjmO+y2VU0tvVhf3Ub9la0orS+Ex09doSHBCA48NQfO2fLcZFB2FHSjK4+jx6GefL+EIUojoDMvILx63Z/cW51kmHKOZjMTFKKrr4DQJ7RXRHGyooOdY1gvE1dcw+WbqnG/qo2dH8jJOjrR91XTBqI4QOiT/n6yNBAZKVE4GibR44uOiMimh6aUXgPgLvO9bXmGx3EjosAY5Ip+yY8RqHjq3YtJp7Y/S4GUN3Ujb+tLcW2I83fCpcT/72ysRuLN1Whvdt62rZS40x10rCFCZf154Wm+xDT0FFZRMg1uh/CWARCsMV7wsWptqkbr648jNKG05e4rWzswr7KttP+mcSoYNPMw+D46Ktfx/OYL2Bicpyjlzij+yGMpYLR2uf2SnWP6uq1o63rzE9/mIGKxq7T/pnwkADDViyfQnV/XmSugInKc44jpwP+eli8OMH5IWzqtYHZBCtCdNDZe/rwDAlUTBUwzNyvFb3mCpjEqAgQTTC6G8IcWnrtcPhowFhtp9/i43pSZaJ8IaKd/XmhuQImYXA6AbFGd0OYQ6fVDhPtAfRbDO5RCKX9ea2pAoYi0kaAEWp0P4Q5dNtU9ErCmAA1NceFHuzPK00VMMieWggy4docYQirqqLbbvxiM39HQEXp2y/W9ee1JgqYaVBgH2p0L4S5dNm860mST2Ku6G3p6ejPS80TMKPTQhnIN7obwlzavexRtS9i0NbiTW/36xdhmoAhnJ9O4EFG90OYS5sJ9uP4OUdNaszW/r7YNAGDKeF5AJlqfbQwXrfdDtUsZd78EaO94fUF9f19uWkChrojZsgCO/Fd3TYVfao8STIKEzeA1aP9fb05Amb0NRFEON/obgjz6XOo6LLJbZJRiKlSpaCe/r7eFAFDgwcNBijN6H4I83GojE6rBIxhmKtqKj7rd3k9UwQM4sePg6zgFSfhvDlq7rVB9dEtA6an0OHGffv6/3JNO9MfQ6coxDwVcliaOIWmHhscki8ex4Da2HjwiDttGB8wDlsIEQqN7oYwr06bHXaZ6PU4Aqzt1dW17rRhfMBETUxjRpbR3RDm1Wl1uJ4mCU/jdmtLS7/qwJxgfMDEUy5R/6plCf9gUxmtfaY4xsPPUFVN2bYmd1owPGAoNW+UnM4ozqSx2+qzxafMisEH6iv3dbvThuEBo4TFnmd0H4T5HS8+ZXQv/Aup2NzT3OBWG8YGzOgfhTAw2NA+CK/QZXPIRK8nMXocZHHrCRKMPheJ4rIGEHiA3CGJM+m1O1zFp0ICjDsrcHdFi+u4kVMdvNbaZUXfWU5GVzZ24+/rSk/ZVkePDQ6HgYFKaAizhJa524yxxZ0yJ4wBKMrQPgivYFUZnTYHYkKM265W1djt+lsLTR192LCvUZO29MDg0k0fPu/e/ZHRt0gKURHAQUb2QXiPbtmT5DHEKAMFup2mxgVM9vVBDMyQ2yNxttqk+JSHsIMZO7d99Mrpj588C4YFDEWPGw5CplHXF96n3WqXR9UeQdaQ4IBdWrRk3AhmTEohAVJgSpy1LpsDEi8e0bXx36+4tYL3BGMmedOyiJhngMjvCkxFhwZg5IAYBCruZfvumlY0drg9gv0ehYDCjGjEhwdr2m5zVx92VrW5FRCu4lN2FaGBxj1J8gcMPhoYHNrvKnbfZEzABKdEkWuC1/iFfp5WkB6Nxb+aiJgw97L1yle+xL921GjWrxOmDE3AOzePQ0q0dpvbHSrjocV7XQHjjj6HA90SMJ5Q8eWSF/tdZOqbjPmA556XACDdkGuLU4oNC8Sjc4cjWcNwcdpY0oS3Nle4fXujMtBulT1JumOq0KopQwKG+kKGAZD1LyZz69TBmDwkXrPnes5A+fzwMdz+zg5NbufYVRtGJnr1phDcXsH7v21p1dA5yb9ylOGL/MS3FGZE484ZQ9yeG/qm0sZO3PLWduyr69eZXSfV3Gvz2QPxTYI7UoMPadWYMQHTV5ljyHXFScU4b40uzUVSlLbzLn9ZX4YjRzs1axOutTA2WGXXo55ajy3/yItvkQZNspCqFHj8uuKkggIUPD5nOC4tTHU9QdKCXWW8/WUlXvu8TPPHyh1WB3Y3dsBq5D4dX3T8F1XBpD5cvvXj/Vo16/HbFIpPH0hEAzx9XXFylxSk4OYpWa6g0YLKwOLtNbjn/d1o69Fn5e3+pi5XlbsxqdGIDgrAKfYLinPC22xBfT9f+ew9e+sObdPse8HzATPmJ2MBlgleE0iJDsGDs4chNEi7gezGkmOYv2gPWrv1e9rjfPdXdvSitc+OcalRGBAZcspdyeJMuJcZK8t3rH1wzZfv7seh/p8gcDKeDZj0O4ngOkFA21Vc4pyFBVnwX/PycN4g7U6Lae2x4cHFe1HdqskSijNqt9rxWVULxqXGICsmFAFa3eP5j3ZS8WRn1eqX1rzxmDbbxL/DswGTcjSMwYUkGxwNd/WYDPy4KF2zeZc+u4oX1h7B1rIWbRo8S1aVsaWuFV02O/ITIhFokffWWepjh/p0cWfjnzYueEz7JeFf82jAEOdlEjDck9cU3zdqQDSeuCwPUaHa7NSwOVT8cfUhPLfqsKtAt6c5Q2bn0Q7XXqWi5CiEBFrkK+y0uMISzI8t/5/HF1ZuWa1buMDjI5iReZPBFCe/feMEBSh4+NLhSI8J1azNj3bX46nlB9Ft4BGvzlg71NKNNqsdY1OikBgaJPMy38fMXNpWW3bTV+89tL6yvFz3C3r0MTUFYCzI//YfmcnM4Um4cHiiZu219djw/JrDhobLNzV0WbGhqhXHemRLwbe5RpY72c43rXnz0Q3lHggXeDRgsidFEGicx64nvmdoUgSevbIQURqVnWzs6HM9jt5Y4tbROZpzjmI+rWpGWWu3a02OYIfK+HtWRPO8Rc/dvL6lvsRji4g8d4sUk5YBooEeu574FoUI988ehqHJEZq012tzuHZIv725Emb8DHdYHfisuhU5sVaclxxpaLFwY3EHg/66bekrv31tzZva7dk4Sx4LGIoZOBhSYMowYzNjMW9Uqmbtrdp3FP/YUmXqEYKDGQeau2BRyDX5a/G7x9jcrsLy0LEjB97YueZNXR5Dn4nnRjBDpxRCVaXAtwHy06Pwp2tGIi5cmx//vrp2PLpkr+sYEbNzxt++pk7XE6aCxAjEhwT6xeQvA+UdxxrvW7lhw79a1z1j2ASZ50YwDkehrOn2vMiQADx3VSGKMrVZUNfUacUd7+xEca3HR9v95hxklbX14Gi3FeenxyAtMsR3H2QyVIDXdNvVB1b99Tc7WutKDe2OhwLmcYCQ65lriW+aU5jiqlKnxQeq2+pwFY76wmSTumfLOYrZVNuGKRmEpDCffIzNTLy24cjOG9t3vlfTYnC4wGMBU7Q/FVyQ6btfG+aUGR+G+y4ehkCL+w8LnaOA1z8vx7MrD7tKMXirdqsdn1Q2Y3RyFIbEhrkmv30Cc4eq4L3S3at+98lfH9e+lmo/eSRgaPxPx5Pdoc3jC3FWIoID8Psr8lGQEa1Je5tLm/D/VhxAQ3ufJu0ZqduuukYyzhHNiIQIBGkQwEZioB5QfvPRzvcX1//Ps6ZaAKR/wITHQrHZp4NIKth5SHCAgsfnDsecwlRNBo0H6zvwi7e2+0S4nOBgxq7GDte8zJiUKMSFBnnjAFsFsLe1teW+1S/evrqtodR0Q0v9ozt5WDATCvzxBAGjjBoQg2vHD3TtyXGX1aHitc/LcaDBeyZ1z5bzTq+msw87jnagw/sOdXMA/EVTbNj8HYv/vNaM4QJPjGAo9pIkYozwxq8HbxQaqOCxucORFOV+RQznB3Dhliq88mkpvOuzd24q23tdx9KOSY7CwCivqC3j/NW8X1G2987Vd95i6hl3/UcVsW1DQBSj+3WEq1TBr2cOxbScBLfbcqiMhV9Vueq7+MOh886A2VDTgr3HOk29eJAZbcy8oPjgJ/+5+jlzhws8MgfDeflSYMozLj8vHffPztHk1uir8mb85r1daOrSdTe/qVgdjG317ei0OTAqMdKMB7x1sqo+uPzlO/9Sd2ib+Vc5euQWaVC0rH/xgKTIYNx70VBEarCRsdfmwPNrjvhVuJzg/NQebO5Cl9WBcanRCA9yv7YMAQ4i6ncgMKAS0ACmZ3atXPi6t4QLdA+YmDSCBaN0vYZwuWVKJkYOcH+1bo/VgT98fAjLdtVp0i9v5LxDquzodZ3BFBUUAHJzIiE8QPlnam/jG9RR0797L1ZtVpVLi1e+XtlcX+Y14QK9A4ayzk8hokw9ryGA/PRI/HJ6FtxdzmF3qHhuzWE8s/KgqwSmv3PeKnVqMP/EQNz+bcvXY9tCzxQrNhF9J3knX5IFQJuVXuKkwoIs+M3MHCRHuV+hbltFK15cd0TCRXM8hMDaVfnyIvoFTFQGqC9yCgBtT1IX/0sh4PYLsl0FvN2tRHC0vRcP/HOvJmdIi28jIIWKrioyuh9G0C9gsqaG4PgRJaabivcVIwdE496LchAa5N6PuKXLins/2IMvSo5p1jfxLSFgTMXAiX632FS3/2FSbLFgytOrfQH8ZNwAxEe4X+PljS/K8c9tNaasTOcbyPlXASzsd6N5/RI19pJRREjSrX0/NzE7DteN16YCaXZShKtujNAPA8OROcnv5mH0G8FkRc4AoN3ZGOJb7rggG0lR2nwhXlKQgtumZ/thSUnPIUIKKfl+90RVn4AZNN5CJCcI6Emrw+rh2mKg4Japg5GVEK5Zm+J7FBqWOszoTniaLgFDEYkpzpG3Hm0LfaRGh+D2GVlyvrOe7F1+t+hUnxFMWk42wPG6tC10c+24gRifFWd0N3wWgfIx6RptDqXyEvqMYOJzCwDyuxlzbxcbHoQ/XJGPQXFyuoweGDyYomamGN0PT9InYCLj/W4o6CvGZ8XjoUuHuariCW0RKB4Do/ON7ocn6fMuIvjdZJavIABXFmW4quIJrXGIQkoBfnyb30x0aR8whT+NBnOO5u0Kj4kKDcSvZw6RUYzmiJgxFaVNfnMPqvk7iDKGFEkFO+83pzD1eNFwv/mu9QxijKTxP9DuDF+T0yFgRhYBLMtCDWK1q5qUfAwLsuDui4YiLVrm6jVFSIUa5jdLOLQNmFFXBBN4imxwNEZ7jw2PLNmLf23X5tytsZlxeGTOcIQEyq2ShiwKKxcizD92DWj6zqHkgjQwFUCOEPC4XpsDjyzZhz+tLXGVu+zodf/8LYWAn00chBm5sqVMWzSRUob4xUGE2n41DRiWC4L7Je3FOVu9rwFvbapwnQawq7oVq/cf1WR3dHCAgmsnDJQVvhpiYDAyJ/rFPKW2IxgKnOa8fdeyTXFmu6tb8cDivejss7v+udem4ol/78OBunZN2p9TkILLRqXJuFQjBCQgPN4v5mG0C5jYDOd33IVygqNn7a9tx81/246D9Z3f+vf76jrw5EcHXLdO7goPDsDvfpiHjDjZHK+RYKTn+MWCO+3CICYjjgnaFCgRZ6W9x+YaueyobD3pf1+xtx67q9s0udbQ5EjMG5nqOtxNuE9xKLnANKO7oTvNAoZyxuUSS4FvT7E5VDy14gA+Lm7AqaZaOnrteHFdCWwaFPF2xspt07Mxc7hM+GqDCzApxueftmo3gokclg+Q+/UbxVl5f2s1Xv6k1DWpezr/3lmLzWXNmlwzJzkSd80a6jqMTLiLsqk3yOcfiGgWMEps8jBX6VHhEct21aHbeub5lS6rA8+tOoRmDU5pJAImZcdjVl6y2235PUIcJv/U5yvcaRMwg8daQOQXk1Zm4TiHu56VxUfx6mdlmqzwDQm04LeX5UlJB/eFUJ86BRG+/bRak4Ch2MGxYB6uRVtCe1aHimdXH8KRhk5N2huRFoWbp/j8l6/eFIAnIzHXp/diaHWLlA8i9w9GFrpp7rLhpU9LYHNoczbJDZMyMTJD5vTdQYwRSJkVZXQ/9KRNwBw/nkQ2OJrcwq+qUFyrzWPr1JgQPHn5CCRocC6Tv2KiCArr9OnFRdrcIoGqAbi/+UXoyjmK+e91JeizaXP29IzcJNfhb1LSoX+I0cKBPdrct5qUJgGjRvAuZt6jRVtCXx9sq8b6Q42atBUcoGD+xTkYkerTo3y9OBi8BDvXnXyVpI/Q5hZp/ftd3Br5HBh9mrQndNPV58DLn5a66sZoITUmFHdeOEQObTtHzi9krt37POoPub+Xw8Q0WwfDZS8tA+FfYPj0D8wXOEcw20+xvaA/Li1IQW6yX1Qf0AajlwMsz/FHn2gzlDQx7Vbybl3a66ha92sG3nYO/zRrV2iuo9eOR5YUo7qlR5P2UqJD8P/9KB9JkcGatOfLGNzDzM/wqqcXAeuN7o7utN35vOKlo2rxG7cD+ELTdoXmnKOYF9Ye0WTxndMP8lNw96whUjfmdBg2MBaoxc1PoWRTr9Hd8QTtSyts/LBLbYte4Lzd17xtoRl2DjU3V6LimDa/JotC+NmkTGQnyfnWp7GF63a9gE23+kW4QK/aLfzhPStUOz8KsDYVj4Qujnb04ZX1pee07eB0nLdIv5k5VEYxJ8Nc5Ti6/z7+8HfHjO6KJ+lTHKprl52XP/7fKtMTAPtNWnujd76swoF67b4HrizKwJShPr9J+BxxIxN+jc/+stnonniaftXn6ovtvOe1Vxj4VLdrCLedGMX0afTYOiYsEPdclIPYML864/3UGH0q8zPq0nXL0FKlzYSXF9G3vOXm5T1cuWk+Mw7oeh3hlnc2V2LR1mpNioQ7XTg80RUyQX5f/Y6ZwX/jLYtfQv3LdqN7YwTd6+fyxyv2sEO9CcxNel9L9E97rx1Pfrgfta3aPLYOtCi4fXo2ijLjNGnPWzGwXa3+5LfY9Y9uo/tiFA8U6N4HXvfiRia8DkCj6UShtSONXVi+p16z9iJDA3DDpIHw2/le5jLmgPuweXGt0V0xkmdOAChfD/XAwmcY+FhCxrxe3VCG+jbt5uR/OCod04cl+l2ZQwbXqy0xv+JFd65HS53R3TGU544Y+WxRo3rswC0Af3p89CjMZmdVq2vCV6vFd/ERQfjDFQUY4F/HnTig8O956z2r0Frl91+mnj3DaPE7tY4K9WYGb/fodcVZYQZe/rQEq05zUsG5GjkwBk/My3Mdpu8H+hh4XV216DWU75IvUc8fkrYPWHlVGTc3PsCAT29T91bNXTb8dtk+NHVoszHe+Qa7ZuwAzMrz8eNO2Hnrz+9wbel8lL7v0zVezoUhpzDy7lc/Zah/BuB+qXuhuR2VbVh3QLuNvkEBiusQfd8+tI33OWr3P84f3idfnN9gzDGvh7bbefvfn2TwHxksNWRMRmV23Sq19WhXpNA5grmyKMM3q98xjqmdTQ/gw39UG90VszGuju7Wpd1qwIAnlMIZQwBcYVg/PMyhMrqtdre/ze2qvvOHm0ub8dbGCtwwOVOzR833/2AYNhw+hiqNykSYA3cy8CCveHIFUGV0Z0zH8O8TuuqF8Up0+ocg+MUGlqjQANexHwGKe4PH/XXtONap7x1mUmQwhiZHQNFo2MHMrrOy23t9ZlGrnZmfV5t2PY7Fv/PbxXSnY3jAIDVToR8suFoJoGcApBvdHSHOFjMvVre993Ns/0CqBpyC8c8OO1sZLVv2Ut6cMnKolwCQsmjCC/Bh9Ujrjdj0e/9eSXcGxgeMU2srOLCzhBJH5RCh0BQjKyFOhdHJxHfxmgc2oK/D6N6YmjkCxqnqkMohBduUpMTJANIkZIRJOZj5WfWDV19G606/X6l7JuYJGKeqT9o5dcTnFJk4gUAyHyPMhgEsVbctmo+ypb70KEw3xqyDOZ29bxxgBN8PWekrzIax11Gb8DC2L9Tm/F0/YK4RDI7Px6BkfQUNGu+goNCpAMmZ18J4zIfUtvrrsPbuveiTh0Zny3wB49TbAQ6mnUrqyCyARphypCX8B6NPVekefvuGVRIu58a8H9ytS7sdVcUPfn3GkuxMFUZxALyQd7y/xOiOeCNzjmBOaCtu58EjNioBMc5bpRSjuyP8jp2Z31UrG+bj86dbjO6MNzJ3wHR3A7tWNWHwuAoKjZ0ni/CERzE+56bin+PD+/zqLCMtmTtgTmg5XE55VzST2jcdREFGd0f4AeYKR2nVLVj+QInRXfFm3hEwna0qV+/eTjnTBhBRkSzCE7pi1DHxbbzm0U/RKyt13eEdAePU2cCcmHRQiRl8KQD/Pg9D6Ie5jxU8rC57/D0cK5WVum7ynoBxqi9vxqDC3QiJnkDwj/IOwqNUJn5d3fr+73F4vVRb1IBX3mrQHW9NVKxhSwDy8UKvwpOYeYu6dc887Phtg9F98RXeNYI5oexgDRVMiiNHwCSQd4akMBlGKSt0B9Y9Xgyb1I7SincGTHcjOCRsFyXm5hJoqKkXDArTY3AdB/beyAvvX4+OWlnUqSHvDBinyt3dwOyVSAsZTUC2t97uCcPZQMpD/PH976O+QsJFY179zc/bbmxRg+IfgFRbFv3DzPyJum3PQpSXG90Xn+S9I5gTDqypR+aEJgoKvRhAoNHdEV5DBfhjtf3Ir7D6ESl7qRPvD5i+dqCvah8NnhJMoHGGHsUivAYzdqvVB6/Fkocqje6LL/P+gHFqqld5cNEOJTRuKIA8mY8Rp8WwsYMfxqJffmZ0V3ydbwSM0741vZyUtIGiM8cQaLDR3RHmxEAfCM/w2uf+jNYqnzmgyay8epL3e1a82MBHK+8DoN3BysJ3uJ4R8UfqnmNPomyj1NT1AN8ZwZxQf6AeeRc5iOh8ALLzWvwfQgMfq7gDq++sMLor/sL3Aqa3DVDtOyg9r5ugnC9PlsRxXKNaon7Nqx9d6zrsT3iE7wWMU/1+O9cd/pKGTs0iolEy6ev3Othh/xUvnb8Y9SWyQ9qDfDNgnDoamCPTtivxg8aCMFBCxm/ZVYv1aV705l9w7EsJFw/z3YBxqtjczim5XyhRyT8ASGrI+B8V4GXqtg8eQKkclGYE3w4YJ1tFE7LmgEid5XNPzcRpMWOnWrfvl/j0pVqj++KvfD9gWluB5opiyp6USOB8OcjNTzAfQGvd9bzuhWI5y8g4vh8wTq1VNk4fsV6JSEoHaKTMx/g8q6Ml+nb+4CfrJFyM5T+3DEsf73CUH3wEjP1Gd0XoygHgbVT+bbnRHRH+FDBOqx6uU3va5wOQc258EcPBzH9zVDQ8iC1vy6SuCfjHLdI31e08TLkXtxAwHSQHufmYT7n8wI1YdU+z0R0Rx/lfwHS3gR28n9LzY4gw1u9GcT6KgU5uibyLP3xzLyA7AczC/wLGqWGfnR2OLygjP5dAeUZ3R7itBYryCK++dyE6t8k2ABPxz4Bxathv48Sk7Ur04IvASJDnSl6K0cus3KcuXf0q6lc4jO6O+Db/vj34cnkJOxyPMrjV6K6IfiKsUVs++zvqX5baLibkvyMYp94WcPmmA8iZXU0KXQBCqNFdEueAuVgtqf4llj8hK3VNyr8Dxqm3ndG4fw9lTY8iBZNlEZ7XKFcddBOveWybLKYzLwkYp46jYEfvDsoYmUPAUID8+9bR5Bhcw4F9N/Ciezegrdro7ojTkIA5oeFgL3JGrqXgxBEAcmQkY1IMG1Q8wCv//AHqdxvdG3EGEjDftHddDycN36lEJ80FKMbo7oiTIKxUtx/4Hfa/0Wt0V8SZScB819GSYxgwvo5CQmdLTV+TYXzpqPrqeux6vgF9fUb3RpwFCZjv6msHarcfwIhLQgk8Tso7mAW3qC0xt2DprbslXLyHTGaeTEuNg6uKnwHTouNV0YShGDZm/Il33bvB6K6IcyMjmFM58kkfk7qBUgvGEvFgmfM1TC8TPaPu+ccC7F4n8y5eRkYwp7Ptg2PcXnMvQHI4ukGYsVTdXPckNn/QYXRfxLmTEcyZ1O47SnkzGgmWSSCEG90dP+IAY6/aVX031txZY3RnRP/IuP9sRGUQTfvFeCU198fMSg4Rh8mPTj8M1KGH1qqN61Zj/bs16JHyLkIIIb5D5mCEELqRgBFC6EYCRgihGwkYIYRuJGCEELqRgBFC6EYCRgihGwkYIYRuJGCEELqRgBFC6EYCRgihGwkYIYRuJGCEELqRgBFC6EYCRgihGwkYIYRuJGCEELqRgBFC6EYCRgihGwkYIYRuJGCEELqRgBFC6EYCRgihGwkYIYRuJGCEELqRgBFC6EYCRgihGwkYIYRuJGCEELqRgBFC6EYCRgihm/8/AAD//7yWrEpmw8R2AAAAAElFTkSuQmCC;" vertex="1" parent="cAXRqbwzUYpm79ER4dvK-74">
          <mxGeometry y="5" width="30" height="30" as="geometry" />
        </mxCell>
        <mxCell id="cAXRqbwzUYpm79ER4dvK-26" value="" style="group" connectable="0" vertex="1" parent="1">
          <mxGeometry x="322" y="523" width="110" height="55" as="geometry" />
        </mxCell>
        <mxCell id="cAXRqbwzUYpm79ER4dvK-27" value="Broker" style="rounded=0;whiteSpace=wrap;html=1;fontFamily=Helvetica;fontSize=12;" vertex="1" parent="cAXRqbwzUYpm79ER4dvK-26">
          <mxGeometry width="110" height="50" as="geometry" />
        </mxCell>
        <mxCell id="cAXRqbwzUYpm79ER4dvK-76" value="" style="shape=image;imageAspect=0;aspect=fixed;verticalLabelPosition=bottom;verticalAlign=top;fontFamily=Helvetica;fontSize=12;strokeColor=default;strokeWidth=1;fillColor=none;image=data:image/png,iVBORw0KGgoAAAANSUhEUgAAARgAAAEYCAYAAACHjumMAAArwklEQVR4nOzdd5xV1bk//s+zz/TeOzDMwDAMMwMydKSIoEQBY4wl0RuNLYnlJjbsJTf+/CaKxnjVmHgtMWpEDCGgIFURBUQ6DH16Z5jeT9nP73UOcq+FOmfvs/c553n78g+Vs/Zy5pzPWXvttZ6lQAghdCIBI4TQjQSMEEI3EjBCCN1IwAghdCMBI4TQjQSMEEI3EjBCCN1IwAghdCMBI4TQjQSMEEI3EjBCCN1IwAghdCMBI4TQjQSMEEI3EjBCCN1IwAghdCMBI4TQjQSMEEI3EjBCCN1IwAghdCMBI4TQjQSMEEI3EjBCCN1IwAghdCMBI4TQjQSMEEI3EjBCCN1IwAghdCMBI4TQjQSMEEI3EjBCCN1IwAghdCMBI4TQjQSMEEI3EjBCCN1IwAghdCMBI4TQjQSMEEI3EjBCCN1IwAghdCMBI4TQjQSMEEI3EjBCCN1IwAghdCMBI4TQTYDRHRA6GDI5nMbMm6BEDRkPIFsB9dotVILGhhW8bslBNH+sGt1FXze0cIwlOm1kcnTq4AKAFDXQenDvmg8qG0uL7Ub3zZPI6A4IDY2+IpTSCs9TUvPvBzALhNDv/Ik6Bt7lss0v8uFVFSjfxQb11Ccl5k3DwMzc8MGjpo2PTcm6CeAJIMpwfc4YjQxeVTcg+m8Nrz67s3R7TVtz/cc+//OXgPEFqUVEk64brcQNvBvEswGKO82fdr6p9zDjBW48uIyXvH0U2OfBzvqezMxpGDLjogGDR82aAzguBWgKCFEn/9PcAaZdDH67umrTss3v/LmutfawzwaNBIw3y/9VHOXkXEgJGZcTKzNASD6HV1vBKOe4kIW8a90/+PD6EpRsterYWx+SgexRQ4MG5k3PjhwwZFpSetZUgCYSkA5C4Fk1wWwFUa0K/qJs+9qPFFK3V26tLju0+68+9TuQgPFGhVdF0PhrLiZS7yHQWPfn0rgBwFq1ueFZXv/SdjTKiOZUci+8IfSCS6+baQ+I+BkI05x3Rho0q4JxDIS1dmvAW3vWvrp56/K/tGrQruEkYLxJ2u2B9MMJM8keOh+gMQREaNg6M7iKQX+l8J5F6rIFR3Bkp0wGO8cr2XcpY6+bmpWQkDIXjB+BaCSASB0u5bxV6gSjBIw3K6t2Lqk9tLFmz9K3vHZiWALG7KIyCPEZUTTlutlKcMrPGDifiE5xf68JB4PrScW/HWVb3kb557tRe6ALPc06XtJcojLykJCYFhw/MH9oZv7YmdEp2VMIGMfgVAJZPNEHZtiJXJPy+7qaGz462HZkTcunH1U0lRd3tzc3eKILmpCAMbNZtyUomRf+BxGuAaMIBI+8ub+hF4yNbLMsUK2r1+Ddl2wevr5HTZs2DYFZMwcMLpp1CRiXOP8VgGij+/W1dgA7QXi7qXj1R2s+eLOuvbHE9JPDEjBmk5gIpM+MoPRbx1N603wCTQcQZFh/nG9h4mMgel8tbX2BD71WioqNPhU05839dXBSxvC8jLzCixUoVwPIBRBidL9OoYeZD8PC72zvKvnAvmlD9e6Dn1uxz5zzZhIwZhGVAWRPSKfcmZdRZOINAEYQEGZ0t76FUcvEG7mx6g3et+4zHFzWaXSX+mvE5B9GJueOGTVk5IxJDLoYcI4QKdJ7PhOsMtMxAhcrjp4V5fu/XH34q3WHShv3d6O62ujO/S8v+WH6sMxM0Kj/zKbEQbcCuJoIGYDHb4XOVR8zb+YAPIWwhk387Esd3rCWxjVZe+nIwQlDcucxcC0RRoAR4gOfAhVAF8CHwfxW1f6EJZ2H/lLz+dpnDZ8c9v4frbcaNDGcsm8cQ0Pi54H5ciIM8qq9Ya5bJ3QAOKB2NL+F/asXc2tVA8o3OYzu2jdlFM4ISBmcP2zs9LkzbQGR5xMwHow0A+azPMXOQB0xinvajy4vbju8pnXt8jLb0YO91QaMbCRgPG3CtSE09qIipTf8foBmn/XCLHNjgCvAymK1/cCLvHBlGbDe6D6hYN5doeNnXX0/Mf4ThFij+2MEBtqJeemOFa/esXXF622evr6vprj5JBcqNOHaQkvuRQvIETwfhNEgzzzy9AACKAaEcRScMJ3GjrGCL6xG77Zu9BozTRMVlYEf3PzUFSD1KRBiDOmECRAQDNCIkOjYPfs+++deA64vdDV4bBCNuGwqpeb+nFwbEEmLlZ/mxrADXMKM97nmq3e5ZM1hHNrm0VunCZc/m1kwY/JyAMM9eV2zYvCmMFv93BfuvrzJk9eVgNHLuPnhVDh+DhFuAjCZyGRPhDyCGSDnG3qN2hbxR14/fyvqd3lkdfBNL3zxXwopjwAk7/HjHAw89vHzv/p9dckOj63Q9pUhunmkjFQw47aRluzRT0HBfUQYTr4xz9IPrg+3M1jzEdw3i3IvCOHIgSUo36jrfdPoS26JTR8yegGIkvS8jpdRwMjKK5q4+qtV7zZ66qISMFop+lEsXXDP5ZaCi59WIpIeAmgckfP+V8AVNRRDwAUUn/5DZfTVCTRslJX7oo6i+YCmt05zf3pHSM70Gx4D0RyveirnAUQc7bCEZYQF0fLKg9v7PHJNT1zEpxU9lqCMLvgJEf0HmEaCDFx16y1cC9y5k5n/zbVxT3Pdmwex4++avOF/+cKmHzmI3gBOVY/F79mb68qu/edTP3nfExeTEUx/jb48nOY+NV1JS/4jgX4BogE+vLZCW+T6Og0iQiFF9s1T0odnIX1yCZorjqG7/6P3vFk3RqYPG/MSEYZq2l/fooRExgaH2CMWV5Vu1n3iXUYw5yLmYgUTs9Mo/rx5FBp3Awi5pM+2fX+jurYhgJZzWcsSPrrkC+xe1n4uDSQmJuLCO167OTIu6SVD9255AWbuVBBw67IF17xXV6nvhkn5xj1bF87PoMnzHlJisv6gBIZeS4SM42sMhAYIhCgiFFFsyJVKxqgJGHP1UdipGg3FZ/Utm3v+T2IyR011hku6/t31bkQUxKQWdrc2L6o9skPXCXcJmDOZeXu0MmP+1Up8xotEdBkBCTLy05XzPTkY4LlKRv54ZdwPq7k6tQadW075TZuaU0RT/uPh6xXQ9fKePjsExCXlTT60o3P/dlRU6HYd+WWcTFKuhXLvGKqcf9k1lDryGSjKLQRKl6cSHkMECgEwjFXLPGVY5hhkTQpDgFKLDms3bP+34j0qKgMzrn9iUlhk7AKAEgzttVchIoctfVhUytK9X+i3K14C5psypwFTbh2ojLn6YSU16UUKjfkxETlvheT8KIMQURiI8ig0+jIlY/RFVDDbxoH5paj5xPXUKX34mPC8qT9+DUSjje6rtyGi5MDoZLW2dNsnnU31uszFyFDfZRowoyiFsifeqICuAtEIOZTOtHrAWKHWxz3Ddc/vunzm1VMS0rOWQubD+olr7IF9l7/xwm1f6VG0yr8DJmlIEPLnnkdDzr+UmJ2jlWFyG+QFvi4VEUDYetnQpJjo4MDzjO6SF3P+NNcUr/7g6o1LF7Ro3bh/BkzaiEC6/KlCstruAugyIk2r8wsPGRobhklp0bAo8p3gJjU1LvSm/7p25JtaN+w/AROVQcgbHUXJE2cryTk/Y/A4Ykrwo5+AT4kPCcT0gXGIDpY7WS0w85bynWvmrHn9UU33KfnHJO/suxKUyb+4RUka9TSFx98BwjAChUm4eKcAhTApPQaJoUGyV1ojRJQSm5LVrQb1fVF/cLdmu619+9eTfVMIXTJlotIX+cDXR1DIRKAPSA0PxqzMeFfQCE1V1h+JmrfsT3m7tGrQ90YwUYlAwZw0mnzrbCVv9B/IEfwAHS86JGNpH2AhYFxqNGJD/LQChr6iI2L70tOTEpYf2vW5JptPfecrIDMTVHRNPOLGXEeEu75eGCeh4mOyY8IwOT0aATKxqxe7agm94bXbRr6jRWO+8QGceFm4Unjtj8HK9QBNJPMemiXcEKgQhseHeXW4uOaM+OuKFeYUQI7un6Zkn7ewvmSH28eeeO8IJiHHQkUXZVPG9IvJQtcBGCW7aH1bblwYJqTFQDFoZndAYhgGJYaDvnP9zh4bDlS3o8f67X2ZESEByE6NQHZKJBKigxEdFohAiwK7ymjvtqG2qRuHajpQ1tCJPrvHqlieEQPdxMov1//1tncO7d3qVse8L2Ay8hSMm5euxBfdSaDrQJQsi+N8X4hFweysBMQZOPdy6Zh0zB2XDuU7k8sOlbFsSzWWb611/XNokAVT85MwcVgikmKCEWA59dvTaldxuLYDK7bV4khtO1STDG0YOKwG9fzo9V9c4NZJBN41yTtjfqoy/rrblbD0/0dEl4EoyitDUpyznLgwZEeHfW/04NE+pEVhWHrU9/rgHFE5/9588BjCgi24cspAzByViujwwO+F0XdZFEJSdAhGDIpBY1sv6lt6df6/ODsExJE9wNJRvWdF89Gafsee+edgYi5WMC4njwZOu4IUuobAQ70uGIVbksOCkJ8QccYPq5GSYkIwYVgCJucluW6JznWayHn7dPXUTPTaHDhQ1W6GORoiop9OuOKxhYf3zPmkv42Y94OamAjMuH84TZh9nxKd+Yyi0NzjtVhIbof8SKBCmJwei7jQIMOHqqcawTgFB1lQMCgGidEh/V7857y1ykqOxKHaDrT32NzvsPuCA0JDo7ptjn8dK93Zr/Kapv2w0vSHp1vSRixVQHcTUarR/RHGSAkPRnK48eFyJs7+nW6u5WwlxYZgekGyaVYoMzBj/I+vL+rv6805gim6Ks2SNfFdgHLNHIJCXwEKYXxqNKKDzbGo7nQjmO+y2VU0tvVhf3Ub9la0orS+Ex09doSHBCA48NQfO2fLcZFB2FHSjK4+jx6GefL+EIUojoDMvILx63Z/cW51kmHKOZjMTFKKrr4DQJ7RXRHGyooOdY1gvE1dcw+WbqnG/qo2dH8jJOjrR91XTBqI4QOiT/n6yNBAZKVE4GibR44uOiMimh6aUXgPgLvO9bXmGx3EjosAY5Ip+yY8RqHjq3YtJp7Y/S4GUN3Ujb+tLcW2I83fCpcT/72ysRuLN1Whvdt62rZS40x10rCFCZf154Wm+xDT0FFZRMg1uh/CWARCsMV7wsWptqkbr648jNKG05e4rWzswr7KttP+mcSoYNPMw+D46Ktfx/OYL2Bicpyjlzij+yGMpYLR2uf2SnWP6uq1o63rzE9/mIGKxq7T/pnwkADDViyfQnV/XmSugInKc44jpwP+eli8OMH5IWzqtYHZBCtCdNDZe/rwDAlUTBUwzNyvFb3mCpjEqAgQTTC6G8IcWnrtcPhowFhtp9/i43pSZaJ8IaKd/XmhuQImYXA6AbFGd0OYQ6fVDhPtAfRbDO5RCKX9ea2pAoYi0kaAEWp0P4Q5dNtU9ErCmAA1NceFHuzPK00VMMieWggy4docYQirqqLbbvxiM39HQEXp2y/W9ee1JgqYaVBgH2p0L4S5dNm860mST2Ku6G3p6ejPS80TMKPTQhnIN7obwlzavexRtS9i0NbiTW/36xdhmoAhnJ9O4EFG90OYS5sJ9uP4OUdNaszW/r7YNAGDKeF5AJlqfbQwXrfdDtUsZd78EaO94fUF9f19uWkChrojZsgCO/Fd3TYVfao8STIKEzeA1aP9fb05Amb0NRFEON/obgjz6XOo6LLJbZJRiKlSpaCe/r7eFAFDgwcNBijN6H4I83GojE6rBIxhmKtqKj7rd3k9UwQM4sePg6zgFSfhvDlq7rVB9dEtA6an0OHGffv6/3JNO9MfQ6coxDwVcliaOIWmHhscki8ex4Da2HjwiDttGB8wDlsIEQqN7oYwr06bHXaZ6PU4Aqzt1dW17rRhfMBETUxjRpbR3RDm1Wl1uJ4mCU/jdmtLS7/qwJxgfMDEUy5R/6plCf9gUxmtfaY4xsPPUFVN2bYmd1owPGAoNW+UnM4ozqSx2+qzxafMisEH6iv3dbvThuEBo4TFnmd0H4T5HS8+ZXQv/Aup2NzT3OBWG8YGzOgfhTAw2NA+CK/QZXPIRK8nMXocZHHrCRKMPheJ4rIGEHiA3CGJM+m1O1zFp0ICjDsrcHdFi+u4kVMdvNbaZUXfWU5GVzZ24+/rSk/ZVkePDQ6HgYFKaAizhJa524yxxZ0yJ4wBKMrQPgivYFUZnTYHYkKM265W1djt+lsLTR192LCvUZO29MDg0k0fPu/e/ZHRt0gKURHAQUb2QXiPbtmT5DHEKAMFup2mxgVM9vVBDMyQ2yNxttqk+JSHsIMZO7d99Mrpj588C4YFDEWPGw5CplHXF96n3WqXR9UeQdaQ4IBdWrRk3AhmTEohAVJgSpy1LpsDEi8e0bXx36+4tYL3BGMmedOyiJhngMjvCkxFhwZg5IAYBCruZfvumlY0drg9gv0ehYDCjGjEhwdr2m5zVx92VrW5FRCu4lN2FaGBxj1J8gcMPhoYHNrvKnbfZEzABKdEkWuC1/iFfp5WkB6Nxb+aiJgw97L1yle+xL921GjWrxOmDE3AOzePQ0q0dpvbHSrjocV7XQHjjj6HA90SMJ5Q8eWSF/tdZOqbjPmA556XACDdkGuLU4oNC8Sjc4cjWcNwcdpY0oS3Nle4fXujMtBulT1JumOq0KopQwKG+kKGAZD1LyZz69TBmDwkXrPnes5A+fzwMdz+zg5NbufYVRtGJnr1phDcXsH7v21p1dA5yb9ylOGL/MS3FGZE484ZQ9yeG/qm0sZO3PLWduyr69eZXSfV3Gvz2QPxTYI7UoMPadWYMQHTV5ljyHXFScU4b40uzUVSlLbzLn9ZX4YjRzs1axOutTA2WGXXo55ajy3/yItvkQZNspCqFHj8uuKkggIUPD5nOC4tTHU9QdKCXWW8/WUlXvu8TPPHyh1WB3Y3dsBq5D4dX3T8F1XBpD5cvvXj/Vo16/HbFIpPH0hEAzx9XXFylxSk4OYpWa6g0YLKwOLtNbjn/d1o69Fn5e3+pi5XlbsxqdGIDgrAKfYLinPC22xBfT9f+ew9e+sObdPse8HzATPmJ2MBlgleE0iJDsGDs4chNEi7gezGkmOYv2gPWrv1e9rjfPdXdvSitc+OcalRGBAZcspdyeJMuJcZK8t3rH1wzZfv7seh/p8gcDKeDZj0O4ngOkFA21Vc4pyFBVnwX/PycN4g7U6Lae2x4cHFe1HdqskSijNqt9rxWVULxqXGICsmFAFa3eP5j3ZS8WRn1eqX1rzxmDbbxL/DswGTcjSMwYUkGxwNd/WYDPy4KF2zeZc+u4oX1h7B1rIWbRo8S1aVsaWuFV02O/ITIhFokffWWepjh/p0cWfjnzYueEz7JeFf82jAEOdlEjDck9cU3zdqQDSeuCwPUaHa7NSwOVT8cfUhPLfqsKtAt6c5Q2bn0Q7XXqWi5CiEBFrkK+y0uMISzI8t/5/HF1ZuWa1buMDjI5iReZPBFCe/feMEBSh4+NLhSI8J1azNj3bX46nlB9Ft4BGvzlg71NKNNqsdY1OikBgaJPMy38fMXNpWW3bTV+89tL6yvFz3C3r0MTUFYCzI//YfmcnM4Um4cHiiZu219djw/JrDhobLNzV0WbGhqhXHemRLwbe5RpY72c43rXnz0Q3lHggXeDRgsidFEGicx64nvmdoUgSevbIQURqVnWzs6HM9jt5Y4tbROZpzjmI+rWpGWWu3a02OYIfK+HtWRPO8Rc/dvL6lvsRji4g8d4sUk5YBooEeu574FoUI988ehqHJEZq012tzuHZIv725Emb8DHdYHfisuhU5sVaclxxpaLFwY3EHg/66bekrv31tzZva7dk4Sx4LGIoZOBhSYMowYzNjMW9Uqmbtrdp3FP/YUmXqEYKDGQeau2BRyDX5a/G7x9jcrsLy0LEjB97YueZNXR5Dn4nnRjBDpxRCVaXAtwHy06Pwp2tGIi5cmx//vrp2PLpkr+sYEbNzxt++pk7XE6aCxAjEhwT6xeQvA+UdxxrvW7lhw79a1z1j2ASZ50YwDkehrOn2vMiQADx3VSGKMrVZUNfUacUd7+xEca3HR9v95hxklbX14Gi3FeenxyAtMsR3H2QyVIDXdNvVB1b99Tc7WutKDe2OhwLmcYCQ65lriW+aU5jiqlKnxQeq2+pwFY76wmSTumfLOYrZVNuGKRmEpDCffIzNTLy24cjOG9t3vlfTYnC4wGMBU7Q/FVyQ6btfG+aUGR+G+y4ehkCL+w8LnaOA1z8vx7MrD7tKMXirdqsdn1Q2Y3RyFIbEhrkmv30Cc4eq4L3S3at+98lfH9e+lmo/eSRgaPxPx5Pdoc3jC3FWIoID8Psr8lGQEa1Je5tLm/D/VhxAQ3ufJu0ZqduuukYyzhHNiIQIBGkQwEZioB5QfvPRzvcX1//Ps6ZaAKR/wITHQrHZp4NIKth5SHCAgsfnDsecwlRNBo0H6zvwi7e2+0S4nOBgxq7GDte8zJiUKMSFBnnjAFsFsLe1teW+1S/evrqtodR0Q0v9ozt5WDATCvzxBAGjjBoQg2vHD3TtyXGX1aHitc/LcaDBeyZ1z5bzTq+msw87jnagw/sOdXMA/EVTbNj8HYv/vNaM4QJPjGAo9pIkYozwxq8HbxQaqOCxucORFOV+RQznB3Dhliq88mkpvOuzd24q23tdx9KOSY7CwCivqC3j/NW8X1G2987Vd95i6hl3/UcVsW1DQBSj+3WEq1TBr2cOxbScBLfbcqiMhV9Vueq7+MOh886A2VDTgr3HOk29eJAZbcy8oPjgJ/+5+jlzhws8MgfDeflSYMozLj8vHffPztHk1uir8mb85r1daOrSdTe/qVgdjG317ei0OTAqMdKMB7x1sqo+uPzlO/9Sd2ib+Vc5euQWaVC0rH/xgKTIYNx70VBEarCRsdfmwPNrjvhVuJzg/NQebO5Cl9WBcanRCA9yv7YMAQ4i6ncgMKAS0ACmZ3atXPi6t4QLdA+YmDSCBaN0vYZwuWVKJkYOcH+1bo/VgT98fAjLdtVp0i9v5LxDquzodZ3BFBUUAHJzIiE8QPlnam/jG9RR0797L1ZtVpVLi1e+XtlcX+Y14QK9A4ayzk8hokw9ryGA/PRI/HJ6FtxdzmF3qHhuzWE8s/KgqwSmv3PeKnVqMP/EQNz+bcvXY9tCzxQrNhF9J3knX5IFQJuVXuKkwoIs+M3MHCRHuV+hbltFK15cd0TCRXM8hMDaVfnyIvoFTFQGqC9yCgBtT1IX/0sh4PYLsl0FvN2tRHC0vRcP/HOvJmdIi28jIIWKrioyuh9G0C9gsqaG4PgRJaabivcVIwdE496LchAa5N6PuKXLins/2IMvSo5p1jfxLSFgTMXAiX632FS3/2FSbLFgytOrfQH8ZNwAxEe4X+PljS/K8c9tNaasTOcbyPlXASzsd6N5/RI19pJRREjSrX0/NzE7DteN16YCaXZShKtujNAPA8OROcnv5mH0G8FkRc4AoN3ZGOJb7rggG0lR2nwhXlKQgtumZ/thSUnPIUIKKfl+90RVn4AZNN5CJCcI6Emrw+rh2mKg4Japg5GVEK5Zm+J7FBqWOszoTniaLgFDEYkpzpG3Hm0LfaRGh+D2GVlyvrOe7F1+t+hUnxFMWk42wPG6tC10c+24gRifFWd0N3wWgfIx6RptDqXyEvqMYOJzCwDyuxlzbxcbHoQ/XJGPQXFyuoweGDyYomamGN0PT9InYCLj/W4o6CvGZ8XjoUuHuariCW0RKB4Do/ON7ocn6fMuIvjdZJavIABXFmW4quIJrXGIQkoBfnyb30x0aR8whT+NBnOO5u0Kj4kKDcSvZw6RUYzmiJgxFaVNfnMPqvk7iDKGFEkFO+83pzD1eNFwv/mu9QxijKTxP9DuDF+T0yFgRhYBLMtCDWK1q5qUfAwLsuDui4YiLVrm6jVFSIUa5jdLOLQNmFFXBBN4imxwNEZ7jw2PLNmLf23X5tytsZlxeGTOcIQEyq2ShiwKKxcizD92DWj6zqHkgjQwFUCOEPC4XpsDjyzZhz+tLXGVu+zodf/8LYWAn00chBm5sqVMWzSRUob4xUGE2n41DRiWC4L7Je3FOVu9rwFvbapwnQawq7oVq/cf1WR3dHCAgmsnDJQVvhpiYDAyJ/rFPKW2IxgKnOa8fdeyTXFmu6tb8cDivejss7v+udem4ol/78OBunZN2p9TkILLRqXJuFQjBCQgPN4v5mG0C5jYDOd33IVygqNn7a9tx81/246D9Z3f+vf76jrw5EcHXLdO7goPDsDvfpiHjDjZHK+RYKTn+MWCO+3CICYjjgnaFCgRZ6W9x+YaueyobD3pf1+xtx67q9s0udbQ5EjMG5nqOtxNuE9xKLnANKO7oTvNAoZyxuUSS4FvT7E5VDy14gA+Lm7AqaZaOnrteHFdCWwaFPF2xspt07Mxc7hM+GqDCzApxueftmo3gokclg+Q+/UbxVl5f2s1Xv6k1DWpezr/3lmLzWXNmlwzJzkSd80a6jqMTLiLsqk3yOcfiGgWMEps8jBX6VHhEct21aHbeub5lS6rA8+tOoRmDU5pJAImZcdjVl6y2235PUIcJv/U5yvcaRMwg8daQOQXk1Zm4TiHu56VxUfx6mdlmqzwDQm04LeX5UlJB/eFUJ86BRG+/bRak4Ch2MGxYB6uRVtCe1aHimdXH8KRhk5N2huRFoWbp/j8l6/eFIAnIzHXp/diaHWLlA8i9w9GFrpp7rLhpU9LYHNoczbJDZMyMTJD5vTdQYwRSJkVZXQ/9KRNwBw/nkQ2OJrcwq+qUFyrzWPr1JgQPHn5CCRocC6Tv2KiCArr9OnFRdrcIoGqAbi/+UXoyjmK+e91JeizaXP29IzcJNfhb1LSoX+I0cKBPdrct5qUJgGjRvAuZt6jRVtCXx9sq8b6Q42atBUcoGD+xTkYkerTo3y9OBi8BDvXnXyVpI/Q5hZp/ftd3Br5HBh9mrQndNPV58DLn5a66sZoITUmFHdeOEQObTtHzi9krt37POoPub+Xw8Q0WwfDZS8tA+FfYPj0D8wXOEcw20+xvaA/Li1IQW6yX1Qf0AajlwMsz/FHn2gzlDQx7Vbybl3a66ha92sG3nYO/zRrV2iuo9eOR5YUo7qlR5P2UqJD8P/9KB9JkcGatOfLGNzDzM/wqqcXAeuN7o7utN35vOKlo2rxG7cD+ELTdoXmnKOYF9Ye0WTxndMP8lNw96whUjfmdBg2MBaoxc1PoWRTr9Hd8QTtSyts/LBLbYte4Lzd17xtoRl2DjU3V6LimDa/JotC+NmkTGQnyfnWp7GF63a9gE23+kW4QK/aLfzhPStUOz8KsDYVj4Qujnb04ZX1pee07eB0nLdIv5k5VEYxJ8Nc5Ti6/z7+8HfHjO6KJ+lTHKprl52XP/7fKtMTAPtNWnujd76swoF67b4HrizKwJShPr9J+BxxIxN+jc/+stnonniaftXn6ovtvOe1Vxj4VLdrCLedGMX0afTYOiYsEPdclIPYML864/3UGH0q8zPq0nXL0FKlzYSXF9G3vOXm5T1cuWk+Mw7oeh3hlnc2V2LR1mpNioQ7XTg80RUyQX5f/Y6ZwX/jLYtfQv3LdqN7YwTd6+fyxyv2sEO9CcxNel9L9E97rx1Pfrgfta3aPLYOtCi4fXo2ijLjNGnPWzGwXa3+5LfY9Y9uo/tiFA8U6N4HXvfiRia8DkCj6UShtSONXVi+p16z9iJDA3DDpIHw2/le5jLmgPuweXGt0V0xkmdOAChfD/XAwmcY+FhCxrxe3VCG+jbt5uR/OCod04cl+l2ZQwbXqy0xv+JFd65HS53R3TGU544Y+WxRo3rswC0Af3p89CjMZmdVq2vCV6vFd/ERQfjDFQUY4F/HnTig8O956z2r0Frl91+mnj3DaPE7tY4K9WYGb/fodcVZYQZe/rQEq05zUsG5GjkwBk/My3Mdpu8H+hh4XV216DWU75IvUc8fkrYPWHlVGTc3PsCAT29T91bNXTb8dtk+NHVoszHe+Qa7ZuwAzMrz8eNO2Hnrz+9wbel8lL7v0zVezoUhpzDy7lc/Zah/BuB+qXuhuR2VbVh3QLuNvkEBiusQfd8+tI33OWr3P84f3idfnN9gzDGvh7bbefvfn2TwHxksNWRMRmV23Sq19WhXpNA5grmyKMM3q98xjqmdTQ/gw39UG90VszGuju7Wpd1qwIAnlMIZQwBcYVg/PMyhMrqtdre/ze2qvvOHm0ub8dbGCtwwOVOzR833/2AYNhw+hiqNykSYA3cy8CCveHIFUGV0Z0zH8O8TuuqF8Up0+ocg+MUGlqjQANexHwGKe4PH/XXtONap7x1mUmQwhiZHQNFo2MHMrrOy23t9ZlGrnZmfV5t2PY7Fv/PbxXSnY3jAIDVToR8suFoJoGcApBvdHSHOFjMvVre993Ns/0CqBpyC8c8OO1sZLVv2Ut6cMnKolwCQsmjCC/Bh9Ujrjdj0e/9eSXcGxgeMU2srOLCzhBJH5RCh0BQjKyFOhdHJxHfxmgc2oK/D6N6YmjkCxqnqkMohBduUpMTJANIkZIRJOZj5WfWDV19G606/X6l7JuYJGKeqT9o5dcTnFJk4gUAyHyPMhgEsVbctmo+ypb70KEw3xqyDOZ29bxxgBN8PWekrzIax11Gb8DC2L9Tm/F0/YK4RDI7Px6BkfQUNGu+goNCpAMmZ18J4zIfUtvrrsPbuveiTh0Zny3wB49TbAQ6mnUrqyCyARphypCX8B6NPVekefvuGVRIu58a8H9ytS7sdVcUPfn3GkuxMFUZxALyQd7y/xOiOeCNzjmBOaCtu58EjNioBMc5bpRSjuyP8jp2Z31UrG+bj86dbjO6MNzJ3wHR3A7tWNWHwuAoKjZ0ni/CERzE+56bin+PD+/zqLCMtmTtgTmg5XE55VzST2jcdREFGd0f4AeYKR2nVLVj+QInRXfFm3hEwna0qV+/eTjnTBhBRkSzCE7pi1DHxbbzm0U/RKyt13eEdAePU2cCcmHRQiRl8KQD/Pg9D6Ie5jxU8rC57/D0cK5WVum7ynoBxqi9vxqDC3QiJnkDwj/IOwqNUJn5d3fr+73F4vVRb1IBX3mrQHW9NVKxhSwDy8UKvwpOYeYu6dc887Phtg9F98RXeNYI5oexgDRVMiiNHwCSQd4akMBlGKSt0B9Y9Xgyb1I7SincGTHcjOCRsFyXm5hJoqKkXDArTY3AdB/beyAvvX4+OWlnUqSHvDBinyt3dwOyVSAsZTUC2t97uCcPZQMpD/PH976O+QsJFY179zc/bbmxRg+IfgFRbFv3DzPyJum3PQpSXG90Xn+S9I5gTDqypR+aEJgoKvRhAoNHdEV5DBfhjtf3Ir7D6ESl7qRPvD5i+dqCvah8NnhJMoHGGHsUivAYzdqvVB6/Fkocqje6LL/P+gHFqqld5cNEOJTRuKIA8mY8Rp8WwsYMfxqJffmZ0V3ydbwSM0741vZyUtIGiM8cQaLDR3RHmxEAfCM/w2uf+jNYqnzmgyay8epL3e1a82MBHK+8DoN3BysJ3uJ4R8UfqnmNPomyj1NT1AN8ZwZxQf6AeeRc5iOh8ALLzWvwfQgMfq7gDq++sMLor/sL3Aqa3DVDtOyg9r5ugnC9PlsRxXKNaon7Nqx9d6zrsT3iE7wWMU/1+O9cd/pKGTs0iolEy6ev3Othh/xUvnb8Y9SWyQ9qDfDNgnDoamCPTtivxg8aCMFBCxm/ZVYv1aV705l9w7EsJFw/z3YBxqtjczim5XyhRyT8ASGrI+B8V4GXqtg8eQKkclGYE3w4YJ1tFE7LmgEid5XNPzcRpMWOnWrfvl/j0pVqj++KvfD9gWluB5opiyp6USOB8OcjNTzAfQGvd9bzuhWI5y8g4vh8wTq1VNk4fsV6JSEoHaKTMx/g8q6Ml+nb+4CfrJFyM5T+3DEsf73CUH3wEjP1Gd0XoygHgbVT+bbnRHRH+FDBOqx6uU3va5wOQc258EcPBzH9zVDQ8iC1vy6SuCfjHLdI31e08TLkXtxAwHSQHufmYT7n8wI1YdU+z0R0Rx/lfwHS3gR28n9LzY4gw1u9GcT6KgU5uibyLP3xzLyA7AczC/wLGqWGfnR2OLygjP5dAeUZ3R7itBYryCK++dyE6t8k2ABPxz4Bxathv48Sk7Ur04IvASJDnSl6K0cus3KcuXf0q6lc4jO6O+Db/vj34cnkJOxyPMrjV6K6IfiKsUVs++zvqX5baLibkvyMYp94WcPmmA8iZXU0KXQBCqNFdEueAuVgtqf4llj8hK3VNyr8Dxqm3ndG4fw9lTY8iBZNlEZ7XKFcddBOveWybLKYzLwkYp46jYEfvDsoYmUPAUID8+9bR5Bhcw4F9N/Ciezegrdro7ojTkIA5oeFgL3JGrqXgxBEAcmQkY1IMG1Q8wCv//AHqdxvdG3EGEjDftHddDycN36lEJ80FKMbo7oiTIKxUtx/4Hfa/0Wt0V8SZScB819GSYxgwvo5CQmdLTV+TYXzpqPrqeux6vgF9fUb3RpwFCZjv6msHarcfwIhLQgk8Tso7mAW3qC0xt2DprbslXLyHTGaeTEuNg6uKnwHTouNV0YShGDZm/Il33bvB6K6IcyMjmFM58kkfk7qBUgvGEvFgmfM1TC8TPaPu+ccC7F4n8y5eRkYwp7Ptg2PcXnMvQHI4ukGYsVTdXPckNn/QYXRfxLmTEcyZ1O47SnkzGgmWSSCEG90dP+IAY6/aVX031txZY3RnRP/IuP9sRGUQTfvFeCU198fMSg4Rh8mPTj8M1KGH1qqN61Zj/bs16JHyLkIIIb5D5mCEELqRgBFC6EYCRgihGwkYIYRuJGCEELqRgBFC6EYCRgihGwkYIYRuJGCEELqRgBFC6EYCRgihGwkYIYRuJGCEELqRgBFC6EYCRgihGwkYIYRuJGCEELqRgBFC6EYCRgihGwkYIYRuJGCEELqRgBFC6EYCRgihGwkYIYRuJGCEELqRgBFC6EYCRgihGwkYIYRuJGCEELqRgBFC6EYCRgihm/8/AAD//7yWrEpmw8R2AAAAAElFTkSuQmCC;" vertex="1" parent="cAXRqbwzUYpm79ER4dvK-26">
          <mxGeometry x="1" y="3.75" width="30" height="30" as="geometry" />
        </mxCell>
        <mxCell id="cAXRqbwzUYpm79ER4dvK-92" value="&lt;span style=&quot;color: rgb(0, 0, 0); font-family: Helvetica; font-size: 12px; font-style: normal; font-variant-ligatures: normal; font-variant-caps: normal; font-weight: 400; letter-spacing: normal; orphans: 2; text-align: center; text-indent: 0px; text-transform: none; widows: 2; word-spacing: 0px; -webkit-text-stroke-width: 0px; background-color: rgb(248, 249, 250); text-decoration-thickness: initial; text-decoration-style: initial; text-decoration-color: initial; float: none; display: inline !important;&quot;&gt;&amp;lt;&amp;lt;event_sink&amp;gt;&amp;gt;&lt;/span&gt;" style="text;whiteSpace=wrap;html=1;fontSize=12;fontFamily=Helvetica;" vertex="1" parent="cAXRqbwzUYpm79ER4dvK-26">
          <mxGeometry x="10" y="25" width="90" height="30" as="geometry" />
        </mxCell>
        <mxCell id="cAXRqbwzUYpm79ER4dvK-33" value="" style="endArrow=classic;html=1;rounded=0;fontFamily=Helvetica;fontSize=10;dashed=1;entryX=0.5;entryY=0;entryDx=0;entryDy=0;exitX=0.5;exitY=1;exitDx=0;exitDy=0;" edge="1" parent="1" source="cAXRqbwzUYpm79ER4dvK-17" target="cAXRqbwzUYpm79ER4dvK-5">
          <mxGeometry width="50" height="50" relative="1" as="geometry">
            <mxPoint x="207.99999999999977" y="377" as="sourcePoint" />
            <mxPoint x="294.9999999999998" y="408" as="targetPoint" />
          </mxGeometry>
        </mxCell>
        <mxCell id="cAXRqbwzUYpm79ER4dvK-36" value="" style="endArrow=classic;html=1;rounded=0;fontFamily=Helvetica;fontSize=10;dashed=1;entryX=0;entryY=0.5;entryDx=0;entryDy=0;exitX=0.5;exitY=1;exitDx=0;exitDy=0;" edge="1" parent="1" source="cAXRqbwzUYpm79ER4dvK-5" target="cAXRqbwzUYpm79ER4dvK-76">
          <mxGeometry width="50" height="50" relative="1" as="geometry">
            <mxPoint x="359.4369999999999" y="459" as="sourcePoint" />
            <mxPoint x="300.9999999999999" y="542.72" as="targetPoint" />
            <Array as="points">
              <mxPoint x="196" y="542" />
            </Array>
          </mxGeometry>
        </mxCell>
        <mxCell id="cAXRqbwzUYpm79ER4dvK-49" value="" style="endArrow=classic;html=1;rounded=0;fontFamily=Helvetica;fontSize=10;dashed=1;exitX=1;exitY=0.5;exitDx=0;exitDy=0;entryX=0.59;entryY=1.055;entryDx=0;entryDy=0;entryPerimeter=0;" edge="1" parent="1" source="cAXRqbwzUYpm79ER4dvK-27" target="cAXRqbwzUYpm79ER4dvK-46">
          <mxGeometry width="50" height="50" relative="1" as="geometry">
            <mxPoint x="200" y="571" as="sourcePoint" />
            <mxPoint x="640" y="630" as="targetPoint" />
            <Array as="points">
              <mxPoint x="613" y="548" />
            </Array>
          </mxGeometry>
        </mxCell>
        <mxCell id="cAXRqbwzUYpm79ER4dvK-50" value="" style="endArrow=classic;html=1;rounded=0;fontFamily=Helvetica;fontSize=10;dashed=1;entryX=0.5;entryY=1;entryDx=0;entryDy=0;exitX=0.636;exitY=-0.04;exitDx=0;exitDy=0;exitPerimeter=0;" edge="1" parent="1" source="cAXRqbwzUYpm79ER4dvK-48" target="cAXRqbwzUYpm79ER4dvK-45">
          <mxGeometry width="50" height="50" relative="1" as="geometry">
            <mxPoint x="634" y="480" as="sourcePoint" />
            <mxPoint x="819.9999999999998" y="485" as="targetPoint" />
          </mxGeometry>
        </mxCell>
        <mxCell id="cAXRqbwzUYpm79ER4dvK-58" value="" style="endArrow=classic;html=1;rounded=0;fontFamily=Helvetica;fontSize=10;dashed=1;exitX=0.008;exitY=0.39;exitDx=0;exitDy=0;exitPerimeter=0;entryX=1;entryY=0.5;entryDx=0;entryDy=0;" edge="1" parent="1" source="cAXRqbwzUYpm79ER4dvK-2" target="cAXRqbwzUYpm79ER4dvK-68">
          <mxGeometry width="50" height="50" relative="1" as="geometry">
            <mxPoint x="480" y="250" as="sourcePoint" />
            <mxPoint x="410" y="330" as="targetPoint" />
          </mxGeometry>
        </mxCell>
        <mxCell id="cAXRqbwzUYpm79ER4dvK-69" value="2) rest call to notify each &lt;br&gt;workflow timeout" style="edgeLabel;html=1;align=left;verticalAlign=middle;resizable=0;points=[];fontSize=12;fontFamily=Helvetica;" connectable="0" vertex="1" parent="cAXRqbwzUYpm79ER4dvK-58">
          <mxGeometry x="0.4936" relative="1" as="geometry">
            <mxPoint x="6" y="19" as="offset" />
          </mxGeometry>
        </mxCell>
        <mxCell id="cAXRqbwzUYpm79ER4dvK-81" value="" style="group" connectable="0" vertex="1" parent="1">
          <mxGeometry x="20" y="157" width="386" height="216" as="geometry" />
        </mxCell>
        <mxCell id="cAXRqbwzUYpm79ER4dvK-80" value="" style="rounded=0;whiteSpace=wrap;html=1;fontFamily=Helvetica;fontSize=12;strokeColor=default;strokeWidth=1;fillColor=none;" vertex="1" parent="cAXRqbwzUYpm79ER4dvK-81">
          <mxGeometry x="18" width="344" height="193" as="geometry" />
        </mxCell>
        <mxCell id="cAXRqbwzUYpm79ER4dvK-11" value="" style="rounded=0;whiteSpace=wrap;html=1;fontFamily=Helvetica;fontSize=12;" vertex="1" parent="cAXRqbwzUYpm79ER4dvK-81">
          <mxGeometry y="13" width="350" height="190" as="geometry" />
        </mxCell>
        <mxCell id="cAXRqbwzUYpm79ER4dvK-1" value="kogito-quarkus-serverless-workflow&lt;br&gt;+&lt;br&gt;&lt;span style=&quot;background-color: rgb(255, 255, 255); color: rgb(8, 8, 8);&quot;&gt;kogito-addons-quarkus-jobs-knative-eventing&lt;/span&gt;" style="rounded=1;whiteSpace=wrap;html=1;" vertex="1" parent="cAXRqbwzUYpm79ER4dvK-81">
          <mxGeometry x="49" y="43" width="250" height="60" as="geometry" />
        </mxCell>
        <mxCell id="cAXRqbwzUYpm79ER4dvK-6" value="&lt;span style=&quot;color: rgb(8, 8, 8); background-color: rgb(255, 255, 255);&quot;&gt;quarkus-reactive-messaging-http&lt;/span&gt;" style="shape=cylinder3;whiteSpace=wrap;html=1;boundedLbl=1;backgroundOutline=1;size=15;fontFamily=Helvetica;fontSize=12;direction=south;" vertex="1" parent="cAXRqbwzUYpm79ER4dvK-81">
          <mxGeometry x="50" y="140" width="230" height="20" as="geometry" />
        </mxCell>
        <mxCell id="cAXRqbwzUYpm79ER4dvK-14" value="&lt;pre style=&quot;background-color: rgb(255, 255, 255); color: rgb(8, 8, 8); font-family: &amp;quot;JetBrains Mono&amp;quot;, monospace;&quot;&gt;&lt;font style=&quot;font-size: 10px;&quot;&gt;&lt;span style=&quot;color: rgb(0, 51, 179);&quot;&gt;kind&lt;/span&gt;: Service&lt;/font&gt;&lt;/pre&gt;" style="text;html=1;align=center;verticalAlign=middle;resizable=0;points=[];autosize=1;strokeColor=none;fillColor=none;fontSize=12;fontFamily=Helvetica;" vertex="1" parent="cAXRqbwzUYpm79ER4dvK-81">
          <mxGeometry x="26" y="4" width="90" height="40" as="geometry" />
        </mxCell>
        <mxCell id="cAXRqbwzUYpm79ER4dvK-17" value="&lt;pre style=&quot;background-color: rgb(255, 255, 255); color: rgb(8, 8, 8); font-family: &amp;quot;JetBrains Mono&amp;quot;, monospace;&quot;&gt;&lt;span style=&quot;color: rgb(8, 48, 128);&quot;&gt;&lt;font style=&quot;font-size: 12px;&quot;&gt;{$K_SINK}&lt;/font&gt;&lt;/span&gt;&lt;/pre&gt;" style="text;html=1;strokeColor=default;fillColor=none;align=center;verticalAlign=middle;whiteSpace=wrap;rounded=0;fontFamily=Helvetica;fontSize=12;strokeWidth=1;dashed=1;" vertex="1" parent="cAXRqbwzUYpm79ER4dvK-81">
          <mxGeometry x="142" y="192" width="68" height="24" as="geometry" />
        </mxCell>
        <mxCell id="cAXRqbwzUYpm79ER4dvK-23" value="" style="endArrow=classic;html=1;rounded=0;fontFamily=Helvetica;fontSize=10;dashed=1;" edge="1" parent="cAXRqbwzUYpm79ER4dvK-81">
          <mxGeometry width="50" height="50" relative="1" as="geometry">
            <mxPoint x="170" y="107" as="sourcePoint" />
            <mxPoint x="170" y="137" as="targetPoint" />
          </mxGeometry>
        </mxCell>
        <mxCell id="cAXRqbwzUYpm79ER4dvK-24" value="" style="endArrow=classic;html=1;rounded=0;fontFamily=Helvetica;fontSize=10;dashed=1;" edge="1" parent="cAXRqbwzUYpm79ER4dvK-81">
          <mxGeometry width="50" height="50" relative="1" as="geometry">
            <mxPoint x="170" y="161" as="sourcePoint" />
            <mxPoint x="170" y="191" as="targetPoint" />
          </mxGeometry>
        </mxCell>
        <mxCell id="cAXRqbwzUYpm79ER4dvK-53" value="" style="shape=image;imageAspect=0;aspect=fixed;verticalLabelPosition=bottom;verticalAlign=top;fontFamily=Helvetica;fontSize=12;strokeColor=default;strokeWidth=1;fillColor=none;image=data:image/png,iVBORw0KGgoAAAANSUhEUgAAARgAAAEYCAYAAACHjumMAAArwklEQVR4nOzdd5xV1bk//s+zz/TeOzDMwDAMMwMydKSIoEQBY4wl0RuNLYnlJjbsJTf+/CaKxnjVmHgtMWpEDCGgIFURBUQ6DH16Z5jeT9nP73UOcq+FOmfvs/c553n78g+Vs/Zy5pzPWXvttZ6lQAghdCIBI4TQjQSMEEI3EjBCCN1IwAghdCMBI4TQjQSMEEI3EjBCCN1IwAghdCMBI4TQjQSMEEI3EjBCCN1IwAghdCMBI4TQjQSMEEI3EjBCCN1IwAghdCMBI4TQjQSMEEI3EjBCCN1IwAghdCMBI4TQjQSMEEI3EjBCCN1IwAghdCMBI4TQjQSMEEI3EjBCCN1IwAghdCMBI4TQjQSMEEI3EjBCCN1IwAghdCMBI4TQjQSMEEI3EjBCCN1IwAghdCMBI4TQjQSMEEI3EjBCCN1IwAghdCMBI4TQjQSMEEI3EjBCCN1IwAghdCMBI4TQTYDRHRA6GDI5nMbMm6BEDRkPIFsB9dotVILGhhW8bslBNH+sGt1FXze0cIwlOm1kcnTq4AKAFDXQenDvmg8qG0uL7Ub3zZPI6A4IDY2+IpTSCs9TUvPvBzALhNDv/Ik6Bt7lss0v8uFVFSjfxQb11Ccl5k3DwMzc8MGjpo2PTcm6CeAJIMpwfc4YjQxeVTcg+m8Nrz67s3R7TVtz/cc+//OXgPEFqUVEk64brcQNvBvEswGKO82fdr6p9zDjBW48uIyXvH0U2OfBzvqezMxpGDLjogGDR82aAzguBWgKCFEn/9PcAaZdDH67umrTss3v/LmutfawzwaNBIw3y/9VHOXkXEgJGZcTKzNASD6HV1vBKOe4kIW8a90/+PD6EpRsterYWx+SgexRQ4MG5k3PjhwwZFpSetZUgCYSkA5C4Fk1wWwFUa0K/qJs+9qPFFK3V26tLju0+68+9TuQgPFGhVdF0PhrLiZS7yHQWPfn0rgBwFq1ueFZXv/SdjTKiOZUci+8IfSCS6+baQ+I+BkI05x3Rho0q4JxDIS1dmvAW3vWvrp56/K/tGrQruEkYLxJ2u2B9MMJM8keOh+gMQREaNg6M7iKQX+l8J5F6rIFR3Bkp0wGO8cr2XcpY6+bmpWQkDIXjB+BaCSASB0u5bxV6gSjBIw3K6t2Lqk9tLFmz9K3vHZiWALG7KIyCPEZUTTlutlKcMrPGDifiE5xf68JB4PrScW/HWVb3kb557tRe6ALPc06XtJcojLykJCYFhw/MH9oZv7YmdEp2VMIGMfgVAJZPNEHZtiJXJPy+7qaGz462HZkTcunH1U0lRd3tzc3eKILmpCAMbNZtyUomRf+BxGuAaMIBI+8ub+hF4yNbLMsUK2r1+Ddl2wevr5HTZs2DYFZMwcMLpp1CRiXOP8VgGij+/W1dgA7QXi7qXj1R2s+eLOuvbHE9JPDEjBmk5gIpM+MoPRbx1N603wCTQcQZFh/nG9h4mMgel8tbX2BD71WioqNPhU05839dXBSxvC8jLzCixUoVwPIBRBidL9OoYeZD8PC72zvKvnAvmlD9e6Dn1uxz5zzZhIwZhGVAWRPSKfcmZdRZOINAEYQEGZ0t76FUcvEG7mx6g3et+4zHFzWaXSX+mvE5B9GJueOGTVk5IxJDLoYcI4QKdJ7PhOsMtMxAhcrjp4V5fu/XH34q3WHShv3d6O62ujO/S8v+WH6sMxM0Kj/zKbEQbcCuJoIGYDHb4XOVR8zb+YAPIWwhk387Esd3rCWxjVZe+nIwQlDcucxcC0RRoAR4gOfAhVAF8CHwfxW1f6EJZ2H/lLz+dpnDZ8c9v4frbcaNDGcsm8cQ0Pi54H5ciIM8qq9Ya5bJ3QAOKB2NL+F/asXc2tVA8o3OYzu2jdlFM4ISBmcP2zs9LkzbQGR5xMwHow0A+azPMXOQB0xinvajy4vbju8pnXt8jLb0YO91QaMbCRgPG3CtSE09qIipTf8foBmn/XCLHNjgCvAymK1/cCLvHBlGbDe6D6hYN5doeNnXX0/Mf4ThFij+2MEBtqJeemOFa/esXXF622evr6vprj5JBcqNOHaQkvuRQvIETwfhNEgzzzy9AACKAaEcRScMJ3GjrGCL6xG77Zu9BozTRMVlYEf3PzUFSD1KRBiDOmECRAQDNCIkOjYPfs+++deA64vdDV4bBCNuGwqpeb+nFwbEEmLlZ/mxrADXMKM97nmq3e5ZM1hHNrm0VunCZc/m1kwY/JyAMM9eV2zYvCmMFv93BfuvrzJk9eVgNHLuPnhVDh+DhFuAjCZyGRPhDyCGSDnG3qN2hbxR14/fyvqd3lkdfBNL3zxXwopjwAk7/HjHAw89vHzv/p9dckOj63Q9pUhunmkjFQw47aRluzRT0HBfUQYTr4xz9IPrg+3M1jzEdw3i3IvCOHIgSUo36jrfdPoS26JTR8yegGIkvS8jpdRwMjKK5q4+qtV7zZ66qISMFop+lEsXXDP5ZaCi59WIpIeAmgckfP+V8AVNRRDwAUUn/5DZfTVCTRslJX7oo6i+YCmt05zf3pHSM70Gx4D0RyveirnAUQc7bCEZYQF0fLKg9v7PHJNT1zEpxU9lqCMLvgJEf0HmEaCDFx16y1cC9y5k5n/zbVxT3Pdmwex4++avOF/+cKmHzmI3gBOVY/F79mb68qu/edTP3nfExeTEUx/jb48nOY+NV1JS/4jgX4BogE+vLZCW+T6Og0iQiFF9s1T0odnIX1yCZorjqG7/6P3vFk3RqYPG/MSEYZq2l/fooRExgaH2CMWV5Vu1n3iXUYw5yLmYgUTs9Mo/rx5FBp3Awi5pM+2fX+jurYhgJZzWcsSPrrkC+xe1n4uDSQmJuLCO167OTIu6SVD9255AWbuVBBw67IF17xXV6nvhkn5xj1bF87PoMnzHlJisv6gBIZeS4SM42sMhAYIhCgiFFFsyJVKxqgJGHP1UdipGg3FZ/Utm3v+T2IyR011hku6/t31bkQUxKQWdrc2L6o9skPXCXcJmDOZeXu0MmP+1Up8xotEdBkBCTLy05XzPTkY4LlKRv54ZdwPq7k6tQadW075TZuaU0RT/uPh6xXQ9fKePjsExCXlTT60o3P/dlRU6HYd+WWcTFKuhXLvGKqcf9k1lDryGSjKLQRKl6cSHkMECgEwjFXLPGVY5hhkTQpDgFKLDms3bP+34j0qKgMzrn9iUlhk7AKAEgzttVchIoctfVhUytK9X+i3K14C5psypwFTbh2ojLn6YSU16UUKjfkxETlvheT8KIMQURiI8ig0+jIlY/RFVDDbxoH5paj5xPXUKX34mPC8qT9+DUSjje6rtyGi5MDoZLW2dNsnnU31uszFyFDfZRowoyiFsifeqICuAtEIOZTOtHrAWKHWxz3Ddc/vunzm1VMS0rOWQubD+olr7IF9l7/xwm1f6VG0yr8DJmlIEPLnnkdDzr+UmJ2jlWFyG+QFvi4VEUDYetnQpJjo4MDzjO6SF3P+NNcUr/7g6o1LF7Ro3bh/BkzaiEC6/KlCstruAugyIk2r8wsPGRobhklp0bAo8p3gJjU1LvSm/7p25JtaN+w/AROVQcgbHUXJE2cryTk/Y/A4Ykrwo5+AT4kPCcT0gXGIDpY7WS0w85bynWvmrHn9UU33KfnHJO/suxKUyb+4RUka9TSFx98BwjAChUm4eKcAhTApPQaJoUGyV1ojRJQSm5LVrQb1fVF/cLdmu619+9eTfVMIXTJlotIX+cDXR1DIRKAPSA0PxqzMeFfQCE1V1h+JmrfsT3m7tGrQ90YwUYlAwZw0mnzrbCVv9B/IEfwAHS86JGNpH2AhYFxqNGJD/LQChr6iI2L70tOTEpYf2vW5JptPfecrIDMTVHRNPOLGXEeEu75eGCeh4mOyY8IwOT0aATKxqxe7agm94bXbRr6jRWO+8QGceFm4Unjtj8HK9QBNJPMemiXcEKgQhseHeXW4uOaM+OuKFeYUQI7un6Zkn7ewvmSH28eeeO8IJiHHQkUXZVPG9IvJQtcBGCW7aH1bblwYJqTFQDFoZndAYhgGJYaDvnP9zh4bDlS3o8f67X2ZESEByE6NQHZKJBKigxEdFohAiwK7ymjvtqG2qRuHajpQ1tCJPrvHqlieEQPdxMov1//1tncO7d3qVse8L2Ay8hSMm5euxBfdSaDrQJQsi+N8X4hFweysBMQZOPdy6Zh0zB2XDuU7k8sOlbFsSzWWb611/XNokAVT85MwcVgikmKCEWA59dvTaldxuLYDK7bV4khtO1STDG0YOKwG9fzo9V9c4NZJBN41yTtjfqoy/rrblbD0/0dEl4EoyitDUpyznLgwZEeHfW/04NE+pEVhWHrU9/rgHFE5/9588BjCgi24cspAzByViujwwO+F0XdZFEJSdAhGDIpBY1sv6lt6df6/ODsExJE9wNJRvWdF89Gafsee+edgYi5WMC4njwZOu4IUuobAQ70uGIVbksOCkJ8QccYPq5GSYkIwYVgCJucluW6JznWayHn7dPXUTPTaHDhQ1W6GORoiop9OuOKxhYf3zPmkv42Y94OamAjMuH84TZh9nxKd+Yyi0NzjtVhIbof8SKBCmJwei7jQIMOHqqcawTgFB1lQMCgGidEh/V7857y1ykqOxKHaDrT32NzvsPuCA0JDo7ptjn8dK93Zr/Kapv2w0vSHp1vSRixVQHcTUarR/RHGSAkPRnK48eFyJs7+nW6u5WwlxYZgekGyaVYoMzBj/I+vL+rv6805gim6Ks2SNfFdgHLNHIJCXwEKYXxqNKKDzbGo7nQjmO+y2VU0tvVhf3Ub9la0orS+Ex09doSHBCA48NQfO2fLcZFB2FHSjK4+jx6GefL+EIUojoDMvILx63Z/cW51kmHKOZjMTFKKrr4DQJ7RXRHGyooOdY1gvE1dcw+WbqnG/qo2dH8jJOjrR91XTBqI4QOiT/n6yNBAZKVE4GibR44uOiMimh6aUXgPgLvO9bXmGx3EjosAY5Ip+yY8RqHjq3YtJp7Y/S4GUN3Ujb+tLcW2I83fCpcT/72ysRuLN1Whvdt62rZS40x10rCFCZf154Wm+xDT0FFZRMg1uh/CWARCsMV7wsWptqkbr648jNKG05e4rWzswr7KttP+mcSoYNPMw+D46Ktfx/OYL2Bicpyjlzij+yGMpYLR2uf2SnWP6uq1o63rzE9/mIGKxq7T/pnwkADDViyfQnV/XmSugInKc44jpwP+eli8OMH5IWzqtYHZBCtCdNDZe/rwDAlUTBUwzNyvFb3mCpjEqAgQTTC6G8IcWnrtcPhowFhtp9/i43pSZaJ8IaKd/XmhuQImYXA6AbFGd0OYQ6fVDhPtAfRbDO5RCKX9ea2pAoYi0kaAEWp0P4Q5dNtU9ErCmAA1NceFHuzPK00VMMieWggy4docYQirqqLbbvxiM39HQEXp2y/W9ee1JgqYaVBgH2p0L4S5dNm860mST2Ku6G3p6ejPS80TMKPTQhnIN7obwlzavexRtS9i0NbiTW/36xdhmoAhnJ9O4EFG90OYS5sJ9uP4OUdNaszW/r7YNAGDKeF5AJlqfbQwXrfdDtUsZd78EaO94fUF9f19uWkChrojZsgCO/Fd3TYVfao8STIKEzeA1aP9fb05Amb0NRFEON/obgjz6XOo6LLJbZJRiKlSpaCe/r7eFAFDgwcNBijN6H4I83GojE6rBIxhmKtqKj7rd3k9UwQM4sePg6zgFSfhvDlq7rVB9dEtA6an0OHGffv6/3JNO9MfQ6coxDwVcliaOIWmHhscki8ex4Da2HjwiDttGB8wDlsIEQqN7oYwr06bHXaZ6PU4Aqzt1dW17rRhfMBETUxjRpbR3RDm1Wl1uJ4mCU/jdmtLS7/qwJxgfMDEUy5R/6plCf9gUxmtfaY4xsPPUFVN2bYmd1owPGAoNW+UnM4ozqSx2+qzxafMisEH6iv3dbvThuEBo4TFnmd0H4T5HS8+ZXQv/Aup2NzT3OBWG8YGzOgfhTAw2NA+CK/QZXPIRK8nMXocZHHrCRKMPheJ4rIGEHiA3CGJM+m1O1zFp0ICjDsrcHdFi+u4kVMdvNbaZUXfWU5GVzZ24+/rSk/ZVkePDQ6HgYFKaAizhJa524yxxZ0yJ4wBKMrQPgivYFUZnTYHYkKM265W1djt+lsLTR192LCvUZO29MDg0k0fPu/e/ZHRt0gKURHAQUb2QXiPbtmT5DHEKAMFup2mxgVM9vVBDMyQ2yNxttqk+JSHsIMZO7d99Mrpj588C4YFDEWPGw5CplHXF96n3WqXR9UeQdaQ4IBdWrRk3AhmTEohAVJgSpy1LpsDEi8e0bXx36+4tYL3BGMmedOyiJhngMjvCkxFhwZg5IAYBCruZfvumlY0drg9gv0ehYDCjGjEhwdr2m5zVx92VrW5FRCu4lN2FaGBxj1J8gcMPhoYHNrvKnbfZEzABKdEkWuC1/iFfp5WkB6Nxb+aiJgw97L1yle+xL921GjWrxOmDE3AOzePQ0q0dpvbHSrjocV7XQHjjj6HA90SMJ5Q8eWSF/tdZOqbjPmA556XACDdkGuLU4oNC8Sjc4cjWcNwcdpY0oS3Nle4fXujMtBulT1JumOq0KopQwKG+kKGAZD1LyZz69TBmDwkXrPnes5A+fzwMdz+zg5NbufYVRtGJnr1phDcXsH7v21p1dA5yb9ylOGL/MS3FGZE484ZQ9yeG/qm0sZO3PLWduyr69eZXSfV3Gvz2QPxTYI7UoMPadWYMQHTV5ljyHXFScU4b40uzUVSlLbzLn9ZX4YjRzs1axOutTA2WGXXo55ajy3/yItvkQZNspCqFHj8uuKkggIUPD5nOC4tTHU9QdKCXWW8/WUlXvu8TPPHyh1WB3Y3dsBq5D4dX3T8F1XBpD5cvvXj/Vo16/HbFIpPH0hEAzx9XXFylxSk4OYpWa6g0YLKwOLtNbjn/d1o69Fn5e3+pi5XlbsxqdGIDgrAKfYLinPC22xBfT9f+ew9e+sObdPse8HzATPmJ2MBlgleE0iJDsGDs4chNEi7gezGkmOYv2gPWrv1e9rjfPdXdvSitc+OcalRGBAZcspdyeJMuJcZK8t3rH1wzZfv7seh/p8gcDKeDZj0O4ngOkFA21Vc4pyFBVnwX/PycN4g7U6Lae2x4cHFe1HdqskSijNqt9rxWVULxqXGICsmFAFa3eP5j3ZS8WRn1eqX1rzxmDbbxL/DswGTcjSMwYUkGxwNd/WYDPy4KF2zeZc+u4oX1h7B1rIWbRo8S1aVsaWuFV02O/ITIhFokffWWepjh/p0cWfjnzYueEz7JeFf82jAEOdlEjDck9cU3zdqQDSeuCwPUaHa7NSwOVT8cfUhPLfqsKtAt6c5Q2bn0Q7XXqWi5CiEBFrkK+y0uMISzI8t/5/HF1ZuWa1buMDjI5iReZPBFCe/feMEBSh4+NLhSI8J1azNj3bX46nlB9Ft4BGvzlg71NKNNqsdY1OikBgaJPMy38fMXNpWW3bTV+89tL6yvFz3C3r0MTUFYCzI//YfmcnM4Um4cHiiZu219djw/JrDhobLNzV0WbGhqhXHemRLwbe5RpY72c43rXnz0Q3lHggXeDRgsidFEGicx64nvmdoUgSevbIQURqVnWzs6HM9jt5Y4tbROZpzjmI+rWpGWWu3a02OYIfK+HtWRPO8Rc/dvL6lvsRji4g8d4sUk5YBooEeu574FoUI988ehqHJEZq012tzuHZIv725Emb8DHdYHfisuhU5sVaclxxpaLFwY3EHg/66bekrv31tzZva7dk4Sx4LGIoZOBhSYMowYzNjMW9Uqmbtrdp3FP/YUmXqEYKDGQeau2BRyDX5a/G7x9jcrsLy0LEjB97YueZNXR5Dn4nnRjBDpxRCVaXAtwHy06Pwp2tGIi5cmx//vrp2PLpkr+sYEbNzxt++pk7XE6aCxAjEhwT6xeQvA+UdxxrvW7lhw79a1z1j2ASZ50YwDkehrOn2vMiQADx3VSGKMrVZUNfUacUd7+xEca3HR9v95hxklbX14Gi3FeenxyAtMsR3H2QyVIDXdNvVB1b99Tc7WutKDe2OhwLmcYCQ65lriW+aU5jiqlKnxQeq2+pwFY76wmSTumfLOYrZVNuGKRmEpDCffIzNTLy24cjOG9t3vlfTYnC4wGMBU7Q/FVyQ6btfG+aUGR+G+y4ehkCL+w8LnaOA1z8vx7MrD7tKMXirdqsdn1Q2Y3RyFIbEhrkmv30Cc4eq4L3S3at+98lfH9e+lmo/eSRgaPxPx5Pdoc3jC3FWIoID8Psr8lGQEa1Je5tLm/D/VhxAQ3ufJu0ZqduuukYyzhHNiIQIBGkQwEZioB5QfvPRzvcX1//Ps6ZaAKR/wITHQrHZp4NIKth5SHCAgsfnDsecwlRNBo0H6zvwi7e2+0S4nOBgxq7GDte8zJiUKMSFBnnjAFsFsLe1teW+1S/evrqtodR0Q0v9ozt5WDATCvzxBAGjjBoQg2vHD3TtyXGX1aHitc/LcaDBeyZ1z5bzTq+msw87jnagw/sOdXMA/EVTbNj8HYv/vNaM4QJPjGAo9pIkYozwxq8HbxQaqOCxucORFOV+RQznB3Dhliq88mkpvOuzd24q23tdx9KOSY7CwCivqC3j/NW8X1G2987Vd95i6hl3/UcVsW1DQBSj+3WEq1TBr2cOxbScBLfbcqiMhV9Vueq7+MOh886A2VDTgr3HOk29eJAZbcy8oPjgJ/+5+jlzhws8MgfDeflSYMozLj8vHffPztHk1uir8mb85r1daOrSdTe/qVgdjG317ei0OTAqMdKMB7x1sqo+uPzlO/9Sd2ib+Vc5euQWaVC0rH/xgKTIYNx70VBEarCRsdfmwPNrjvhVuJzg/NQebO5Cl9WBcanRCA9yv7YMAQ4i6ncgMKAS0ACmZ3atXPi6t4QLdA+YmDSCBaN0vYZwuWVKJkYOcH+1bo/VgT98fAjLdtVp0i9v5LxDquzodZ3BFBUUAHJzIiE8QPlnam/jG9RR0797L1ZtVpVLi1e+XtlcX+Y14QK9A4ayzk8hokw9ryGA/PRI/HJ6FtxdzmF3qHhuzWE8s/KgqwSmv3PeKnVqMP/EQNz+bcvXY9tCzxQrNhF9J3knX5IFQJuVXuKkwoIs+M3MHCRHuV+hbltFK15cd0TCRXM8hMDaVfnyIvoFTFQGqC9yCgBtT1IX/0sh4PYLsl0FvN2tRHC0vRcP/HOvJmdIi28jIIWKrioyuh9G0C9gsqaG4PgRJaabivcVIwdE496LchAa5N6PuKXLins/2IMvSo5p1jfxLSFgTMXAiX632FS3/2FSbLFgytOrfQH8ZNwAxEe4X+PljS/K8c9tNaasTOcbyPlXASzsd6N5/RI19pJRREjSrX0/NzE7DteN16YCaXZShKtujNAPA8OROcnv5mH0G8FkRc4AoN3ZGOJb7rggG0lR2nwhXlKQgtumZ/thSUnPIUIKKfl+90RVn4AZNN5CJCcI6Emrw+rh2mKg4Japg5GVEK5Zm+J7FBqWOszoTniaLgFDEYkpzpG3Hm0LfaRGh+D2GVlyvrOe7F1+t+hUnxFMWk42wPG6tC10c+24gRifFWd0N3wWgfIx6RptDqXyEvqMYOJzCwDyuxlzbxcbHoQ/XJGPQXFyuoweGDyYomamGN0PT9InYCLj/W4o6CvGZ8XjoUuHuariCW0RKB4Do/ON7ocn6fMuIvjdZJavIABXFmW4quIJrXGIQkoBfnyb30x0aR8whT+NBnOO5u0Kj4kKDcSvZw6RUYzmiJgxFaVNfnMPqvk7iDKGFEkFO+83pzD1eNFwv/mu9QxijKTxP9DuDF+T0yFgRhYBLMtCDWK1q5qUfAwLsuDui4YiLVrm6jVFSIUa5jdLOLQNmFFXBBN4imxwNEZ7jw2PLNmLf23X5tytsZlxeGTOcIQEyq2ShiwKKxcizD92DWj6zqHkgjQwFUCOEPC4XpsDjyzZhz+tLXGVu+zodf/8LYWAn00chBm5sqVMWzSRUob4xUGE2n41DRiWC4L7Je3FOVu9rwFvbapwnQawq7oVq/cf1WR3dHCAgmsnDJQVvhpiYDAyJ/rFPKW2IxgKnOa8fdeyTXFmu6tb8cDivejss7v+udem4ol/78OBunZN2p9TkILLRqXJuFQjBCQgPN4v5mG0C5jYDOd33IVygqNn7a9tx81/246D9Z3f+vf76jrw5EcHXLdO7goPDsDvfpiHjDjZHK+RYKTn+MWCO+3CICYjjgnaFCgRZ6W9x+YaueyobD3pf1+xtx67q9s0udbQ5EjMG5nqOtxNuE9xKLnANKO7oTvNAoZyxuUSS4FvT7E5VDy14gA+Lm7AqaZaOnrteHFdCWwaFPF2xspt07Mxc7hM+GqDCzApxueftmo3gokclg+Q+/UbxVl5f2s1Xv6k1DWpezr/3lmLzWXNmlwzJzkSd80a6jqMTLiLsqk3yOcfiGgWMEps8jBX6VHhEct21aHbeub5lS6rA8+tOoRmDU5pJAImZcdjVl6y2235PUIcJv/U5yvcaRMwg8daQOQXk1Zm4TiHu56VxUfx6mdlmqzwDQm04LeX5UlJB/eFUJ86BRG+/bRak4Ch2MGxYB6uRVtCe1aHimdXH8KRhk5N2huRFoWbp/j8l6/eFIAnIzHXp/diaHWLlA8i9w9GFrpp7rLhpU9LYHNoczbJDZMyMTJD5vTdQYwRSJkVZXQ/9KRNwBw/nkQ2OJrcwq+qUFyrzWPr1JgQPHn5CCRocC6Tv2KiCArr9OnFRdrcIoGqAbi/+UXoyjmK+e91JeizaXP29IzcJNfhb1LSoX+I0cKBPdrct5qUJgGjRvAuZt6jRVtCXx9sq8b6Q42atBUcoGD+xTkYkerTo3y9OBi8BDvXnXyVpI/Q5hZp/ftd3Br5HBh9mrQndNPV58DLn5a66sZoITUmFHdeOEQObTtHzi9krt37POoPub+Xw8Q0WwfDZS8tA+FfYPj0D8wXOEcw20+xvaA/Li1IQW6yX1Qf0AajlwMsz/FHn2gzlDQx7Vbybl3a66ha92sG3nYO/zRrV2iuo9eOR5YUo7qlR5P2UqJD8P/9KB9JkcGatOfLGNzDzM/wqqcXAeuN7o7utN35vOKlo2rxG7cD+ELTdoXmnKOYF9Ye0WTxndMP8lNw96whUjfmdBg2MBaoxc1PoWRTr9Hd8QTtSyts/LBLbYte4Lzd17xtoRl2DjU3V6LimDa/JotC+NmkTGQnyfnWp7GF63a9gE23+kW4QK/aLfzhPStUOz8KsDYVj4Qujnb04ZX1pee07eB0nLdIv5k5VEYxJ8Nc5Ti6/z7+8HfHjO6KJ+lTHKprl52XP/7fKtMTAPtNWnujd76swoF67b4HrizKwJShPr9J+BxxIxN+jc/+stnonniaftXn6ovtvOe1Vxj4VLdrCLedGMX0afTYOiYsEPdclIPYML864/3UGH0q8zPq0nXL0FKlzYSXF9G3vOXm5T1cuWk+Mw7oeh3hlnc2V2LR1mpNioQ7XTg80RUyQX5f/Y6ZwX/jLYtfQv3LdqN7YwTd6+fyxyv2sEO9CcxNel9L9E97rx1Pfrgfta3aPLYOtCi4fXo2ijLjNGnPWzGwXa3+5LfY9Y9uo/tiFA8U6N4HXvfiRia8DkCj6UShtSONXVi+p16z9iJDA3DDpIHw2/le5jLmgPuweXGt0V0xkmdOAChfD/XAwmcY+FhCxrxe3VCG+jbt5uR/OCod04cl+l2ZQwbXqy0xv+JFd65HS53R3TGU544Y+WxRo3rswC0Af3p89CjMZmdVq2vCV6vFd/ERQfjDFQUY4F/HnTig8O956z2r0Frl91+mnj3DaPE7tY4K9WYGb/fodcVZYQZe/rQEq05zUsG5GjkwBk/My3Mdpu8H+hh4XV216DWU75IvUc8fkrYPWHlVGTc3PsCAT29T91bNXTb8dtk+NHVoszHe+Qa7ZuwAzMrz8eNO2Hnrz+9wbel8lL7v0zVezoUhpzDy7lc/Zah/BuB+qXuhuR2VbVh3QLuNvkEBiusQfd8+tI33OWr3P84f3idfnN9gzDGvh7bbefvfn2TwHxksNWRMRmV23Sq19WhXpNA5grmyKMM3q98xjqmdTQ/gw39UG90VszGuju7Wpd1qwIAnlMIZQwBcYVg/PMyhMrqtdre/ze2qvvOHm0ub8dbGCtwwOVOzR833/2AYNhw+hiqNykSYA3cy8CCveHIFUGV0Z0zH8O8TuuqF8Up0+ocg+MUGlqjQANexHwGKe4PH/XXtONap7x1mUmQwhiZHQNFo2MHMrrOy23t9ZlGrnZmfV5t2PY7Fv/PbxXSnY3jAIDVToR8suFoJoGcApBvdHSHOFjMvVre993Ns/0CqBpyC8c8OO1sZLVv2Ut6cMnKolwCQsmjCC/Bh9Ujrjdj0e/9eSXcGxgeMU2srOLCzhBJH5RCh0BQjKyFOhdHJxHfxmgc2oK/D6N6YmjkCxqnqkMohBduUpMTJANIkZIRJOZj5WfWDV19G606/X6l7JuYJGKeqT9o5dcTnFJk4gUAyHyPMhgEsVbctmo+ypb70KEw3xqyDOZ29bxxgBN8PWekrzIax11Gb8DC2L9Tm/F0/YK4RDI7Px6BkfQUNGu+goNCpAMmZ18J4zIfUtvrrsPbuveiTh0Zny3wB49TbAQ6mnUrqyCyARphypCX8B6NPVekefvuGVRIu58a8H9ytS7sdVcUPfn3GkuxMFUZxALyQd7y/xOiOeCNzjmBOaCtu58EjNioBMc5bpRSjuyP8jp2Z31UrG+bj86dbjO6MNzJ3wHR3A7tWNWHwuAoKjZ0ni/CERzE+56bin+PD+/zqLCMtmTtgTmg5XE55VzST2jcdREFGd0f4AeYKR2nVLVj+QInRXfFm3hEwna0qV+/eTjnTBhBRkSzCE7pi1DHxbbzm0U/RKyt13eEdAePU2cCcmHRQiRl8KQD/Pg9D6Ie5jxU8rC57/D0cK5WVum7ynoBxqi9vxqDC3QiJnkDwj/IOwqNUJn5d3fr+73F4vVRb1IBX3mrQHW9NVKxhSwDy8UKvwpOYeYu6dc887Phtg9F98RXeNYI5oexgDRVMiiNHwCSQd4akMBlGKSt0B9Y9Xgyb1I7SincGTHcjOCRsFyXm5hJoqKkXDArTY3AdB/beyAvvX4+OWlnUqSHvDBinyt3dwOyVSAsZTUC2t97uCcPZQMpD/PH976O+QsJFY179zc/bbmxRg+IfgFRbFv3DzPyJum3PQpSXG90Xn+S9I5gTDqypR+aEJgoKvRhAoNHdEV5DBfhjtf3Ir7D6ESl7qRPvD5i+dqCvah8NnhJMoHGGHsUivAYzdqvVB6/Fkocqje6LL/P+gHFqqld5cNEOJTRuKIA8mY8Rp8WwsYMfxqJffmZ0V3ydbwSM0741vZyUtIGiM8cQaLDR3RHmxEAfCM/w2uf+jNYqnzmgyay8epL3e1a82MBHK+8DoN3BysJ3uJ4R8UfqnmNPomyj1NT1AN8ZwZxQf6AeeRc5iOh8ALLzWvwfQgMfq7gDq++sMLor/sL3Aqa3DVDtOyg9r5ugnC9PlsRxXKNaon7Nqx9d6zrsT3iE7wWMU/1+O9cd/pKGTs0iolEy6ev3Othh/xUvnb8Y9SWyQ9qDfDNgnDoamCPTtivxg8aCMFBCxm/ZVYv1aV705l9w7EsJFw/z3YBxqtjczim5XyhRyT8ASGrI+B8V4GXqtg8eQKkclGYE3w4YJ1tFE7LmgEid5XNPzcRpMWOnWrfvl/j0pVqj++KvfD9gWluB5opiyp6USOB8OcjNTzAfQGvd9bzuhWI5y8g4vh8wTq1VNk4fsV6JSEoHaKTMx/g8q6Ml+nb+4CfrJFyM5T+3DEsf73CUH3wEjP1Gd0XoygHgbVT+bbnRHRH+FDBOqx6uU3va5wOQc258EcPBzH9zVDQ8iC1vy6SuCfjHLdI31e08TLkXtxAwHSQHufmYT7n8wI1YdU+z0R0Rx/lfwHS3gR28n9LzY4gw1u9GcT6KgU5uibyLP3xzLyA7AczC/wLGqWGfnR2OLygjP5dAeUZ3R7itBYryCK++dyE6t8k2ABPxz4Bxathv48Sk7Ur04IvASJDnSl6K0cus3KcuXf0q6lc4jO6O+Db/vj34cnkJOxyPMrjV6K6IfiKsUVs++zvqX5baLibkvyMYp94WcPmmA8iZXU0KXQBCqNFdEueAuVgtqf4llj8hK3VNyr8Dxqm3ndG4fw9lTY8iBZNlEZ7XKFcddBOveWybLKYzLwkYp46jYEfvDsoYmUPAUID8+9bR5Bhcw4F9N/Ciezegrdro7ojTkIA5oeFgL3JGrqXgxBEAcmQkY1IMG1Q8wCv//AHqdxvdG3EGEjDftHddDycN36lEJ80FKMbo7oiTIKxUtx/4Hfa/0Wt0V8SZScB819GSYxgwvo5CQmdLTV+TYXzpqPrqeux6vgF9fUb3RpwFCZjv6msHarcfwIhLQgk8Tso7mAW3qC0xt2DprbslXLyHTGaeTEuNg6uKnwHTouNV0YShGDZm/Il33bvB6K6IcyMjmFM58kkfk7qBUgvGEvFgmfM1TC8TPaPu+ccC7F4n8y5eRkYwp7Ptg2PcXnMvQHI4ukGYsVTdXPckNn/QYXRfxLmTEcyZ1O47SnkzGgmWSSCEG90dP+IAY6/aVX031txZY3RnRP/IuP9sRGUQTfvFeCU198fMSg4Rh8mPTj8M1KGH1qqN61Zj/bs16JHyLkIIIb5D5mCEELqRgBFC6EYCRgihGwkYIYRuJGCEELqRgBFC6EYCRgihGwkYIYRuJGCEELqRgBFC6EYCRgihGwkYIYRuJGCEELqRgBFC6EYCRgihGwkYIYRuJGCEELqRgBFC6EYCRgihGwkYIYRuJGCEELqRgBFC6EYCRgihGwkYIYRuJGCEELqRgBFC6EYCRgihGwkYIYRuJGCEELqRgBFC6EYCRgihm/8/AAD//7yWrEpmw8R2AAAAAElFTkSuQmCC;" vertex="1" parent="cAXRqbwzUYpm79ER4dvK-81">
          <mxGeometry y="8" width="30" height="30" as="geometry" />
        </mxCell>
        <mxCell id="cAXRqbwzUYpm79ER4dvK-68" value="&lt;pre style=&quot;background-color: rgb(255, 255, 255); font-family: &amp;quot;JetBrains Mono&amp;quot;, monospace;&quot;&gt;&lt;font color=&quot;#083080&quot;&gt;Endpoint&lt;/font&gt;&lt;/pre&gt;" style="text;html=1;strokeColor=default;fillColor=none;align=center;verticalAlign=middle;whiteSpace=wrap;rounded=0;fontFamily=Helvetica;fontSize=12;strokeWidth=1;dashed=1;" vertex="1" parent="cAXRqbwzUYpm79ER4dvK-81">
          <mxGeometry x="330" y="65" width="56" height="24" as="geometry" />
        </mxCell>
        <mxCell id="cAXRqbwzUYpm79ER4dvK-88" value="&amp;lt;&amp;lt;event_producer&amp;gt;&amp;gt;" style="text;html=1;strokeColor=none;fillColor=none;align=center;verticalAlign=middle;whiteSpace=wrap;rounded=0;fontFamily=Helvetica;fontSize=12;" vertex="1" parent="cAXRqbwzUYpm79ER4dvK-81">
          <mxGeometry x="30" y="173" width="60" height="30" as="geometry" />
        </mxCell>
        <mxCell id="cAXRqbwzUYpm79ER4dvK-82" value="" style="group" connectable="0" vertex="1" parent="1">
          <mxGeometry x="543" y="153" width="282" height="222" as="geometry" />
        </mxCell>
        <mxCell id="cAXRqbwzUYpm79ER4dvK-37" value="" style="rounded=0;whiteSpace=wrap;html=1;fontFamily=Helvetica;fontSize=11;strokeColor=default;strokeWidth=1;fillColor=none;" vertex="1" parent="cAXRqbwzUYpm79ER4dvK-82">
          <mxGeometry y="8" width="282" height="199" as="geometry" />
        </mxCell>
        <mxCell id="cAXRqbwzUYpm79ER4dvK-2" value="Jobs Service" style="rounded=1;whiteSpace=wrap;html=1;" vertex="1" parent="cAXRqbwzUYpm79ER4dvK-82">
          <mxGeometry x="90" y="57" width="120" height="60" as="geometry" />
        </mxCell>
        <mxCell id="cAXRqbwzUYpm79ER4dvK-38" value="" style="sketch=0;aspect=fixed;html=1;points=[];align=center;image;fontSize=12;image=img/lib/mscae/Kubernetes.svg;fontFamily=Helvetica;" vertex="1" parent="cAXRqbwzUYpm79ER4dvK-82">
          <mxGeometry x="4" y="11" width="20.84" height="20" as="geometry" />
        </mxCell>
        <mxCell id="cAXRqbwzUYpm79ER4dvK-39" value="&lt;pre style=&quot;background-color: rgb(255, 255, 255); color: rgb(8, 8, 8); font-family: &amp;quot;JetBrains Mono&amp;quot;, monospace;&quot;&gt;&lt;br&gt;&lt;/pre&gt;" style="text;html=1;align=center;verticalAlign=middle;resizable=0;points=[];autosize=1;strokeColor=none;fillColor=none;fontSize=12;fontFamily=Helvetica;" vertex="1" parent="cAXRqbwzUYpm79ER4dvK-82">
          <mxGeometry x="62" y="19" width="20" height="50" as="geometry" />
        </mxCell>
        <mxCell id="cAXRqbwzUYpm79ER4dvK-44" value="&lt;span style=&quot;color: rgb(8, 8, 8); background-color: rgb(255, 255, 255);&quot;&gt;quarkus-reactive-messaging-http&lt;/span&gt;" style="shape=cylinder3;whiteSpace=wrap;html=1;boundedLbl=1;backgroundOutline=1;size=15;fontFamily=Helvetica;fontSize=12;direction=south;" vertex="1" parent="cAXRqbwzUYpm79ER4dvK-82">
          <mxGeometry x="37" y="145" width="220" height="20" as="geometry" />
        </mxCell>
        <mxCell id="cAXRqbwzUYpm79ER4dvK-45" value="&lt;pre style=&quot;background-color: rgb(255, 255, 255); font-family: &amp;quot;JetBrains Mono&amp;quot;, monospace;&quot;&gt;&lt;font color=&quot;#083080&quot;&gt;Endpoint&lt;/font&gt;&lt;/pre&gt;" style="text;html=1;strokeColor=default;fillColor=none;align=center;verticalAlign=middle;whiteSpace=wrap;rounded=0;fontFamily=Helvetica;fontSize=12;strokeWidth=1;dashed=1;" vertex="1" parent="cAXRqbwzUYpm79ER4dvK-82">
          <mxGeometry x="63" y="198" width="56" height="24" as="geometry" />
        </mxCell>
        <mxCell id="cAXRqbwzUYpm79ER4dvK-51" value="" style="endArrow=classic;html=1;rounded=0;fontFamily=Helvetica;fontSize=10;dashed=1;" edge="1" parent="cAXRqbwzUYpm79ER4dvK-82">
          <mxGeometry width="50" height="50" relative="1" as="geometry">
            <mxPoint x="113" y="196" as="sourcePoint" />
            <mxPoint x="113" y="166" as="targetPoint" />
          </mxGeometry>
        </mxCell>
        <mxCell id="cAXRqbwzUYpm79ER4dvK-52" value="" style="endArrow=classic;html=1;rounded=0;fontFamily=Helvetica;fontSize=10;dashed=1;" edge="1" parent="cAXRqbwzUYpm79ER4dvK-82">
          <mxGeometry width="50" height="50" relative="1" as="geometry">
            <mxPoint x="114" y="140" as="sourcePoint" />
            <mxPoint x="114" y="117" as="targetPoint" />
          </mxGeometry>
        </mxCell>
        <mxCell id="cAXRqbwzUYpm79ER4dvK-57" value="&lt;pre style=&quot;background-color: rgb(255, 255, 255); color: rgb(8, 8, 8); font-family: &amp;quot;JetBrains Mono&amp;quot;, monospace;&quot;&gt;&lt;font style=&quot;font-size: 10px;&quot;&gt;&lt;span style=&quot;color: rgb(0, 51, 179);&quot;&gt;kind&lt;/span&gt;: Service&lt;/font&gt;&lt;/pre&gt;" style="text;html=1;align=center;verticalAlign=middle;resizable=0;points=[];autosize=1;strokeColor=none;fillColor=none;fontSize=12;fontFamily=Helvetica;" vertex="1" parent="cAXRqbwzUYpm79ER4dvK-82">
          <mxGeometry x="19" y="-3" width="96" height="50" as="geometry" />
        </mxCell>
        <mxCell id="cAXRqbwzUYpm79ER4dvK-99" value="&lt;span style=&quot;color: rgb(0, 0, 0); font-family: Helvetica; font-size: 12px; font-style: normal; font-variant-ligatures: normal; font-variant-caps: normal; font-weight: 400; letter-spacing: normal; orphans: 2; text-align: center; text-indent: 0px; text-transform: none; widows: 2; word-spacing: 0px; -webkit-text-stroke-width: 0px; background-color: rgb(248, 249, 250); text-decoration-thickness: initial; text-decoration-style: initial; text-decoration-color: initial; float: none; display: inline !important;&quot;&gt;&amp;lt;&amp;lt;subscriber&amp;gt;&amp;gt;&lt;/span&gt;" style="text;whiteSpace=wrap;html=1;fontSize=12;fontFamily=Helvetica;" vertex="1" parent="cAXRqbwzUYpm79ER4dvK-82">
          <mxGeometry x="1" y="174" width="110" height="30" as="geometry" />
        </mxCell>
        <mxCell id="mrzCyjfmGtWYSGb_E_jC-8" value="&lt;pre style=&quot;background-color: rgb(255, 255, 255); color: rgb(8, 8, 8); font-family: &amp;quot;JetBrains Mono&amp;quot;, monospace;&quot;&gt;&lt;span style=&quot;color: rgb(8, 48, 128);&quot;&gt;&lt;font style=&quot;font-size: 12px;&quot;&gt;{$K_SINK}&lt;/font&gt;&lt;/span&gt;&lt;/pre&gt;" style="text;html=1;strokeColor=default;fillColor=none;align=center;verticalAlign=middle;whiteSpace=wrap;rounded=0;fontFamily=Helvetica;fontSize=12;strokeWidth=1;dashed=1;" vertex="1" parent="cAXRqbwzUYpm79ER4dvK-82">
          <mxGeometry x="189" y="198" width="68" height="24" as="geometry" />
        </mxCell>
        <mxCell id="mrzCyjfmGtWYSGb_E_jC-9" value="" style="endArrow=classic;html=1;rounded=0;fontFamily=Helvetica;fontSize=10;dashed=1;" edge="1" parent="cAXRqbwzUYpm79ER4dvK-82">
          <mxGeometry width="50" height="50" relative="1" as="geometry">
            <mxPoint x="198" y="115" as="sourcePoint" />
            <mxPoint x="198" y="145" as="targetPoint" />
          </mxGeometry>
        </mxCell>
        <mxCell id="cAXRqbwzUYpm79ER4dvK-83" value="" style="group" connectable="0" vertex="1" parent="1">
          <mxGeometry x="540" y="430" width="140" height="85" as="geometry" />
        </mxCell>
        <mxCell id="cAXRqbwzUYpm79ER4dvK-48" value="" style="rounded=0;whiteSpace=wrap;html=1;fontFamily=Helvetica;fontSize=12;strokeColor=default;strokeWidth=1;fillColor=none;" vertex="1" parent="cAXRqbwzUYpm79ER4dvK-83">
          <mxGeometry x="12" width="128" height="60" as="geometry" />
        </mxCell>
        <mxCell id="cAXRqbwzUYpm79ER4dvK-42" value="" style="rounded=0;whiteSpace=wrap;html=1;fontFamily=Helvetica;fontSize=12;" vertex="1" parent="cAXRqbwzUYpm79ER4dvK-83">
          <mxGeometry y="9" width="130" height="76" as="geometry" />
        </mxCell>
        <mxCell id="cAXRqbwzUYpm79ER4dvK-46" value="&lt;pre style=&quot;background-color: rgb(255, 255, 255); color: rgb(8, 8, 8); font-family: &amp;quot;JetBrains Mono&amp;quot;, monospace;&quot;&gt;&lt;font style=&quot;font-size: 8px;&quot;&gt;&lt;span style=&quot;color: rgb(0, 51, 179);&quot;&gt;filter&lt;/span&gt;:&lt;br&gt;  &lt;span style=&quot;color: rgb(0, 51, 179);&quot;&gt;attributes&lt;/span&gt;:&lt;br&gt;    &lt;span style=&quot;color: rgb(0, 51, 179);&quot;&gt;type&lt;/span&gt;: job.create&lt;/font&gt;&lt;/pre&gt;" style="text;whiteSpace=wrap;html=1;fontSize=11;fontFamily=Helvetica;" vertex="1" parent="cAXRqbwzUYpm79ER4dvK-83">
          <mxGeometry x="14" y="21" width="100" height="60" as="geometry" />
        </mxCell>
        <mxCell id="cAXRqbwzUYpm79ER4dvK-77" value="" style="shape=image;imageAspect=0;aspect=fixed;verticalLabelPosition=bottom;verticalAlign=top;fontFamily=Helvetica;fontSize=12;strokeColor=default;strokeWidth=1;fillColor=none;image=data:image/png,iVBORw0KGgoAAAANSUhEUgAAARgAAAEYCAYAAACHjumMAAArwklEQVR4nOzdd5xV1bk//s+zz/TeOzDMwDAMMwMydKSIoEQBY4wl0RuNLYnlJjbsJTf+/CaKxnjVmHgtMWpEDCGgIFURBUQ6DH16Z5jeT9nP73UOcq+FOmfvs/c553n78g+Vs/Zy5pzPWXvttZ6lQAghdCIBI4TQjQSMEEI3EjBCCN1IwAghdCMBI4TQjQSMEEI3EjBCCN1IwAghdCMBI4TQjQSMEEI3EjBCCN1IwAghdCMBI4TQjQSMEEI3EjBCCN1IwAghdCMBI4TQjQSMEEI3EjBCCN1IwAghdCMBI4TQjQSMEEI3EjBCCN1IwAghdCMBI4TQjQSMEEI3EjBCCN1IwAghdCMBI4TQjQSMEEI3EjBCCN1IwAghdCMBI4TQjQSMEEI3EjBCCN1IwAghdCMBI4TQjQSMEEI3EjBCCN1IwAghdCMBI4TQjQSMEEI3EjBCCN1IwAghdCMBI4TQTYDRHRA6GDI5nMbMm6BEDRkPIFsB9dotVILGhhW8bslBNH+sGt1FXze0cIwlOm1kcnTq4AKAFDXQenDvmg8qG0uL7Ub3zZPI6A4IDY2+IpTSCs9TUvPvBzALhNDv/Ik6Bt7lss0v8uFVFSjfxQb11Ccl5k3DwMzc8MGjpo2PTcm6CeAJIMpwfc4YjQxeVTcg+m8Nrz67s3R7TVtz/cc+//OXgPEFqUVEk64brcQNvBvEswGKO82fdr6p9zDjBW48uIyXvH0U2OfBzvqezMxpGDLjogGDR82aAzguBWgKCFEn/9PcAaZdDH67umrTss3v/LmutfawzwaNBIw3y/9VHOXkXEgJGZcTKzNASD6HV1vBKOe4kIW8a90/+PD6EpRsterYWx+SgexRQ4MG5k3PjhwwZFpSetZUgCYSkA5C4Fk1wWwFUa0K/qJs+9qPFFK3V26tLju0+68+9TuQgPFGhVdF0PhrLiZS7yHQWPfn0rgBwFq1ueFZXv/SdjTKiOZUci+8IfSCS6+baQ+I+BkI05x3Rho0q4JxDIS1dmvAW3vWvrp56/K/tGrQruEkYLxJ2u2B9MMJM8keOh+gMQREaNg6M7iKQX+l8J5F6rIFR3Bkp0wGO8cr2XcpY6+bmpWQkDIXjB+BaCSASB0u5bxV6gSjBIw3K6t2Lqk9tLFmz9K3vHZiWALG7KIyCPEZUTTlutlKcMrPGDifiE5xf68JB4PrScW/HWVb3kb557tRe6ALPc06XtJcojLykJCYFhw/MH9oZv7YmdEp2VMIGMfgVAJZPNEHZtiJXJPy+7qaGz462HZkTcunH1U0lRd3tzc3eKILmpCAMbNZtyUomRf+BxGuAaMIBI+8ub+hF4yNbLMsUK2r1+Ddl2wevr5HTZs2DYFZMwcMLpp1CRiXOP8VgGij+/W1dgA7QXi7qXj1R2s+eLOuvbHE9JPDEjBmk5gIpM+MoPRbx1N603wCTQcQZFh/nG9h4mMgel8tbX2BD71WioqNPhU05839dXBSxvC8jLzCixUoVwPIBRBidL9OoYeZD8PC72zvKvnAvmlD9e6Dn1uxz5zzZhIwZhGVAWRPSKfcmZdRZOINAEYQEGZ0t76FUcvEG7mx6g3et+4zHFzWaXSX+mvE5B9GJueOGTVk5IxJDLoYcI4QKdJ7PhOsMtMxAhcrjp4V5fu/XH34q3WHShv3d6O62ujO/S8v+WH6sMxM0Kj/zKbEQbcCuJoIGYDHb4XOVR8zb+YAPIWwhk387Esd3rCWxjVZe+nIwQlDcucxcC0RRoAR4gOfAhVAF8CHwfxW1f6EJZ2H/lLz+dpnDZ8c9v4frbcaNDGcsm8cQ0Pi54H5ciIM8qq9Ya5bJ3QAOKB2NL+F/asXc2tVA8o3OYzu2jdlFM4ISBmcP2zs9LkzbQGR5xMwHow0A+azPMXOQB0xinvajy4vbju8pnXt8jLb0YO91QaMbCRgPG3CtSE09qIipTf8foBmn/XCLHNjgCvAymK1/cCLvHBlGbDe6D6hYN5doeNnXX0/Mf4ThFij+2MEBtqJeemOFa/esXXF622evr6vprj5JBcqNOHaQkvuRQvIETwfhNEgzzzy9AACKAaEcRScMJ3GjrGCL6xG77Zu9BozTRMVlYEf3PzUFSD1KRBiDOmECRAQDNCIkOjYPfs+++deA64vdDV4bBCNuGwqpeb+nFwbEEmLlZ/mxrADXMKM97nmq3e5ZM1hHNrm0VunCZc/m1kwY/JyAMM9eV2zYvCmMFv93BfuvrzJk9eVgNHLuPnhVDh+DhFuAjCZyGRPhDyCGSDnG3qN2hbxR14/fyvqd3lkdfBNL3zxXwopjwAk7/HjHAw89vHzv/p9dckOj63Q9pUhunmkjFQw47aRluzRT0HBfUQYTr4xz9IPrg+3M1jzEdw3i3IvCOHIgSUo36jrfdPoS26JTR8yegGIkvS8jpdRwMjKK5q4+qtV7zZ66qISMFop+lEsXXDP5ZaCi59WIpIeAmgckfP+V8AVNRRDwAUUn/5DZfTVCTRslJX7oo6i+YCmt05zf3pHSM70Gx4D0RyveirnAUQc7bCEZYQF0fLKg9v7PHJNT1zEpxU9lqCMLvgJEf0HmEaCDFx16y1cC9y5k5n/zbVxT3Pdmwex4++avOF/+cKmHzmI3gBOVY/F79mb68qu/edTP3nfExeTEUx/jb48nOY+NV1JS/4jgX4BogE+vLZCW+T6Og0iQiFF9s1T0odnIX1yCZorjqG7/6P3vFk3RqYPG/MSEYZq2l/fooRExgaH2CMWV5Vu1n3iXUYw5yLmYgUTs9Mo/rx5FBp3Awi5pM+2fX+jurYhgJZzWcsSPrrkC+xe1n4uDSQmJuLCO167OTIu6SVD9255AWbuVBBw67IF17xXV6nvhkn5xj1bF87PoMnzHlJisv6gBIZeS4SM42sMhAYIhCgiFFFsyJVKxqgJGHP1UdipGg3FZ/Utm3v+T2IyR011hku6/t31bkQUxKQWdrc2L6o9skPXCXcJmDOZeXu0MmP+1Up8xotEdBkBCTLy05XzPTkY4LlKRv54ZdwPq7k6tQadW075TZuaU0RT/uPh6xXQ9fKePjsExCXlTT60o3P/dlRU6HYd+WWcTFKuhXLvGKqcf9k1lDryGSjKLQRKl6cSHkMECgEwjFXLPGVY5hhkTQpDgFKLDms3bP+34j0qKgMzrn9iUlhk7AKAEgzttVchIoctfVhUytK9X+i3K14C5psypwFTbh2ojLn6YSU16UUKjfkxETlvheT8KIMQURiI8ig0+jIlY/RFVDDbxoH5paj5xPXUKX34mPC8qT9+DUSjje6rtyGi5MDoZLW2dNsnnU31uszFyFDfZRowoyiFsifeqICuAtEIOZTOtHrAWKHWxz3Ddc/vunzm1VMS0rOWQubD+olr7IF9l7/xwm1f6VG0yr8DJmlIEPLnnkdDzr+UmJ2jlWFyG+QFvi4VEUDYetnQpJjo4MDzjO6SF3P+NNcUr/7g6o1LF7Ro3bh/BkzaiEC6/KlCstruAugyIk2r8wsPGRobhklp0bAo8p3gJjU1LvSm/7p25JtaN+w/AROVQcgbHUXJE2cryTk/Y/A4Ykrwo5+AT4kPCcT0gXGIDpY7WS0w85bynWvmrHn9UU33KfnHJO/suxKUyb+4RUka9TSFx98BwjAChUm4eKcAhTApPQaJoUGyV1ojRJQSm5LVrQb1fVF/cLdmu619+9eTfVMIXTJlotIX+cDXR1DIRKAPSA0PxqzMeFfQCE1V1h+JmrfsT3m7tGrQ90YwUYlAwZw0mnzrbCVv9B/IEfwAHS86JGNpH2AhYFxqNGJD/LQChr6iI2L70tOTEpYf2vW5JptPfecrIDMTVHRNPOLGXEeEu75eGCeh4mOyY8IwOT0aATKxqxe7agm94bXbRr6jRWO+8QGceFm4Unjtj8HK9QBNJPMemiXcEKgQhseHeXW4uOaM+OuKFeYUQI7un6Zkn7ewvmSH28eeeO8IJiHHQkUXZVPG9IvJQtcBGCW7aH1bblwYJqTFQDFoZndAYhgGJYaDvnP9zh4bDlS3o8f67X2ZESEByE6NQHZKJBKigxEdFohAiwK7ymjvtqG2qRuHajpQ1tCJPrvHqlieEQPdxMov1//1tncO7d3qVse8L2Ay8hSMm5euxBfdSaDrQJQsi+N8X4hFweysBMQZOPdy6Zh0zB2XDuU7k8sOlbFsSzWWb611/XNokAVT85MwcVgikmKCEWA59dvTaldxuLYDK7bV4khtO1STDG0YOKwG9fzo9V9c4NZJBN41yTtjfqoy/rrblbD0/0dEl4EoyitDUpyznLgwZEeHfW/04NE+pEVhWHrU9/rgHFE5/9588BjCgi24cspAzByViujwwO+F0XdZFEJSdAhGDIpBY1sv6lt6df6/ODsExJE9wNJRvWdF89Gafsee+edgYi5WMC4njwZOu4IUuobAQ70uGIVbksOCkJ8QccYPq5GSYkIwYVgCJucluW6JznWayHn7dPXUTPTaHDhQ1W6GORoiop9OuOKxhYf3zPmkv42Y94OamAjMuH84TZh9nxKd+Yyi0NzjtVhIbof8SKBCmJwei7jQIMOHqqcawTgFB1lQMCgGidEh/V7857y1ykqOxKHaDrT32NzvsPuCA0JDo7ptjn8dK93Zr/Kapv2w0vSHp1vSRixVQHcTUarR/RHGSAkPRnK48eFyJs7+nW6u5WwlxYZgekGyaVYoMzBj/I+vL+rv6805gim6Ks2SNfFdgHLNHIJCXwEKYXxqNKKDzbGo7nQjmO+y2VU0tvVhf3Ub9la0orS+Ex09doSHBCA48NQfO2fLcZFB2FHSjK4+jx6GefL+EIUojoDMvILx63Z/cW51kmHKOZjMTFKKrr4DQJ7RXRHGyooOdY1gvE1dcw+WbqnG/qo2dH8jJOjrR91XTBqI4QOiT/n6yNBAZKVE4GibR44uOiMimh6aUXgPgLvO9bXmGx3EjosAY5Ip+yY8RqHjq3YtJp7Y/S4GUN3Ujb+tLcW2I83fCpcT/72ysRuLN1Whvdt62rZS40x10rCFCZf154Wm+xDT0FFZRMg1uh/CWARCsMV7wsWptqkbr648jNKG05e4rWzswr7KttP+mcSoYNPMw+D46Ktfx/OYL2Bicpyjlzij+yGMpYLR2uf2SnWP6uq1o63rzE9/mIGKxq7T/pnwkADDViyfQnV/XmSugInKc44jpwP+eli8OMH5IWzqtYHZBCtCdNDZe/rwDAlUTBUwzNyvFb3mCpjEqAgQTTC6G8IcWnrtcPhowFhtp9/i43pSZaJ8IaKd/XmhuQImYXA6AbFGd0OYQ6fVDhPtAfRbDO5RCKX9ea2pAoYi0kaAEWp0P4Q5dNtU9ErCmAA1NceFHuzPK00VMMieWggy4docYQirqqLbbvxiM39HQEXp2y/W9ee1JgqYaVBgH2p0L4S5dNm860mST2Ku6G3p6ejPS80TMKPTQhnIN7obwlzavexRtS9i0NbiTW/36xdhmoAhnJ9O4EFG90OYS5sJ9uP4OUdNaszW/r7YNAGDKeF5AJlqfbQwXrfdDtUsZd78EaO94fUF9f19uWkChrojZsgCO/Fd3TYVfao8STIKEzeA1aP9fb05Amb0NRFEON/obgjz6XOo6LLJbZJRiKlSpaCe/r7eFAFDgwcNBijN6H4I83GojE6rBIxhmKtqKj7rd3k9UwQM4sePg6zgFSfhvDlq7rVB9dEtA6an0OHGffv6/3JNO9MfQ6coxDwVcliaOIWmHhscki8ex4Da2HjwiDttGB8wDlsIEQqN7oYwr06bHXaZ6PU4Aqzt1dW17rRhfMBETUxjRpbR3RDm1Wl1uJ4mCU/jdmtLS7/qwJxgfMDEUy5R/6plCf9gUxmtfaY4xsPPUFVN2bYmd1owPGAoNW+UnM4ozqSx2+qzxafMisEH6iv3dbvThuEBo4TFnmd0H4T5HS8+ZXQv/Aup2NzT3OBWG8YGzOgfhTAw2NA+CK/QZXPIRK8nMXocZHHrCRKMPheJ4rIGEHiA3CGJM+m1O1zFp0ICjDsrcHdFi+u4kVMdvNbaZUXfWU5GVzZ24+/rSk/ZVkePDQ6HgYFKaAizhJa524yxxZ0yJ4wBKMrQPgivYFUZnTYHYkKM265W1djt+lsLTR192LCvUZO29MDg0k0fPu/e/ZHRt0gKURHAQUb2QXiPbtmT5DHEKAMFup2mxgVM9vVBDMyQ2yNxttqk+JSHsIMZO7d99Mrpj588C4YFDEWPGw5CplHXF96n3WqXR9UeQdaQ4IBdWrRk3AhmTEohAVJgSpy1LpsDEi8e0bXx36+4tYL3BGMmedOyiJhngMjvCkxFhwZg5IAYBCruZfvumlY0drg9gv0ehYDCjGjEhwdr2m5zVx92VrW5FRCu4lN2FaGBxj1J8gcMPhoYHNrvKnbfZEzABKdEkWuC1/iFfp5WkB6Nxb+aiJgw97L1yle+xL921GjWrxOmDE3AOzePQ0q0dpvbHSrjocV7XQHjjj6HA90SMJ5Q8eWSF/tdZOqbjPmA556XACDdkGuLU4oNC8Sjc4cjWcNwcdpY0oS3Nle4fXujMtBulT1JumOq0KopQwKG+kKGAZD1LyZz69TBmDwkXrPnes5A+fzwMdz+zg5NbufYVRtGJnr1phDcXsH7v21p1dA5yb9ylOGL/MS3FGZE484ZQ9yeG/qm0sZO3PLWduyr69eZXSfV3Gvz2QPxTYI7UoMPadWYMQHTV5ljyHXFScU4b40uzUVSlLbzLn9ZX4YjRzs1axOutTA2WGXXo55ajy3/yItvkQZNspCqFHj8uuKkggIUPD5nOC4tTHU9QdKCXWW8/WUlXvu8TPPHyh1WB3Y3dsBq5D4dX3T8F1XBpD5cvvXj/Vo16/HbFIpPH0hEAzx9XXFylxSk4OYpWa6g0YLKwOLtNbjn/d1o69Fn5e3+pi5XlbsxqdGIDgrAKfYLinPC22xBfT9f+ew9e+sObdPse8HzATPmJ2MBlgleE0iJDsGDs4chNEi7gezGkmOYv2gPWrv1e9rjfPdXdvSitc+OcalRGBAZcspdyeJMuJcZK8t3rH1wzZfv7seh/p8gcDKeDZj0O4ngOkFA21Vc4pyFBVnwX/PycN4g7U6Lae2x4cHFe1HdqskSijNqt9rxWVULxqXGICsmFAFa3eP5j3ZS8WRn1eqX1rzxmDbbxL/DswGTcjSMwYUkGxwNd/WYDPy4KF2zeZc+u4oX1h7B1rIWbRo8S1aVsaWuFV02O/ITIhFokffWWepjh/p0cWfjnzYueEz7JeFf82jAEOdlEjDck9cU3zdqQDSeuCwPUaHa7NSwOVT8cfUhPLfqsKtAt6c5Q2bn0Q7XXqWi5CiEBFrkK+y0uMISzI8t/5/HF1ZuWa1buMDjI5iReZPBFCe/feMEBSh4+NLhSI8J1azNj3bX46nlB9Ft4BGvzlg71NKNNqsdY1OikBgaJPMy38fMXNpWW3bTV+89tL6yvFz3C3r0MTUFYCzI//YfmcnM4Um4cHiiZu219djw/JrDhobLNzV0WbGhqhXHemRLwbe5RpY72c43rXnz0Q3lHggXeDRgsidFEGicx64nvmdoUgSevbIQURqVnWzs6HM9jt5Y4tbROZpzjmI+rWpGWWu3a02OYIfK+HtWRPO8Rc/dvL6lvsRji4g8d4sUk5YBooEeu574FoUI988ehqHJEZq012tzuHZIv725Emb8DHdYHfisuhU5sVaclxxpaLFwY3EHg/66bekrv31tzZva7dk4Sx4LGIoZOBhSYMowYzNjMW9Uqmbtrdp3FP/YUmXqEYKDGQeau2BRyDX5a/G7x9jcrsLy0LEjB97YueZNXR5Dn4nnRjBDpxRCVaXAtwHy06Pwp2tGIi5cmx//vrp2PLpkr+sYEbNzxt++pk7XE6aCxAjEhwT6xeQvA+UdxxrvW7lhw79a1z1j2ASZ50YwDkehrOn2vMiQADx3VSGKMrVZUNfUacUd7+xEca3HR9v95hxklbX14Gi3FeenxyAtMsR3H2QyVIDXdNvVB1b99Tc7WutKDe2OhwLmcYCQ65lriW+aU5jiqlKnxQeq2+pwFY76wmSTumfLOYrZVNuGKRmEpDCffIzNTLy24cjOG9t3vlfTYnC4wGMBU7Q/FVyQ6btfG+aUGR+G+y4ehkCL+w8LnaOA1z8vx7MrD7tKMXirdqsdn1Q2Y3RyFIbEhrkmv30Cc4eq4L3S3at+98lfH9e+lmo/eSRgaPxPx5Pdoc3jC3FWIoID8Psr8lGQEa1Je5tLm/D/VhxAQ3ufJu0ZqduuukYyzhHNiIQIBGkQwEZioB5QfvPRzvcX1//Ps6ZaAKR/wITHQrHZp4NIKth5SHCAgsfnDsecwlRNBo0H6zvwi7e2+0S4nOBgxq7GDte8zJiUKMSFBnnjAFsFsLe1teW+1S/evrqtodR0Q0v9ozt5WDATCvzxBAGjjBoQg2vHD3TtyXGX1aHitc/LcaDBeyZ1z5bzTq+msw87jnagw/sOdXMA/EVTbNj8HYv/vNaM4QJPjGAo9pIkYozwxq8HbxQaqOCxucORFOV+RQznB3Dhliq88mkpvOuzd24q23tdx9KOSY7CwCivqC3j/NW8X1G2987Vd95i6hl3/UcVsW1DQBSj+3WEq1TBr2cOxbScBLfbcqiMhV9Vueq7+MOh886A2VDTgr3HOk29eJAZbcy8oPjgJ/+5+jlzhws8MgfDeflSYMozLj8vHffPztHk1uir8mb85r1daOrSdTe/qVgdjG317ei0OTAqMdKMB7x1sqo+uPzlO/9Sd2ib+Vc5euQWaVC0rH/xgKTIYNx70VBEarCRsdfmwPNrjvhVuJzg/NQebO5Cl9WBcanRCA9yv7YMAQ4i6ncgMKAS0ACmZ3atXPi6t4QLdA+YmDSCBaN0vYZwuWVKJkYOcH+1bo/VgT98fAjLdtVp0i9v5LxDquzodZ3BFBUUAHJzIiE8QPlnam/jG9RR0797L1ZtVpVLi1e+XtlcX+Y14QK9A4ayzk8hokw9ryGA/PRI/HJ6FtxdzmF3qHhuzWE8s/KgqwSmv3PeKnVqMP/EQNz+bcvXY9tCzxQrNhF9J3knX5IFQJuVXuKkwoIs+M3MHCRHuV+hbltFK15cd0TCRXM8hMDaVfnyIvoFTFQGqC9yCgBtT1IX/0sh4PYLsl0FvN2tRHC0vRcP/HOvJmdIi28jIIWKrioyuh9G0C9gsqaG4PgRJaabivcVIwdE496LchAa5N6PuKXLins/2IMvSo5p1jfxLSFgTMXAiX632FS3/2FSbLFgytOrfQH8ZNwAxEe4X+PljS/K8c9tNaasTOcbyPlXASzsd6N5/RI19pJRREjSrX0/NzE7DteN16YCaXZShKtujNAPA8OROcnv5mH0G8FkRc4AoN3ZGOJb7rggG0lR2nwhXlKQgtumZ/thSUnPIUIKKfl+90RVn4AZNN5CJCcI6Emrw+rh2mKg4Japg5GVEK5Zm+J7FBqWOszoTniaLgFDEYkpzpG3Hm0LfaRGh+D2GVlyvrOe7F1+t+hUnxFMWk42wPG6tC10c+24gRifFWd0N3wWgfIx6RptDqXyEvqMYOJzCwDyuxlzbxcbHoQ/XJGPQXFyuoweGDyYomamGN0PT9InYCLj/W4o6CvGZ8XjoUuHuariCW0RKB4Do/ON7ocn6fMuIvjdZJavIABXFmW4quIJrXGIQkoBfnyb30x0aR8whT+NBnOO5u0Kj4kKDcSvZw6RUYzmiJgxFaVNfnMPqvk7iDKGFEkFO+83pzD1eNFwv/mu9QxijKTxP9DuDF+T0yFgRhYBLMtCDWK1q5qUfAwLsuDui4YiLVrm6jVFSIUa5jdLOLQNmFFXBBN4imxwNEZ7jw2PLNmLf23X5tytsZlxeGTOcIQEyq2ShiwKKxcizD92DWj6zqHkgjQwFUCOEPC4XpsDjyzZhz+tLXGVu+zodf/8LYWAn00chBm5sqVMWzSRUob4xUGE2n41DRiWC4L7Je3FOVu9rwFvbapwnQawq7oVq/cf1WR3dHCAgmsnDJQVvhpiYDAyJ/rFPKW2IxgKnOa8fdeyTXFmu6tb8cDivejss7v+udem4ol/78OBunZN2p9TkILLRqXJuFQjBCQgPN4v5mG0C5jYDOd33IVygqNn7a9tx81/246D9Z3f+vf76jrw5EcHXLdO7goPDsDvfpiHjDjZHK+RYKTn+MWCO+3CICYjjgnaFCgRZ6W9x+YaueyobD3pf1+xtx67q9s0udbQ5EjMG5nqOtxNuE9xKLnANKO7oTvNAoZyxuUSS4FvT7E5VDy14gA+Lm7AqaZaOnrteHFdCWwaFPF2xspt07Mxc7hM+GqDCzApxueftmo3gokclg+Q+/UbxVl5f2s1Xv6k1DWpezr/3lmLzWXNmlwzJzkSd80a6jqMTLiLsqk3yOcfiGgWMEps8jBX6VHhEct21aHbeub5lS6rA8+tOoRmDU5pJAImZcdjVl6y2235PUIcJv/U5yvcaRMwg8daQOQXk1Zm4TiHu56VxUfx6mdlmqzwDQm04LeX5UlJB/eFUJ86BRG+/bRak4Ch2MGxYB6uRVtCe1aHimdXH8KRhk5N2huRFoWbp/j8l6/eFIAnIzHXp/diaHWLlA8i9w9GFrpp7rLhpU9LYHNoczbJDZMyMTJD5vTdQYwRSJkVZXQ/9KRNwBw/nkQ2OJrcwq+qUFyrzWPr1JgQPHn5CCRocC6Tv2KiCArr9OnFRdrcIoGqAbi/+UXoyjmK+e91JeizaXP29IzcJNfhb1LSoX+I0cKBPdrct5qUJgGjRvAuZt6jRVtCXx9sq8b6Q42atBUcoGD+xTkYkerTo3y9OBi8BDvXnXyVpI/Q5hZp/ftd3Br5HBh9mrQndNPV58DLn5a66sZoITUmFHdeOEQObTtHzi9krt37POoPub+Xw8Q0WwfDZS8tA+FfYPj0D8wXOEcw20+xvaA/Li1IQW6yX1Qf0AajlwMsz/FHn2gzlDQx7Vbybl3a66ha92sG3nYO/zRrV2iuo9eOR5YUo7qlR5P2UqJD8P/9KB9JkcGatOfLGNzDzM/wqqcXAeuN7o7utN35vOKlo2rxG7cD+ELTdoXmnKOYF9Ye0WTxndMP8lNw96whUjfmdBg2MBaoxc1PoWRTr9Hd8QTtSyts/LBLbYte4Lzd17xtoRl2DjU3V6LimDa/JotC+NmkTGQnyfnWp7GF63a9gE23+kW4QK/aLfzhPStUOz8KsDYVj4Qujnb04ZX1pee07eB0nLdIv5k5VEYxJ8Nc5Ti6/z7+8HfHjO6KJ+lTHKprl52XP/7fKtMTAPtNWnujd76swoF67b4HrizKwJShPr9J+BxxIxN+jc/+stnonniaftXn6ovtvOe1Vxj4VLdrCLedGMX0afTYOiYsEPdclIPYML864/3UGH0q8zPq0nXL0FKlzYSXF9G3vOXm5T1cuWk+Mw7oeh3hlnc2V2LR1mpNioQ7XTg80RUyQX5f/Y6ZwX/jLYtfQv3LdqN7YwTd6+fyxyv2sEO9CcxNel9L9E97rx1Pfrgfta3aPLYOtCi4fXo2ijLjNGnPWzGwXa3+5LfY9Y9uo/tiFA8U6N4HXvfiRia8DkCj6UShtSONXVi+p16z9iJDA3DDpIHw2/le5jLmgPuweXGt0V0xkmdOAChfD/XAwmcY+FhCxrxe3VCG+jbt5uR/OCod04cl+l2ZQwbXqy0xv+JFd65HS53R3TGU544Y+WxRo3rswC0Af3p89CjMZmdVq2vCV6vFd/ERQfjDFQUY4F/HnTig8O956z2r0Frl91+mnj3DaPE7tY4K9WYGb/fodcVZYQZe/rQEq05zUsG5GjkwBk/My3Mdpu8H+hh4XV216DWU75IvUc8fkrYPWHlVGTc3PsCAT29T91bNXTb8dtk+NHVoszHe+Qa7ZuwAzMrz8eNO2Hnrz+9wbel8lL7v0zVezoUhpzDy7lc/Zah/BuB+qXuhuR2VbVh3QLuNvkEBiusQfd8+tI33OWr3P84f3idfnN9gzDGvh7bbefvfn2TwHxksNWRMRmV23Sq19WhXpNA5grmyKMM3q98xjqmdTQ/gw39UG90VszGuju7Wpd1qwIAnlMIZQwBcYVg/PMyhMrqtdre/ze2qvvOHm0ub8dbGCtwwOVOzR833/2AYNhw+hiqNykSYA3cy8CCveHIFUGV0Z0zH8O8TuuqF8Up0+ocg+MUGlqjQANexHwGKe4PH/XXtONap7x1mUmQwhiZHQNFo2MHMrrOy23t9ZlGrnZmfV5t2PY7Fv/PbxXSnY3jAIDVToR8suFoJoGcApBvdHSHOFjMvVre993Ns/0CqBpyC8c8OO1sZLVv2Ut6cMnKolwCQsmjCC/Bh9Ujrjdj0e/9eSXcGxgeMU2srOLCzhBJH5RCh0BQjKyFOhdHJxHfxmgc2oK/D6N6YmjkCxqnqkMohBduUpMTJANIkZIRJOZj5WfWDV19G606/X6l7JuYJGKeqT9o5dcTnFJk4gUAyHyPMhgEsVbctmo+ypb70KEw3xqyDOZ29bxxgBN8PWekrzIax11Gb8DC2L9Tm/F0/YK4RDI7Px6BkfQUNGu+goNCpAMmZ18J4zIfUtvrrsPbuveiTh0Zny3wB49TbAQ6mnUrqyCyARphypCX8B6NPVekefvuGVRIu58a8H9ytS7sdVcUPfn3GkuxMFUZxALyQd7y/xOiOeCNzjmBOaCtu58EjNioBMc5bpRSjuyP8jp2Z31UrG+bj86dbjO6MNzJ3wHR3A7tWNWHwuAoKjZ0ni/CERzE+56bin+PD+/zqLCMtmTtgTmg5XE55VzST2jcdREFGd0f4AeYKR2nVLVj+QInRXfFm3hEwna0qV+/eTjnTBhBRkSzCE7pi1DHxbbzm0U/RKyt13eEdAePU2cCcmHRQiRl8KQD/Pg9D6Ie5jxU8rC57/D0cK5WVum7ynoBxqi9vxqDC3QiJnkDwj/IOwqNUJn5d3fr+73F4vVRb1IBX3mrQHW9NVKxhSwDy8UKvwpOYeYu6dc887Phtg9F98RXeNYI5oexgDRVMiiNHwCSQd4akMBlGKSt0B9Y9Xgyb1I7SincGTHcjOCRsFyXm5hJoqKkXDArTY3AdB/beyAvvX4+OWlnUqSHvDBinyt3dwOyVSAsZTUC2t97uCcPZQMpD/PH976O+QsJFY179zc/bbmxRg+IfgFRbFv3DzPyJum3PQpSXG90Xn+S9I5gTDqypR+aEJgoKvRhAoNHdEV5DBfhjtf3Ir7D6ESl7qRPvD5i+dqCvah8NnhJMoHGGHsUivAYzdqvVB6/Fkocqje6LL/P+gHFqqld5cNEOJTRuKIA8mY8Rp8WwsYMfxqJffmZ0V3ydbwSM0741vZyUtIGiM8cQaLDR3RHmxEAfCM/w2uf+jNYqnzmgyay8epL3e1a82MBHK+8DoN3BysJ3uJ4R8UfqnmNPomyj1NT1AN8ZwZxQf6AeeRc5iOh8ALLzWvwfQgMfq7gDq++sMLor/sL3Aqa3DVDtOyg9r5ugnC9PlsRxXKNaon7Nqx9d6zrsT3iE7wWMU/1+O9cd/pKGTs0iolEy6ev3Othh/xUvnb8Y9SWyQ9qDfDNgnDoamCPTtivxg8aCMFBCxm/ZVYv1aV705l9w7EsJFw/z3YBxqtjczim5XyhRyT8ASGrI+B8V4GXqtg8eQKkclGYE3w4YJ1tFE7LmgEid5XNPzcRpMWOnWrfvl/j0pVqj++KvfD9gWluB5opiyp6USOB8OcjNTzAfQGvd9bzuhWI5y8g4vh8wTq1VNk4fsV6JSEoHaKTMx/g8q6Ml+nb+4CfrJFyM5T+3DEsf73CUH3wEjP1Gd0XoygHgbVT+bbnRHRH+FDBOqx6uU3va5wOQc258EcPBzH9zVDQ8iC1vy6SuCfjHLdI31e08TLkXtxAwHSQHufmYT7n8wI1YdU+z0R0Rx/lfwHS3gR28n9LzY4gw1u9GcT6KgU5uibyLP3xzLyA7AczC/wLGqWGfnR2OLygjP5dAeUZ3R7itBYryCK++dyE6t8k2ABPxz4Bxathv48Sk7Ur04IvASJDnSl6K0cus3KcuXf0q6lc4jO6O+Db/vj34cnkJOxyPMrjV6K6IfiKsUVs++zvqX5baLibkvyMYp94WcPmmA8iZXU0KXQBCqNFdEueAuVgtqf4llj8hK3VNyr8Dxqm3ndG4fw9lTY8iBZNlEZ7XKFcddBOveWybLKYzLwkYp46jYEfvDsoYmUPAUID8+9bR5Bhcw4F9N/Ciezegrdro7ojTkIA5oeFgL3JGrqXgxBEAcmQkY1IMG1Q8wCv//AHqdxvdG3EGEjDftHddDycN36lEJ80FKMbo7oiTIKxUtx/4Hfa/0Wt0V8SZScB819GSYxgwvo5CQmdLTV+TYXzpqPrqeux6vgF9fUb3RpwFCZjv6msHarcfwIhLQgk8Tso7mAW3qC0xt2DprbslXLyHTGaeTEuNg6uKnwHTouNV0YShGDZm/Il33bvB6K6IcyMjmFM58kkfk7qBUgvGEvFgmfM1TC8TPaPu+ccC7F4n8y5eRkYwp7Ptg2PcXnMvQHI4ukGYsVTdXPckNn/QYXRfxLmTEcyZ1O47SnkzGgmWSSCEG90dP+IAY6/aVX031txZY3RnRP/IuP9sRGUQTfvFeCU198fMSg4Rh8mPTj8M1KGH1qqN61Zj/bs16JHyLkIIIb5D5mCEELqRgBFC6EYCRgihGwkYIYRuJGCEELqRgBFC6EYCRgihGwkYIYRuJGCEELqRgBFC6EYCRgihGwkYIYRuJGCEELqRgBFC6EYCRgihGwkYIYRuJGCEELqRgBFC6EYCRgihGwkYIYRuJGCEELqRgBFC6EYCRgihGwkYIYRuJGCEELqRgBFC6EYCRgihGwkYIYRuJGCEELqRgBFC6EYCRgihm/8/AAD//7yWrEpmw8R2AAAAAElFTkSuQmCC;" vertex="1" parent="cAXRqbwzUYpm79ER4dvK-83">
          <mxGeometry x="1" y="8" width="30" height="30" as="geometry" />
        </mxCell>
        <mxCell id="cAXRqbwzUYpm79ER4dvK-84" value="Trigger" style="text;html=1;strokeColor=none;fillColor=none;align=center;verticalAlign=middle;whiteSpace=wrap;rounded=0;fontFamily=Helvetica;fontSize=12;" vertex="1" parent="cAXRqbwzUYpm79ER4dvK-83">
          <mxGeometry x="31" y="9" width="60" height="30" as="geometry" />
        </mxCell>
        <mxCell id="mrzCyjfmGtWYSGb_E_jC-1" value="" style="group" connectable="0" vertex="1" parent="1">
          <mxGeometry x="727" y="430" width="110" height="40" as="geometry" />
        </mxCell>
        <mxCell id="mrzCyjfmGtWYSGb_E_jC-2" value="" style="group" connectable="0" vertex="1" parent="mrzCyjfmGtWYSGb_E_jC-1">
          <mxGeometry width="110" height="40" as="geometry" />
        </mxCell>
        <mxCell id="mrzCyjfmGtWYSGb_E_jC-3" value="&amp;nbsp; &amp;nbsp; &amp;nbsp;SinkBinding" style="rounded=0;whiteSpace=wrap;html=1;fontFamily=Helvetica;fontSize=12;" vertex="1" parent="mrzCyjfmGtWYSGb_E_jC-2">
          <mxGeometry width="110" height="40" as="geometry" />
        </mxCell>
        <mxCell id="mrzCyjfmGtWYSGb_E_jC-4" value="" style="shape=image;imageAspect=0;aspect=fixed;verticalLabelPosition=bottom;verticalAlign=top;fontFamily=Helvetica;fontSize=12;strokeColor=default;strokeWidth=1;fillColor=none;image=data:image/png,iVBORw0KGgoAAAANSUhEUgAAARgAAAEYCAYAAACHjumMAAArwklEQVR4nOzdd5xV1bk//s+zz/TeOzDMwDAMMwMydKSIoEQBY4wl0RuNLYnlJjbsJTf+/CaKxnjVmHgtMWpEDCGgIFURBUQ6DH16Z5jeT9nP73UOcq+FOmfvs/c553n78g+Vs/Zy5pzPWXvttZ6lQAghdCIBI4TQjQSMEEI3EjBCCN1IwAghdCMBI4TQjQSMEEI3EjBCCN1IwAghdCMBI4TQjQSMEEI3EjBCCN1IwAghdCMBI4TQjQSMEEI3EjBCCN1IwAghdCMBI4TQjQSMEEI3EjBCCN1IwAghdCMBI4TQjQSMEEI3EjBCCN1IwAghdCMBI4TQjQSMEEI3EjBCCN1IwAghdCMBI4TQjQSMEEI3EjBCCN1IwAghdCMBI4TQjQSMEEI3EjBCCN1IwAghdCMBI4TQjQSMEEI3EjBCCN1IwAghdCMBI4TQjQSMEEI3EjBCCN1IwAghdCMBI4TQTYDRHRA6GDI5nMbMm6BEDRkPIFsB9dotVILGhhW8bslBNH+sGt1FXze0cIwlOm1kcnTq4AKAFDXQenDvmg8qG0uL7Ub3zZPI6A4IDY2+IpTSCs9TUvPvBzALhNDv/Ik6Bt7lss0v8uFVFSjfxQb11Ccl5k3DwMzc8MGjpo2PTcm6CeAJIMpwfc4YjQxeVTcg+m8Nrz67s3R7TVtz/cc+//OXgPEFqUVEk64brcQNvBvEswGKO82fdr6p9zDjBW48uIyXvH0U2OfBzvqezMxpGDLjogGDR82aAzguBWgKCFEn/9PcAaZdDH67umrTss3v/LmutfawzwaNBIw3y/9VHOXkXEgJGZcTKzNASD6HV1vBKOe4kIW8a90/+PD6EpRsterYWx+SgexRQ4MG5k3PjhwwZFpSetZUgCYSkA5C4Fk1wWwFUa0K/qJs+9qPFFK3V26tLju0+68+9TuQgPFGhVdF0PhrLiZS7yHQWPfn0rgBwFq1ueFZXv/SdjTKiOZUci+8IfSCS6+baQ+I+BkI05x3Rho0q4JxDIS1dmvAW3vWvrp56/K/tGrQruEkYLxJ2u2B9MMJM8keOh+gMQREaNg6M7iKQX+l8J5F6rIFR3Bkp0wGO8cr2XcpY6+bmpWQkDIXjB+BaCSASB0u5bxV6gSjBIw3K6t2Lqk9tLFmz9K3vHZiWALG7KIyCPEZUTTlutlKcMrPGDifiE5xf68JB4PrScW/HWVb3kb557tRe6ALPc06XtJcojLykJCYFhw/MH9oZv7YmdEp2VMIGMfgVAJZPNEHZtiJXJPy+7qaGz462HZkTcunH1U0lRd3tzc3eKILmpCAMbNZtyUomRf+BxGuAaMIBI+8ub+hF4yNbLMsUK2r1+Ddl2wevr5HTZs2DYFZMwcMLpp1CRiXOP8VgGij+/W1dgA7QXi7qXj1R2s+eLOuvbHE9JPDEjBmk5gIpM+MoPRbx1N603wCTQcQZFh/nG9h4mMgel8tbX2BD71WioqNPhU05839dXBSxvC8jLzCixUoVwPIBRBidL9OoYeZD8PC72zvKvnAvmlD9e6Dn1uxz5zzZhIwZhGVAWRPSKfcmZdRZOINAEYQEGZ0t76FUcvEG7mx6g3et+4zHFzWaXSX+mvE5B9GJueOGTVk5IxJDLoYcI4QKdJ7PhOsMtMxAhcrjp4V5fu/XH34q3WHShv3d6O62ujO/S8v+WH6sMxM0Kj/zKbEQbcCuJoIGYDHb4XOVR8zb+YAPIWwhk387Esd3rCWxjVZe+nIwQlDcucxcC0RRoAR4gOfAhVAF8CHwfxW1f6EJZ2H/lLz+dpnDZ8c9v4frbcaNDGcsm8cQ0Pi54H5ciIM8qq9Ya5bJ3QAOKB2NL+F/asXc2tVA8o3OYzu2jdlFM4ISBmcP2zs9LkzbQGR5xMwHow0A+azPMXOQB0xinvajy4vbju8pnXt8jLb0YO91QaMbCRgPG3CtSE09qIipTf8foBmn/XCLHNjgCvAymK1/cCLvHBlGbDe6D6hYN5doeNnXX0/Mf4ThFij+2MEBtqJeemOFa/esXXF622evr6vprj5JBcqNOHaQkvuRQvIETwfhNEgzzzy9AACKAaEcRScMJ3GjrGCL6xG77Zu9BozTRMVlYEf3PzUFSD1KRBiDOmECRAQDNCIkOjYPfs+++deA64vdDV4bBCNuGwqpeb+nFwbEEmLlZ/mxrADXMKM97nmq3e5ZM1hHNrm0VunCZc/m1kwY/JyAMM9eV2zYvCmMFv93BfuvrzJk9eVgNHLuPnhVDh+DhFuAjCZyGRPhDyCGSDnG3qN2hbxR14/fyvqd3lkdfBNL3zxXwopjwAk7/HjHAw89vHzv/p9dckOj63Q9pUhunmkjFQw47aRluzRT0HBfUQYTr4xz9IPrg+3M1jzEdw3i3IvCOHIgSUo36jrfdPoS26JTR8yegGIkvS8jpdRwMjKK5q4+qtV7zZ66qISMFop+lEsXXDP5ZaCi59WIpIeAmgckfP+V8AVNRRDwAUUn/5DZfTVCTRslJX7oo6i+YCmt05zf3pHSM70Gx4D0RyveirnAUQc7bCEZYQF0fLKg9v7PHJNT1zEpxU9lqCMLvgJEf0HmEaCDFx16y1cC9y5k5n/zbVxT3Pdmwex4++avOF/+cKmHzmI3gBOVY/F79mb68qu/edTP3nfExeTEUx/jb48nOY+NV1JS/4jgX4BogE+vLZCW+T6Og0iQiFF9s1T0odnIX1yCZorjqG7/6P3vFk3RqYPG/MSEYZq2l/fooRExgaH2CMWV5Vu1n3iXUYw5yLmYgUTs9Mo/rx5FBp3Awi5pM+2fX+jurYhgJZzWcsSPrrkC+xe1n4uDSQmJuLCO167OTIu6SVD9255AWbuVBBw67IF17xXV6nvhkn5xj1bF87PoMnzHlJisv6gBIZeS4SM42sMhAYIhCgiFFFsyJVKxqgJGHP1UdipGg3FZ/Utm3v+T2IyR011hku6/t31bkQUxKQWdrc2L6o9skPXCXcJmDOZeXu0MmP+1Up8xotEdBkBCTLy05XzPTkY4LlKRv54ZdwPq7k6tQadW075TZuaU0RT/uPh6xXQ9fKePjsExCXlTT60o3P/dlRU6HYd+WWcTFKuhXLvGKqcf9k1lDryGSjKLQRKl6cSHkMECgEwjFXLPGVY5hhkTQpDgFKLDms3bP+34j0qKgMzrn9iUlhk7AKAEgzttVchIoctfVhUytK9X+i3K14C5psypwFTbh2ojLn6YSU16UUKjfkxETlvheT8KIMQURiI8ig0+jIlY/RFVDDbxoH5paj5xPXUKX34mPC8qT9+DUSjje6rtyGi5MDoZLW2dNsnnU31uszFyFDfZRowoyiFsifeqICuAtEIOZTOtHrAWKHWxz3Ddc/vunzm1VMS0rOWQubD+olr7IF9l7/xwm1f6VG0yr8DJmlIEPLnnkdDzr+UmJ2jlWFyG+QFvi4VEUDYetnQpJjo4MDzjO6SF3P+NNcUr/7g6o1LF7Ro3bh/BkzaiEC6/KlCstruAugyIk2r8wsPGRobhklp0bAo8p3gJjU1LvSm/7p25JtaN+w/AROVQcgbHUXJE2cryTk/Y/A4Ykrwo5+AT4kPCcT0gXGIDpY7WS0w85bynWvmrHn9UU33KfnHJO/suxKUyb+4RUka9TSFx98BwjAChUm4eKcAhTApPQaJoUGyV1ojRJQSm5LVrQb1fVF/cLdmu619+9eTfVMIXTJlotIX+cDXR1DIRKAPSA0PxqzMeFfQCE1V1h+JmrfsT3m7tGrQ90YwUYlAwZw0mnzrbCVv9B/IEfwAHS86JGNpH2AhYFxqNGJD/LQChr6iI2L70tOTEpYf2vW5JptPfecrIDMTVHRNPOLGXEeEu75eGCeh4mOyY8IwOT0aATKxqxe7agm94bXbRr6jRWO+8QGceFm4Unjtj8HK9QBNJPMemiXcEKgQhseHeXW4uOaM+OuKFeYUQI7un6Zkn7ewvmSH28eeeO8IJiHHQkUXZVPG9IvJQtcBGCW7aH1bblwYJqTFQDFoZndAYhgGJYaDvnP9zh4bDlS3o8f67X2ZESEByE6NQHZKJBKigxEdFohAiwK7ymjvtqG2qRuHajpQ1tCJPrvHqlieEQPdxMov1//1tncO7d3qVse8L2Ay8hSMm5euxBfdSaDrQJQsi+N8X4hFweysBMQZOPdy6Zh0zB2XDuU7k8sOlbFsSzWWb611/XNokAVT85MwcVgikmKCEWA59dvTaldxuLYDK7bV4khtO1STDG0YOKwG9fzo9V9c4NZJBN41yTtjfqoy/rrblbD0/0dEl4EoyitDUpyznLgwZEeHfW/04NE+pEVhWHrU9/rgHFE5/9588BjCgi24cspAzByViujwwO+F0XdZFEJSdAhGDIpBY1sv6lt6df6/ODsExJE9wNJRvWdF89Gafsee+edgYi5WMC4njwZOu4IUuobAQ70uGIVbksOCkJ8QccYPq5GSYkIwYVgCJucluW6JznWayHn7dPXUTPTaHDhQ1W6GORoiop9OuOKxhYf3zPmkv42Y94OamAjMuH84TZh9nxKd+Yyi0NzjtVhIbof8SKBCmJwei7jQIMOHqqcawTgFB1lQMCgGidEh/V7857y1ykqOxKHaDrT32NzvsPuCA0JDo7ptjn8dK93Zr/Kapv2w0vSHp1vSRixVQHcTUarR/RHGSAkPRnK48eFyJs7+nW6u5WwlxYZgekGyaVYoMzBj/I+vL+rv6805gim6Ks2SNfFdgHLNHIJCXwEKYXxqNKKDzbGo7nQjmO+y2VU0tvVhf3Ub9la0orS+Ex09doSHBCA48NQfO2fLcZFB2FHSjK4+jx6GefL+EIUojoDMvILx63Z/cW51kmHKOZjMTFKKrr4DQJ7RXRHGyooOdY1gvE1dcw+WbqnG/qo2dH8jJOjrR91XTBqI4QOiT/n6yNBAZKVE4GibR44uOiMimh6aUXgPgLvO9bXmGx3EjosAY5Ip+yY8RqHjq3YtJp7Y/S4GUN3Ujb+tLcW2I83fCpcT/72ysRuLN1Whvdt62rZS40x10rCFCZf154Wm+xDT0FFZRMg1uh/CWARCsMV7wsWptqkbr648jNKG05e4rWzswr7KttP+mcSoYNPMw+D46Ktfx/OYL2Bicpyjlzij+yGMpYLR2uf2SnWP6uq1o63rzE9/mIGKxq7T/pnwkADDViyfQnV/XmSugInKc44jpwP+eli8OMH5IWzqtYHZBCtCdNDZe/rwDAlUTBUwzNyvFb3mCpjEqAgQTTC6G8IcWnrtcPhowFhtp9/i43pSZaJ8IaKd/XmhuQImYXA6AbFGd0OYQ6fVDhPtAfRbDO5RCKX9ea2pAoYi0kaAEWp0P4Q5dNtU9ErCmAA1NceFHuzPK00VMMieWggy4docYQirqqLbbvxiM39HQEXp2y/W9ee1JgqYaVBgH2p0L4S5dNm860mST2Ku6G3p6ejPS80TMKPTQhnIN7obwlzavexRtS9i0NbiTW/36xdhmoAhnJ9O4EFG90OYS5sJ9uP4OUdNaszW/r7YNAGDKeF5AJlqfbQwXrfdDtUsZd78EaO94fUF9f19uWkChrojZsgCO/Fd3TYVfao8STIKEzeA1aP9fb05Amb0NRFEON/obgjz6XOo6LLJbZJRiKlSpaCe/r7eFAFDgwcNBijN6H4I83GojE6rBIxhmKtqKj7rd3k9UwQM4sePg6zgFSfhvDlq7rVB9dEtA6an0OHGffv6/3JNO9MfQ6coxDwVcliaOIWmHhscki8ex4Da2HjwiDttGB8wDlsIEQqN7oYwr06bHXaZ6PU4Aqzt1dW17rRhfMBETUxjRpbR3RDm1Wl1uJ4mCU/jdmtLS7/qwJxgfMDEUy5R/6plCf9gUxmtfaY4xsPPUFVN2bYmd1owPGAoNW+UnM4ozqSx2+qzxafMisEH6iv3dbvThuEBo4TFnmd0H4T5HS8+ZXQv/Aup2NzT3OBWG8YGzOgfhTAw2NA+CK/QZXPIRK8nMXocZHHrCRKMPheJ4rIGEHiA3CGJM+m1O1zFp0ICjDsrcHdFi+u4kVMdvNbaZUXfWU5GVzZ24+/rSk/ZVkePDQ6HgYFKaAizhJa524yxxZ0yJ4wBKMrQPgivYFUZnTYHYkKM265W1djt+lsLTR192LCvUZO29MDg0k0fPu/e/ZHRt0gKURHAQUb2QXiPbtmT5DHEKAMFup2mxgVM9vVBDMyQ2yNxttqk+JSHsIMZO7d99Mrpj588C4YFDEWPGw5CplHXF96n3WqXR9UeQdaQ4IBdWrRk3AhmTEohAVJgSpy1LpsDEi8e0bXx36+4tYL3BGMmedOyiJhngMjvCkxFhwZg5IAYBCruZfvumlY0drg9gv0ehYDCjGjEhwdr2m5zVx92VrW5FRCu4lN2FaGBxj1J8gcMPhoYHNrvKnbfZEzABKdEkWuC1/iFfp5WkB6Nxb+aiJgw97L1yle+xL921GjWrxOmDE3AOzePQ0q0dpvbHSrjocV7XQHjjj6HA90SMJ5Q8eWSF/tdZOqbjPmA556XACDdkGuLU4oNC8Sjc4cjWcNwcdpY0oS3Nle4fXujMtBulT1JumOq0KopQwKG+kKGAZD1LyZz69TBmDwkXrPnes5A+fzwMdz+zg5NbufYVRtGJnr1phDcXsH7v21p1dA5yb9ylOGL/MS3FGZE484ZQ9yeG/qm0sZO3PLWduyr69eZXSfV3Gvz2QPxTYI7UoMPadWYMQHTV5ljyHXFScU4b40uzUVSlLbzLn9ZX4YjRzs1axOutTA2WGXXo55ajy3/yItvkQZNspCqFHj8uuKkggIUPD5nOC4tTHU9QdKCXWW8/WUlXvu8TPPHyh1WB3Y3dsBq5D4dX3T8F1XBpD5cvvXj/Vo16/HbFIpPH0hEAzx9XXFylxSk4OYpWa6g0YLKwOLtNbjn/d1o69Fn5e3+pi5XlbsxqdGIDgrAKfYLinPC22xBfT9f+ew9e+sObdPse8HzATPmJ2MBlgleE0iJDsGDs4chNEi7gezGkmOYv2gPWrv1e9rjfPdXdvSitc+OcalRGBAZcspdyeJMuJcZK8t3rH1wzZfv7seh/p8gcDKeDZj0O4ngOkFA21Vc4pyFBVnwX/PycN4g7U6Lae2x4cHFe1HdqskSijNqt9rxWVULxqXGICsmFAFa3eP5j3ZS8WRn1eqX1rzxmDbbxL/DswGTcjSMwYUkGxwNd/WYDPy4KF2zeZc+u4oX1h7B1rIWbRo8S1aVsaWuFV02O/ITIhFokffWWepjh/p0cWfjnzYueEz7JeFf82jAEOdlEjDck9cU3zdqQDSeuCwPUaHa7NSwOVT8cfUhPLfqsKtAt6c5Q2bn0Q7XXqWi5CiEBFrkK+y0uMISzI8t/5/HF1ZuWa1buMDjI5iReZPBFCe/feMEBSh4+NLhSI8J1azNj3bX46nlB9Ft4BGvzlg71NKNNqsdY1OikBgaJPMy38fMXNpWW3bTV+89tL6yvFz3C3r0MTUFYCzI//YfmcnM4Um4cHiiZu219djw/JrDhobLNzV0WbGhqhXHemRLwbe5RpY72c43rXnz0Q3lHggXeDRgsidFEGicx64nvmdoUgSevbIQURqVnWzs6HM9jt5Y4tbROZpzjmI+rWpGWWu3a02OYIfK+HtWRPO8Rc/dvL6lvsRji4g8d4sUk5YBooEeu574FoUI988ehqHJEZq012tzuHZIv725Emb8DHdYHfisuhU5sVaclxxpaLFwY3EHg/66bekrv31tzZva7dk4Sx4LGIoZOBhSYMowYzNjMW9Uqmbtrdp3FP/YUmXqEYKDGQeau2BRyDX5a/G7x9jcrsLy0LEjB97YueZNXR5Dn4nnRjBDpxRCVaXAtwHy06Pwp2tGIi5cmx//vrp2PLpkr+sYEbNzxt++pk7XE6aCxAjEhwT6xeQvA+UdxxrvW7lhw79a1z1j2ASZ50YwDkehrOn2vMiQADx3VSGKMrVZUNfUacUd7+xEca3HR9v95hxklbX14Gi3FeenxyAtMsR3H2QyVIDXdNvVB1b99Tc7WutKDe2OhwLmcYCQ65lriW+aU5jiqlKnxQeq2+pwFY76wmSTumfLOYrZVNuGKRmEpDCffIzNTLy24cjOG9t3vlfTYnC4wGMBU7Q/FVyQ6btfG+aUGR+G+y4ehkCL+w8LnaOA1z8vx7MrD7tKMXirdqsdn1Q2Y3RyFIbEhrkmv30Cc4eq4L3S3at+98lfH9e+lmo/eSRgaPxPx5Pdoc3jC3FWIoID8Psr8lGQEa1Je5tLm/D/VhxAQ3ufJu0ZqduuukYyzhHNiIQIBGkQwEZioB5QfvPRzvcX1//Ps6ZaAKR/wITHQrHZp4NIKth5SHCAgsfnDsecwlRNBo0H6zvwi7e2+0S4nOBgxq7GDte8zJiUKMSFBnnjAFsFsLe1teW+1S/evrqtodR0Q0v9ozt5WDATCvzxBAGjjBoQg2vHD3TtyXGX1aHitc/LcaDBeyZ1z5bzTq+msw87jnagw/sOdXMA/EVTbNj8HYv/vNaM4QJPjGAo9pIkYozwxq8HbxQaqOCxucORFOV+RQznB3Dhliq88mkpvOuzd24q23tdx9KOSY7CwCivqC3j/NW8X1G2987Vd95i6hl3/UcVsW1DQBSj+3WEq1TBr2cOxbScBLfbcqiMhV9Vueq7+MOh886A2VDTgr3HOk29eJAZbcy8oPjgJ/+5+jlzhws8MgfDeflSYMozLj8vHffPztHk1uir8mb85r1daOrSdTe/qVgdjG317ei0OTAqMdKMB7x1sqo+uPzlO/9Sd2ib+Vc5euQWaVC0rH/xgKTIYNx70VBEarCRsdfmwPNrjvhVuJzg/NQebO5Cl9WBcanRCA9yv7YMAQ4i6ncgMKAS0ACmZ3atXPi6t4QLdA+YmDSCBaN0vYZwuWVKJkYOcH+1bo/VgT98fAjLdtVp0i9v5LxDquzodZ3BFBUUAHJzIiE8QPlnam/jG9RR0797L1ZtVpVLi1e+XtlcX+Y14QK9A4ayzk8hokw9ryGA/PRI/HJ6FtxdzmF3qHhuzWE8s/KgqwSmv3PeKnVqMP/EQNz+bcvXY9tCzxQrNhF9J3knX5IFQJuVXuKkwoIs+M3MHCRHuV+hbltFK15cd0TCRXM8hMDaVfnyIvoFTFQGqC9yCgBtT1IX/0sh4PYLsl0FvN2tRHC0vRcP/HOvJmdIi28jIIWKrioyuh9G0C9gsqaG4PgRJaabivcVIwdE496LchAa5N6PuKXLins/2IMvSo5p1jfxLSFgTMXAiX632FS3/2FSbLFgytOrfQH8ZNwAxEe4X+PljS/K8c9tNaasTOcbyPlXASzsd6N5/RI19pJRREjSrX0/NzE7DteN16YCaXZShKtujNAPA8OROcnv5mH0G8FkRc4AoN3ZGOJb7rggG0lR2nwhXlKQgtumZ/thSUnPIUIKKfl+90RVn4AZNN5CJCcI6Emrw+rh2mKg4Japg5GVEK5Zm+J7FBqWOszoTniaLgFDEYkpzpG3Hm0LfaRGh+D2GVlyvrOe7F1+t+hUnxFMWk42wPG6tC10c+24gRifFWd0N3wWgfIx6RptDqXyEvqMYOJzCwDyuxlzbxcbHoQ/XJGPQXFyuoweGDyYomamGN0PT9InYCLj/W4o6CvGZ8XjoUuHuariCW0RKB4Do/ON7ocn6fMuIvjdZJavIABXFmW4quIJrXGIQkoBfnyb30x0aR8whT+NBnOO5u0Kj4kKDcSvZw6RUYzmiJgxFaVNfnMPqvk7iDKGFEkFO+83pzD1eNFwv/mu9QxijKTxP9DuDF+T0yFgRhYBLMtCDWK1q5qUfAwLsuDui4YiLVrm6jVFSIUa5jdLOLQNmFFXBBN4imxwNEZ7jw2PLNmLf23X5tytsZlxeGTOcIQEyq2ShiwKKxcizD92DWj6zqHkgjQwFUCOEPC4XpsDjyzZhz+tLXGVu+zodf/8LYWAn00chBm5sqVMWzSRUob4xUGE2n41DRiWC4L7Je3FOVu9rwFvbapwnQawq7oVq/cf1WR3dHCAgmsnDJQVvhpiYDAyJ/rFPKW2IxgKnOa8fdeyTXFmu6tb8cDivejss7v+udem4ol/78OBunZN2p9TkILLRqXJuFQjBCQgPN4v5mG0C5jYDOd33IVygqNn7a9tx81/246D9Z3f+vf76jrw5EcHXLdO7goPDsDvfpiHjDjZHK+RYKTn+MWCO+3CICYjjgnaFCgRZ6W9x+YaueyobD3pf1+xtx67q9s0udbQ5EjMG5nqOtxNuE9xKLnANKO7oTvNAoZyxuUSS4FvT7E5VDy14gA+Lm7AqaZaOnrteHFdCWwaFPF2xspt07Mxc7hM+GqDCzApxueftmo3gokclg+Q+/UbxVl5f2s1Xv6k1DWpezr/3lmLzWXNmlwzJzkSd80a6jqMTLiLsqk3yOcfiGgWMEps8jBX6VHhEct21aHbeub5lS6rA8+tOoRmDU5pJAImZcdjVl6y2235PUIcJv/U5yvcaRMwg8daQOQXk1Zm4TiHu56VxUfx6mdlmqzwDQm04LeX5UlJB/eFUJ86BRG+/bRak4Ch2MGxYB6uRVtCe1aHimdXH8KRhk5N2huRFoWbp/j8l6/eFIAnIzHXp/diaHWLlA8i9w9GFrpp7rLhpU9LYHNoczbJDZMyMTJD5vTdQYwRSJkVZXQ/9KRNwBw/nkQ2OJrcwq+qUFyrzWPr1JgQPHn5CCRocC6Tv2KiCArr9OnFRdrcIoGqAbi/+UXoyjmK+e91JeizaXP29IzcJNfhb1LSoX+I0cKBPdrct5qUJgGjRvAuZt6jRVtCXx9sq8b6Q42atBUcoGD+xTkYkerTo3y9OBi8BDvXnXyVpI/Q5hZp/ftd3Br5HBh9mrQndNPV58DLn5a66sZoITUmFHdeOEQObTtHzi9krt37POoPub+Xw8Q0WwfDZS8tA+FfYPj0D8wXOEcw20+xvaA/Li1IQW6yX1Qf0AajlwMsz/FHn2gzlDQx7Vbybl3a66ha92sG3nYO/zRrV2iuo9eOR5YUo7qlR5P2UqJD8P/9KB9JkcGatOfLGNzDzM/wqqcXAeuN7o7utN35vOKlo2rxG7cD+ELTdoXmnKOYF9Ye0WTxndMP8lNw96whUjfmdBg2MBaoxc1PoWRTr9Hd8QTtSyts/LBLbYte4Lzd17xtoRl2DjU3V6LimDa/JotC+NmkTGQnyfnWp7GF63a9gE23+kW4QK/aLfzhPStUOz8KsDYVj4Qujnb04ZX1pee07eB0nLdIv5k5VEYxJ8Nc5Ti6/z7+8HfHjO6KJ+lTHKprl52XP/7fKtMTAPtNWnujd76swoF67b4HrizKwJShPr9J+BxxIxN+jc/+stnonniaftXn6ovtvOe1Vxj4VLdrCLedGMX0afTYOiYsEPdclIPYML864/3UGH0q8zPq0nXL0FKlzYSXF9G3vOXm5T1cuWk+Mw7oeh3hlnc2V2LR1mpNioQ7XTg80RUyQX5f/Y6ZwX/jLYtfQv3LdqN7YwTd6+fyxyv2sEO9CcxNel9L9E97rx1Pfrgfta3aPLYOtCi4fXo2ijLjNGnPWzGwXa3+5LfY9Y9uo/tiFA8U6N4HXvfiRia8DkCj6UShtSONXVi+p16z9iJDA3DDpIHw2/le5jLmgPuweXGt0V0xkmdOAChfD/XAwmcY+FhCxrxe3VCG+jbt5uR/OCod04cl+l2ZQwbXqy0xv+JFd65HS53R3TGU544Y+WxRo3rswC0Af3p89CjMZmdVq2vCV6vFd/ERQfjDFQUY4F/HnTig8O956z2r0Frl91+mnj3DaPE7tY4K9WYGb/fodcVZYQZe/rQEq05zUsG5GjkwBk/My3Mdpu8H+hh4XV216DWU75IvUc8fkrYPWHlVGTc3PsCAT29T91bNXTb8dtk+NHVoszHe+Qa7ZuwAzMrz8eNO2Hnrz+9wbel8lL7v0zVezoUhpzDy7lc/Zah/BuB+qXuhuR2VbVh3QLuNvkEBiusQfd8+tI33OWr3P84f3idfnN9gzDGvh7bbefvfn2TwHxksNWRMRmV23Sq19WhXpNA5grmyKMM3q98xjqmdTQ/gw39UG90VszGuju7Wpd1qwIAnlMIZQwBcYVg/PMyhMrqtdre/ze2qvvOHm0ub8dbGCtwwOVOzR833/2AYNhw+hiqNykSYA3cy8CCveHIFUGV0Z0zH8O8TuuqF8Up0+ocg+MUGlqjQANexHwGKe4PH/XXtONap7x1mUmQwhiZHQNFo2MHMrrOy23t9ZlGrnZmfV5t2PY7Fv/PbxXSnY3jAIDVToR8suFoJoGcApBvdHSHOFjMvVre993Ns/0CqBpyC8c8OO1sZLVv2Ut6cMnKolwCQsmjCC/Bh9Ujrjdj0e/9eSXcGxgeMU2srOLCzhBJH5RCh0BQjKyFOhdHJxHfxmgc2oK/D6N6YmjkCxqnqkMohBduUpMTJANIkZIRJOZj5WfWDV19G606/X6l7JuYJGKeqT9o5dcTnFJk4gUAyHyPMhgEsVbctmo+ypb70KEw3xqyDOZ29bxxgBN8PWekrzIax11Gb8DC2L9Tm/F0/YK4RDI7Px6BkfQUNGu+goNCpAMmZ18J4zIfUtvrrsPbuveiTh0Zny3wB49TbAQ6mnUrqyCyARphypCX8B6NPVekefvuGVRIu58a8H9ytS7sdVcUPfn3GkuxMFUZxALyQd7y/xOiOeCNzjmBOaCtu58EjNioBMc5bpRSjuyP8jp2Z31UrG+bj86dbjO6MNzJ3wHR3A7tWNWHwuAoKjZ0ni/CERzE+56bin+PD+/zqLCMtmTtgTmg5XE55VzST2jcdREFGd0f4AeYKR2nVLVj+QInRXfFm3hEwna0qV+/eTjnTBhBRkSzCE7pi1DHxbbzm0U/RKyt13eEdAePU2cCcmHRQiRl8KQD/Pg9D6Ie5jxU8rC57/D0cK5WVum7ynoBxqi9vxqDC3QiJnkDwj/IOwqNUJn5d3fr+73F4vVRb1IBX3mrQHW9NVKxhSwDy8UKvwpOYeYu6dc887Phtg9F98RXeNYI5oexgDRVMiiNHwCSQd4akMBlGKSt0B9Y9Xgyb1I7SincGTHcjOCRsFyXm5hJoqKkXDArTY3AdB/beyAvvX4+OWlnUqSHvDBinyt3dwOyVSAsZTUC2t97uCcPZQMpD/PH976O+QsJFY179zc/bbmxRg+IfgFRbFv3DzPyJum3PQpSXG90Xn+S9I5gTDqypR+aEJgoKvRhAoNHdEV5DBfhjtf3Ir7D6ESl7qRPvD5i+dqCvah8NnhJMoHGGHsUivAYzdqvVB6/Fkocqje6LL/P+gHFqqld5cNEOJTRuKIA8mY8Rp8WwsYMfxqJffmZ0V3ydbwSM0741vZyUtIGiM8cQaLDR3RHmxEAfCM/w2uf+jNYqnzmgyay8epL3e1a82MBHK+8DoN3BysJ3uJ4R8UfqnmNPomyj1NT1AN8ZwZxQf6AeeRc5iOh8ALLzWvwfQgMfq7gDq++sMLor/sL3Aqa3DVDtOyg9r5ugnC9PlsRxXKNaon7Nqx9d6zrsT3iE7wWMU/1+O9cd/pKGTs0iolEy6ev3Othh/xUvnb8Y9SWyQ9qDfDNgnDoamCPTtivxg8aCMFBCxm/ZVYv1aV705l9w7EsJFw/z3YBxqtjczim5XyhRyT8ASGrI+B8V4GXqtg8eQKkclGYE3w4YJ1tFE7LmgEid5XNPzcRpMWOnWrfvl/j0pVqj++KvfD9gWluB5opiyp6USOB8OcjNTzAfQGvd9bzuhWI5y8g4vh8wTq1VNk4fsV6JSEoHaKTMx/g8q6Ml+nb+4CfrJFyM5T+3DEsf73CUH3wEjP1Gd0XoygHgbVT+bbnRHRH+FDBOqx6uU3va5wOQc258EcPBzH9zVDQ8iC1vy6SuCfjHLdI31e08TLkXtxAwHSQHufmYT7n8wI1YdU+z0R0Rx/lfwHS3gR28n9LzY4gw1u9GcT6KgU5uibyLP3xzLyA7AczC/wLGqWGfnR2OLygjP5dAeUZ3R7itBYryCK++dyE6t8k2ABPxz4Bxathv48Sk7Ur04IvASJDnSl6K0cus3KcuXf0q6lc4jO6O+Db/vj34cnkJOxyPMrjV6K6IfiKsUVs++zvqX5baLibkvyMYp94WcPmmA8iZXU0KXQBCqNFdEueAuVgtqf4llj8hK3VNyr8Dxqm3ndG4fw9lTY8iBZNlEZ7XKFcddBOveWybLKYzLwkYp46jYEfvDsoYmUPAUID8+9bR5Bhcw4F9N/Ciezegrdro7ojTkIA5oeFgL3JGrqXgxBEAcmQkY1IMG1Q8wCv//AHqdxvdG3EGEjDftHddDycN36lEJ80FKMbo7oiTIKxUtx/4Hfa/0Wt0V8SZScB819GSYxgwvo5CQmdLTV+TYXzpqPrqeux6vgF9fUb3RpwFCZjv6msHarcfwIhLQgk8Tso7mAW3qC0xt2DprbslXLyHTGaeTEuNg6uKnwHTouNV0YShGDZm/Il33bvB6K6IcyMjmFM58kkfk7qBUgvGEvFgmfM1TC8TPaPu+ccC7F4n8y5eRkYwp7Ptg2PcXnMvQHI4ukGYsVTdXPckNn/QYXRfxLmTEcyZ1O47SnkzGgmWSSCEG90dP+IAY6/aVX031txZY3RnRP/IuP9sRGUQTfvFeCU198fMSg4Rh8mPTj8M1KGH1qqN61Zj/bs16JHyLkIIIb5D5mCEELqRgBFC6EYCRgihGwkYIYRuJGCEELqRgBFC6EYCRgihGwkYIYRuJGCEELqRgBFC6EYCRgihGwkYIYRuJGCEELqRgBFC6EYCRgihGwkYIYRuJGCEELqRgBFC6EYCRgihGwkYIYRuJGCEELqRgBFC6EYCRgihGwkYIYRuJGCEELqRgBFC6EYCRgihGwkYIYRuJGCEELqRgBFC6EYCRgihm/8/AAD//7yWrEpmw8R2AAAAAElFTkSuQmCC;" vertex="1" parent="mrzCyjfmGtWYSGb_E_jC-2">
          <mxGeometry y="5" width="30" height="30" as="geometry" />
        </mxCell>
        <mxCell id="mrzCyjfmGtWYSGb_E_jC-7" value="" style="endArrow=classic;html=1;rounded=0;fontFamily=Helvetica;fontSize=10;dashed=1;" edge="1" parent="1">
          <mxGeometry width="50" height="50" relative="1" as="geometry">
            <mxPoint x="741" y="321" as="sourcePoint" />
            <mxPoint x="741" y="351" as="targetPoint" />
          </mxGeometry>
        </mxCell>
        <mxCell id="mrzCyjfmGtWYSGb_E_jC-10" value="" style="endArrow=classic;html=1;rounded=0;fontFamily=Helvetica;fontSize=10;dashed=1;exitX=0.458;exitY=1.039;exitDx=0;exitDy=0;exitPerimeter=0;entryX=1;entryY=0.75;entryDx=0;entryDy=0;" edge="1" parent="1" source="mrzCyjfmGtWYSGb_E_jC-3" target="cAXRqbwzUYpm79ER4dvK-92">
          <mxGeometry width="50" height="50" relative="1" as="geometry">
            <mxPoint x="790" y="700" as="sourcePoint" />
            <mxPoint x="160" y="560" as="targetPoint" />
            <Array as="points">
              <mxPoint x="777" y="593" />
              <mxPoint x="422" y="593" />
            </Array>
          </mxGeometry>
        </mxCell>
        <mxCell id="mrzCyjfmGtWYSGb_E_jC-11" value="" style="group" connectable="0" vertex="1" parent="1">
          <mxGeometry x="114" y="795" width="486" height="222" as="geometry" />
        </mxCell>
        <mxCell id="iCpjkjbjhnEQOErl1VDS-5" value="" style="group" connectable="0" vertex="1" parent="mrzCyjfmGtWYSGb_E_jC-11">
          <mxGeometry x="-89" y="30" width="240" height="143" as="geometry" />
        </mxCell>
        <mxCell id="mrzCyjfmGtWYSGb_E_jC-12" value="" style="rounded=0;whiteSpace=wrap;html=1;fontFamily=Helvetica;fontSize=11;strokeColor=default;strokeWidth=1;fillColor=none;" vertex="1" parent="iCpjkjbjhnEQOErl1VDS-5">
          <mxGeometry y="11" width="240" height="132" as="geometry" />
        </mxCell>
        <mxCell id="mrzCyjfmGtWYSGb_E_jC-14" value="" style="sketch=0;aspect=fixed;html=1;points=[];align=center;image;fontSize=12;image=img/lib/mscae/Kubernetes.svg;fontFamily=Helvetica;" vertex="1" parent="iCpjkjbjhnEQOErl1VDS-5">
          <mxGeometry x="4" y="14" width="20.84" height="20" as="geometry" />
        </mxCell>
        <mxCell id="mrzCyjfmGtWYSGb_E_jC-21" value="&lt;pre style=&quot;background-color: rgb(255, 255, 255); color: rgb(8, 8, 8); font-family: &amp;quot;JetBrains Mono&amp;quot;, monospace;&quot;&gt;&lt;font style=&quot;font-size: 10px;&quot;&gt;&lt;span style=&quot;color: rgb(0, 51, 179);&quot;&gt;kind&lt;/span&gt;: Service&lt;/font&gt;&lt;/pre&gt;" style="text;html=1;align=left;verticalAlign=middle;resizable=0;points=[];autosize=1;strokeColor=none;fillColor=none;fontSize=12;fontFamily=Helvetica;" vertex="1" parent="iCpjkjbjhnEQOErl1VDS-5">
          <mxGeometry x="26" width="100" height="50" as="geometry" />
        </mxCell>
        <mxCell id="mrzCyjfmGtWYSGb_E_jC-22" value="&lt;span style=&quot;color: rgb(0, 0, 0); font-family: Helvetica; font-size: 12px; font-style: normal; font-variant-ligatures: normal; font-variant-caps: normal; font-weight: 400; letter-spacing: normal; orphans: 2; text-align: center; text-indent: 0px; text-transform: none; widows: 2; word-spacing: 0px; -webkit-text-stroke-width: 0px; background-color: rgb(248, 249, 250); text-decoration-thickness: initial; text-decoration-style: initial; text-decoration-color: initial; float: none; display: inline !important;&quot;&gt;&amp;lt;&amp;lt;database&amp;gt;&amp;gt;&lt;/span&gt;" style="text;whiteSpace=wrap;html=1;fontSize=12;fontFamily=Helvetica;" vertex="1" parent="iCpjkjbjhnEQOErl1VDS-5">
          <mxGeometry x="4" y="113" width="89" height="30" as="geometry" />
        </mxCell>
        <mxCell id="iCpjkjbjhnEQOErl1VDS-2" value="" style="shape=cylinder3;whiteSpace=wrap;html=1;boundedLbl=1;backgroundOutline=1;size=15;" vertex="1" parent="iCpjkjbjhnEQOErl1VDS-5">
          <mxGeometry x="67" y="43" width="113" height="63" as="geometry" />
        </mxCell>
        <mxCell id="iCpjkjbjhnEQOErl1VDS-4" value="" style="image;aspect=fixed;html=1;points=[];align=center;fontSize=12;image=img/lib/azure2/databases/Azure_Database_PostgreSQL_Server.svg;" vertex="1" parent="iCpjkjbjhnEQOErl1VDS-5">
          <mxGeometry x="163" y="80" width="22.5" height="30" as="geometry" />
        </mxCell>
        <mxCell id="iCpjkjbjhnEQOErl1VDS-18" value="&lt;b&gt;timeouts-showcase-database&lt;/b&gt;" style="text;html=1;strokeColor=none;fillColor=none;align=left;verticalAlign=middle;whiteSpace=wrap;rounded=0;" vertex="1" parent="mrzCyjfmGtWYSGb_E_jC-11">
          <mxGeometry x="-87" y="12" width="188" height="30" as="geometry" />
        </mxCell>
        <mxCell id="frw4W3FznUpJx_0nHbNc-23" value="3) workflow and job status changes" style="text;html=1;strokeColor=none;fillColor=none;align=center;verticalAlign=middle;whiteSpace=wrap;rounded=0;" vertex="1" parent="mrzCyjfmGtWYSGb_E_jC-11">
          <mxGeometry x="259" y="65" width="220" height="30" as="geometry" />
        </mxCell>
        <mxCell id="mrzCyjfmGtWYSGb_E_jC-26" value="" style="endArrow=classic;html=1;rounded=0;fontFamily=Helvetica;fontSize=10;dashed=1;exitX=0.576;exitY=1.143;exitDx=0;exitDy=0;exitPerimeter=0;entryX=0.401;entryY=0.011;entryDx=0;entryDy=0;entryPerimeter=0;" edge="1" parent="1" source="mrzCyjfmGtWYSGb_E_jC-8" target="mrzCyjfmGtWYSGb_E_jC-3">
          <mxGeometry width="50" height="50" relative="1" as="geometry">
            <mxPoint x="750" y="390" as="sourcePoint" />
            <mxPoint x="750" y="420" as="targetPoint" />
          </mxGeometry>
        </mxCell>
        <mxCell id="iCpjkjbjhnEQOErl1VDS-6" value="" style="endArrow=classic;html=1;rounded=0;exitX=0;exitY=0.5;exitDx=0;exitDy=0;dashed=1;entryX=0;entryY=0.5;entryDx=0;entryDy=0;entryPerimeter=0;" edge="1" parent="1" source="cAXRqbwzUYpm79ER4dvK-1" target="iCpjkjbjhnEQOErl1VDS-2">
          <mxGeometry width="50" height="50" relative="1" as="geometry">
            <mxPoint x="-30" y="370" as="sourcePoint" />
            <mxPoint x="-10" y="810" as="targetPoint" />
            <Array as="points">
              <mxPoint x="-10" y="230" />
              <mxPoint x="-10" y="900" />
            </Array>
          </mxGeometry>
        </mxCell>
        <mxCell id="iCpjkjbjhnEQOErl1VDS-8" value="" style="endArrow=classic;html=1;rounded=0;exitX=1;exitY=0.5;exitDx=0;exitDy=0;dashed=1;entryX=0.889;entryY=0.549;entryDx=0;entryDy=0;entryPerimeter=0;" edge="1" parent="1" source="cAXRqbwzUYpm79ER4dvK-2" target="iCpjkjbjhnEQOErl1VDS-4">
          <mxGeometry width="50" height="50" relative="1" as="geometry">
            <mxPoint x="890" y="280" as="sourcePoint" />
            <mxPoint x="850" y="820" as="targetPoint" />
            <Array as="points">
              <mxPoint x="870" y="240" />
              <mxPoint x="870" y="921" />
            </Array>
          </mxGeometry>
        </mxCell>
        <mxCell id="iCpjkjbjhnEQOErl1VDS-12" value="1) send events to program the timers for each workflow timeout" style="text;html=1;strokeColor=none;fillColor=none;align=left;verticalAlign=middle;whiteSpace=wrap;rounded=0;" vertex="1" parent="1">
          <mxGeometry x="204" y="464" width="185" height="30" as="geometry" />
        </mxCell>
        <mxCell id="iCpjkjbjhnEQOErl1VDS-14" value="notify job status changes" style="text;html=1;strokeColor=none;fillColor=none;align=center;verticalAlign=middle;whiteSpace=wrap;rounded=0;" vertex="1" parent="1">
          <mxGeometry x="605" y="593" width="185" height="30" as="geometry" />
        </mxCell>
        <mxCell id="iCpjkjbjhnEQOErl1VDS-16" value="&lt;b&gt;timeouts-showcase-extended&lt;/b&gt;" style="text;html=1;strokeColor=none;fillColor=none;align=left;verticalAlign=middle;whiteSpace=wrap;rounded=0;" vertex="1" parent="1">
          <mxGeometry x="37" y="128" width="359" height="30" as="geometry" />
        </mxCell>
        <mxCell id="iCpjkjbjhnEQOErl1VDS-17" value="&lt;b&gt;jobs-service-postgresql&lt;/b&gt;" style="text;html=1;strokeColor=none;fillColor=none;align=center;verticalAlign=middle;whiteSpace=wrap;rounded=0;" vertex="1" parent="1">
          <mxGeometry x="541" y="131" width="142" height="30" as="geometry" />
        </mxCell>
        <mxCell id="frw4W3FznUpJx_0nHbNc-1" value="" style="group" connectable="0" vertex="1" parent="1">
          <mxGeometry x="553" y="653" width="282" height="222" as="geometry" />
        </mxCell>
        <mxCell id="frw4W3FznUpJx_0nHbNc-2" value="" style="rounded=0;whiteSpace=wrap;html=1;fontFamily=Helvetica;fontSize=11;strokeColor=default;strokeWidth=1;fillColor=none;" vertex="1" parent="frw4W3FznUpJx_0nHbNc-1">
          <mxGeometry y="8" width="282" height="199" as="geometry" />
        </mxCell>
        <mxCell id="frw4W3FznUpJx_0nHbNc-3" value="Data Index Service" style="rounded=1;whiteSpace=wrap;html=1;" vertex="1" parent="frw4W3FznUpJx_0nHbNc-1">
          <mxGeometry x="90" y="57" width="120" height="60" as="geometry" />
        </mxCell>
        <mxCell id="frw4W3FznUpJx_0nHbNc-4" value="" style="sketch=0;aspect=fixed;html=1;points=[];align=center;image;fontSize=12;image=img/lib/mscae/Kubernetes.svg;fontFamily=Helvetica;" vertex="1" parent="frw4W3FznUpJx_0nHbNc-1">
          <mxGeometry x="4" y="11" width="20.84" height="20" as="geometry" />
        </mxCell>
        <mxCell id="frw4W3FznUpJx_0nHbNc-5" value="&lt;pre style=&quot;background-color: rgb(255, 255, 255); color: rgb(8, 8, 8); font-family: &amp;quot;JetBrains Mono&amp;quot;, monospace;&quot;&gt;&lt;br&gt;&lt;/pre&gt;" style="text;html=1;align=center;verticalAlign=middle;resizable=0;points=[];autosize=1;strokeColor=none;fillColor=none;fontSize=12;fontFamily=Helvetica;" vertex="1" parent="frw4W3FznUpJx_0nHbNc-1">
          <mxGeometry x="62" y="19" width="20" height="50" as="geometry" />
        </mxCell>
        <mxCell id="frw4W3FznUpJx_0nHbNc-6" value="&lt;span style=&quot;color: rgb(8, 8, 8); background-color: rgb(255, 255, 255);&quot;&gt;quarkus-reactive-messaging-http&lt;/span&gt;" style="shape=cylinder3;whiteSpace=wrap;html=1;boundedLbl=1;backgroundOutline=1;size=15;fontFamily=Helvetica;fontSize=12;direction=south;" vertex="1" parent="frw4W3FznUpJx_0nHbNc-1">
          <mxGeometry x="37" y="145" width="220" height="20" as="geometry" />
        </mxCell>
        <mxCell id="frw4W3FznUpJx_0nHbNc-7" value="&lt;pre style=&quot;background-color: rgb(255, 255, 255); font-family: &amp;quot;JetBrains Mono&amp;quot;, monospace;&quot;&gt;&lt;font color=&quot;#083080&quot;&gt;Endpoint&lt;/font&gt;&lt;/pre&gt;" style="text;html=1;strokeColor=default;fillColor=none;align=center;verticalAlign=middle;whiteSpace=wrap;rounded=0;fontFamily=Helvetica;fontSize=12;strokeWidth=1;dashed=1;" vertex="1" parent="frw4W3FznUpJx_0nHbNc-1">
          <mxGeometry x="123" y="198" width="56" height="24" as="geometry" />
        </mxCell>
        <mxCell id="frw4W3FznUpJx_0nHbNc-8" value="" style="endArrow=classic;html=1;rounded=0;fontFamily=Helvetica;fontSize=10;dashed=1;" edge="1" parent="frw4W3FznUpJx_0nHbNc-1">
          <mxGeometry width="50" height="50" relative="1" as="geometry">
            <mxPoint x="150" y="197" as="sourcePoint" />
            <mxPoint x="150" y="167" as="targetPoint" />
          </mxGeometry>
        </mxCell>
        <mxCell id="frw4W3FznUpJx_0nHbNc-9" value="" style="endArrow=classic;html=1;rounded=0;fontFamily=Helvetica;fontSize=10;dashed=1;" edge="1" parent="frw4W3FznUpJx_0nHbNc-1">
          <mxGeometry width="50" height="50" relative="1" as="geometry">
            <mxPoint x="150" y="140" as="sourcePoint" />
            <mxPoint x="150" y="117" as="targetPoint" />
          </mxGeometry>
        </mxCell>
        <mxCell id="frw4W3FznUpJx_0nHbNc-10" value="&lt;pre style=&quot;background-color: rgb(255, 255, 255); color: rgb(8, 8, 8); font-family: &amp;quot;JetBrains Mono&amp;quot;, monospace;&quot;&gt;&lt;font style=&quot;font-size: 10px;&quot;&gt;&lt;span style=&quot;color: rgb(0, 51, 179);&quot;&gt;kind&lt;/span&gt;: Service&lt;/font&gt;&lt;/pre&gt;" style="text;html=1;align=center;verticalAlign=middle;resizable=0;points=[];autosize=1;strokeColor=none;fillColor=none;fontSize=12;fontFamily=Helvetica;" vertex="1" parent="frw4W3FznUpJx_0nHbNc-1">
          <mxGeometry x="19" y="-3" width="96" height="50" as="geometry" />
        </mxCell>
        <mxCell id="frw4W3FznUpJx_0nHbNc-11" value="&lt;span style=&quot;color: rgb(0, 0, 0); font-family: Helvetica; font-size: 12px; font-style: normal; font-variant-ligatures: normal; font-variant-caps: normal; font-weight: 400; letter-spacing: normal; orphans: 2; text-align: center; text-indent: 0px; text-transform: none; widows: 2; word-spacing: 0px; -webkit-text-stroke-width: 0px; background-color: rgb(248, 249, 250); text-decoration-thickness: initial; text-decoration-style: initial; text-decoration-color: initial; float: none; display: inline !important;&quot;&gt;&amp;lt;&amp;lt;subscriber&amp;gt;&amp;gt;&lt;/span&gt;" style="text;whiteSpace=wrap;html=1;fontSize=12;fontFamily=Helvetica;" vertex="1" parent="frw4W3FznUpJx_0nHbNc-1">
          <mxGeometry x="1" y="174" width="110" height="30" as="geometry" />
        </mxCell>
        <mxCell id="frw4W3FznUpJx_0nHbNc-24" value="&lt;b&gt;data-index-service-postgresql&lt;/b&gt;" style="text;html=1;strokeColor=none;fillColor=none;align=left;verticalAlign=middle;whiteSpace=wrap;rounded=0;" vertex="1" parent="frw4W3FznUpJx_0nHbNc-1">
          <mxGeometry y="-24" width="204" height="30" as="geometry" />
        </mxCell>
        <mxCell id="frw4W3FznUpJx_0nHbNc-15" value="" style="group" connectable="0" vertex="1" parent="1">
          <mxGeometry x="316" y="639" width="140" height="85" as="geometry" />
        </mxCell>
        <mxCell id="frw4W3FznUpJx_0nHbNc-16" value="" style="rounded=0;whiteSpace=wrap;html=1;fontFamily=Helvetica;fontSize=12;strokeColor=default;strokeWidth=1;fillColor=none;" vertex="1" parent="frw4W3FznUpJx_0nHbNc-15">
          <mxGeometry x="12" width="128" height="60" as="geometry" />
        </mxCell>
        <mxCell id="frw4W3FznUpJx_0nHbNc-17" value="" style="rounded=0;whiteSpace=wrap;html=1;fontFamily=Helvetica;fontSize=12;" vertex="1" parent="frw4W3FznUpJx_0nHbNc-15">
          <mxGeometry y="9" width="130" height="76" as="geometry" />
        </mxCell>
        <mxCell id="frw4W3FznUpJx_0nHbNc-18" value="&lt;pre style=&quot;background-color: rgb(255, 255, 255); color: rgb(8, 8, 8); font-family: &amp;quot;JetBrains Mono&amp;quot;, monospace;&quot;&gt;&lt;font style=&quot;font-size: 8px;&quot;&gt;&lt;span style=&quot;color: rgb(0, 51, 179);&quot;&gt;filter&lt;/span&gt;:&lt;br&gt;  &lt;span style=&quot;color: rgb(0, 51, 179);&quot;&gt;attributes&lt;/span&gt;:&lt;br&gt;    &lt;span style=&quot;color: rgb(0, 51, 179);&quot;&gt;type&lt;/span&gt;: &lt;/font&gt;&lt;font style=&quot;font-size: 8px;&quot;&gt;JobEvent&lt;/font&gt;&lt;/pre&gt;" style="text;whiteSpace=wrap;html=1;fontSize=11;fontFamily=Helvetica;" vertex="1" parent="frw4W3FznUpJx_0nHbNc-15">
          <mxGeometry x="14" y="21" width="100" height="60" as="geometry" />
        </mxCell>
        <mxCell id="frw4W3FznUpJx_0nHbNc-19" value="" style="shape=image;imageAspect=0;aspect=fixed;verticalLabelPosition=bottom;verticalAlign=top;fontFamily=Helvetica;fontSize=12;strokeColor=default;strokeWidth=1;fillColor=none;image=data:image/png,iVBORw0KGgoAAAANSUhEUgAAARgAAAEYCAYAAACHjumMAAArwklEQVR4nOzdd5xV1bk//s+zz/TeOzDMwDAMMwMydKSIoEQBY4wl0RuNLYnlJjbsJTf+/CaKxnjVmHgtMWpEDCGgIFURBUQ6DH16Z5jeT9nP73UOcq+FOmfvs/c553n78g+Vs/Zy5pzPWXvttZ6lQAghdCIBI4TQjQSMEEI3EjBCCN1IwAghdCMBI4TQjQSMEEI3EjBCCN1IwAghdCMBI4TQjQSMEEI3EjBCCN1IwAghdCMBI4TQjQSMEEI3EjBCCN1IwAghdCMBI4TQjQSMEEI3EjBCCN1IwAghdCMBI4TQjQSMEEI3EjBCCN1IwAghdCMBI4TQjQSMEEI3EjBCCN1IwAghdCMBI4TQjQSMEEI3EjBCCN1IwAghdCMBI4TQjQSMEEI3EjBCCN1IwAghdCMBI4TQjQSMEEI3EjBCCN1IwAghdCMBI4TQjQSMEEI3EjBCCN1IwAghdCMBI4TQTYDRHRA6GDI5nMbMm6BEDRkPIFsB9dotVILGhhW8bslBNH+sGt1FXze0cIwlOm1kcnTq4AKAFDXQenDvmg8qG0uL7Ub3zZPI6A4IDY2+IpTSCs9TUvPvBzALhNDv/Ik6Bt7lss0v8uFVFSjfxQb11Ccl5k3DwMzc8MGjpo2PTcm6CeAJIMpwfc4YjQxeVTcg+m8Nrz67s3R7TVtz/cc+//OXgPEFqUVEk64brcQNvBvEswGKO82fdr6p9zDjBW48uIyXvH0U2OfBzvqezMxpGDLjogGDR82aAzguBWgKCFEn/9PcAaZdDH67umrTss3v/LmutfawzwaNBIw3y/9VHOXkXEgJGZcTKzNASD6HV1vBKOe4kIW8a90/+PD6EpRsterYWx+SgexRQ4MG5k3PjhwwZFpSetZUgCYSkA5C4Fk1wWwFUa0K/qJs+9qPFFK3V26tLju0+68+9TuQgPFGhVdF0PhrLiZS7yHQWPfn0rgBwFq1ueFZXv/SdjTKiOZUci+8IfSCS6+baQ+I+BkI05x3Rho0q4JxDIS1dmvAW3vWvrp56/K/tGrQruEkYLxJ2u2B9MMJM8keOh+gMQREaNg6M7iKQX+l8J5F6rIFR3Bkp0wGO8cr2XcpY6+bmpWQkDIXjB+BaCSASB0u5bxV6gSjBIw3K6t2Lqk9tLFmz9K3vHZiWALG7KIyCPEZUTTlutlKcMrPGDifiE5xf68JB4PrScW/HWVb3kb557tRe6ALPc06XtJcojLykJCYFhw/MH9oZv7YmdEp2VMIGMfgVAJZPNEHZtiJXJPy+7qaGz462HZkTcunH1U0lRd3tzc3eKILmpCAMbNZtyUomRf+BxGuAaMIBI+8ub+hF4yNbLMsUK2r1+Ddl2wevr5HTZs2DYFZMwcMLpp1CRiXOP8VgGij+/W1dgA7QXi7qXj1R2s+eLOuvbHE9JPDEjBmk5gIpM+MoPRbx1N603wCTQcQZFh/nG9h4mMgel8tbX2BD71WioqNPhU05839dXBSxvC8jLzCixUoVwPIBRBidL9OoYeZD8PC72zvKvnAvmlD9e6Dn1uxz5zzZhIwZhGVAWRPSKfcmZdRZOINAEYQEGZ0t76FUcvEG7mx6g3et+4zHFzWaXSX+mvE5B9GJueOGTVk5IxJDLoYcI4QKdJ7PhOsMtMxAhcrjp4V5fu/XH34q3WHShv3d6O62ujO/S8v+WH6sMxM0Kj/zKbEQbcCuJoIGYDHb4XOVR8zb+YAPIWwhk387Esd3rCWxjVZe+nIwQlDcucxcC0RRoAR4gOfAhVAF8CHwfxW1f6EJZ2H/lLz+dpnDZ8c9v4frbcaNDGcsm8cQ0Pi54H5ciIM8qq9Ya5bJ3QAOKB2NL+F/asXc2tVA8o3OYzu2jdlFM4ISBmcP2zs9LkzbQGR5xMwHow0A+azPMXOQB0xinvajy4vbju8pnXt8jLb0YO91QaMbCRgPG3CtSE09qIipTf8foBmn/XCLHNjgCvAymK1/cCLvHBlGbDe6D6hYN5doeNnXX0/Mf4ThFij+2MEBtqJeemOFa/esXXF622evr6vprj5JBcqNOHaQkvuRQvIETwfhNEgzzzy9AACKAaEcRScMJ3GjrGCL6xG77Zu9BozTRMVlYEf3PzUFSD1KRBiDOmECRAQDNCIkOjYPfs+++deA64vdDV4bBCNuGwqpeb+nFwbEEmLlZ/mxrADXMKM97nmq3e5ZM1hHNrm0VunCZc/m1kwY/JyAMM9eV2zYvCmMFv93BfuvrzJk9eVgNHLuPnhVDh+DhFuAjCZyGRPhDyCGSDnG3qN2hbxR14/fyvqd3lkdfBNL3zxXwopjwAk7/HjHAw89vHzv/p9dckOj63Q9pUhunmkjFQw47aRluzRT0HBfUQYTr4xz9IPrg+3M1jzEdw3i3IvCOHIgSUo36jrfdPoS26JTR8yegGIkvS8jpdRwMjKK5q4+qtV7zZ66qISMFop+lEsXXDP5ZaCi59WIpIeAmgckfP+V8AVNRRDwAUUn/5DZfTVCTRslJX7oo6i+YCmt05zf3pHSM70Gx4D0RyveirnAUQc7bCEZYQF0fLKg9v7PHJNT1zEpxU9lqCMLvgJEf0HmEaCDFx16y1cC9y5k5n/zbVxT3Pdmwex4++avOF/+cKmHzmI3gBOVY/F79mb68qu/edTP3nfExeTEUx/jb48nOY+NV1JS/4jgX4BogE+vLZCW+T6Og0iQiFF9s1T0odnIX1yCZorjqG7/6P3vFk3RqYPG/MSEYZq2l/fooRExgaH2CMWV5Vu1n3iXUYw5yLmYgUTs9Mo/rx5FBp3Awi5pM+2fX+jurYhgJZzWcsSPrrkC+xe1n4uDSQmJuLCO167OTIu6SVD9255AWbuVBBw67IF17xXV6nvhkn5xj1bF87PoMnzHlJisv6gBIZeS4SM42sMhAYIhCgiFFFsyJVKxqgJGHP1UdipGg3FZ/Utm3v+T2IyR011hku6/t31bkQUxKQWdrc2L6o9skPXCXcJmDOZeXu0MmP+1Up8xotEdBkBCTLy05XzPTkY4LlKRv54ZdwPq7k6tQadW075TZuaU0RT/uPh6xXQ9fKePjsExCXlTT60o3P/dlRU6HYd+WWcTFKuhXLvGKqcf9k1lDryGSjKLQRKl6cSHkMECgEwjFXLPGVY5hhkTQpDgFKLDms3bP+34j0qKgMzrn9iUlhk7AKAEgzttVchIoctfVhUytK9X+i3K14C5psypwFTbh2ojLn6YSU16UUKjfkxETlvheT8KIMQURiI8ig0+jIlY/RFVDDbxoH5paj5xPXUKX34mPC8qT9+DUSjje6rtyGi5MDoZLW2dNsnnU31uszFyFDfZRowoyiFsifeqICuAtEIOZTOtHrAWKHWxz3Ddc/vunzm1VMS0rOWQubD+olr7IF9l7/xwm1f6VG0yr8DJmlIEPLnnkdDzr+UmJ2jlWFyG+QFvi4VEUDYetnQpJjo4MDzjO6SF3P+NNcUr/7g6o1LF7Ro3bh/BkzaiEC6/KlCstruAugyIk2r8wsPGRobhklp0bAo8p3gJjU1LvSm/7p25JtaN+w/AROVQcgbHUXJE2cryTk/Y/A4Ykrwo5+AT4kPCcT0gXGIDpY7WS0w85bynWvmrHn9UU33KfnHJO/suxKUyb+4RUka9TSFx98BwjAChUm4eKcAhTApPQaJoUGyV1ojRJQSm5LVrQb1fVF/cLdmu619+9eTfVMIXTJlotIX+cDXR1DIRKAPSA0PxqzMeFfQCE1V1h+JmrfsT3m7tGrQ90YwUYlAwZw0mnzrbCVv9B/IEfwAHS86JGNpH2AhYFxqNGJD/LQChr6iI2L70tOTEpYf2vW5JptPfecrIDMTVHRNPOLGXEeEu75eGCeh4mOyY8IwOT0aATKxqxe7agm94bXbRr6jRWO+8QGceFm4Unjtj8HK9QBNJPMemiXcEKgQhseHeXW4uOaM+OuKFeYUQI7un6Zkn7ewvmSH28eeeO8IJiHHQkUXZVPG9IvJQtcBGCW7aH1bblwYJqTFQDFoZndAYhgGJYaDvnP9zh4bDlS3o8f67X2ZESEByE6NQHZKJBKigxEdFohAiwK7ymjvtqG2qRuHajpQ1tCJPrvHqlieEQPdxMov1//1tncO7d3qVse8L2Ay8hSMm5euxBfdSaDrQJQsi+N8X4hFweysBMQZOPdy6Zh0zB2XDuU7k8sOlbFsSzWWb611/XNokAVT85MwcVgikmKCEWA59dvTaldxuLYDK7bV4khtO1STDG0YOKwG9fzo9V9c4NZJBN41yTtjfqoy/rrblbD0/0dEl4EoyitDUpyznLgwZEeHfW/04NE+pEVhWHrU9/rgHFE5/9588BjCgi24cspAzByViujwwO+F0XdZFEJSdAhGDIpBY1sv6lt6df6/ODsExJE9wNJRvWdF89Gafsee+edgYi5WMC4njwZOu4IUuobAQ70uGIVbksOCkJ8QccYPq5GSYkIwYVgCJucluW6JznWayHn7dPXUTPTaHDhQ1W6GORoiop9OuOKxhYf3zPmkv42Y94OamAjMuH84TZh9nxKd+Yyi0NzjtVhIbof8SKBCmJwei7jQIMOHqqcawTgFB1lQMCgGidEh/V7857y1ykqOxKHaDrT32NzvsPuCA0JDo7ptjn8dK93Zr/Kapv2w0vSHp1vSRixVQHcTUarR/RHGSAkPRnK48eFyJs7+nW6u5WwlxYZgekGyaVYoMzBj/I+vL+rv6805gim6Ks2SNfFdgHLNHIJCXwEKYXxqNKKDzbGo7nQjmO+y2VU0tvVhf3Ub9la0orS+Ex09doSHBCA48NQfO2fLcZFB2FHSjK4+jx6GefL+EIUojoDMvILx63Z/cW51kmHKOZjMTFKKrr4DQJ7RXRHGyooOdY1gvE1dcw+WbqnG/qo2dH8jJOjrR91XTBqI4QOiT/n6yNBAZKVE4GibR44uOiMimh6aUXgPgLvO9bXmGx3EjosAY5Ip+yY8RqHjq3YtJp7Y/S4GUN3Ujb+tLcW2I83fCpcT/72ysRuLN1Whvdt62rZS40x10rCFCZf154Wm+xDT0FFZRMg1uh/CWARCsMV7wsWptqkbr648jNKG05e4rWzswr7KttP+mcSoYNPMw+D46Ktfx/OYL2Bicpyjlzij+yGMpYLR2uf2SnWP6uq1o63rzE9/mIGKxq7T/pnwkADDViyfQnV/XmSugInKc44jpwP+eli8OMH5IWzqtYHZBCtCdNDZe/rwDAlUTBUwzNyvFb3mCpjEqAgQTTC6G8IcWnrtcPhowFhtp9/i43pSZaJ8IaKd/XmhuQImYXA6AbFGd0OYQ6fVDhPtAfRbDO5RCKX9ea2pAoYi0kaAEWp0P4Q5dNtU9ErCmAA1NceFHuzPK00VMMieWggy4docYQirqqLbbvxiM39HQEXp2y/W9ee1JgqYaVBgH2p0L4S5dNm860mST2Ku6G3p6ejPS80TMKPTQhnIN7obwlzavexRtS9i0NbiTW/36xdhmoAhnJ9O4EFG90OYS5sJ9uP4OUdNaszW/r7YNAGDKeF5AJlqfbQwXrfdDtUsZd78EaO94fUF9f19uWkChrojZsgCO/Fd3TYVfao8STIKEzeA1aP9fb05Amb0NRFEON/obgjz6XOo6LLJbZJRiKlSpaCe/r7eFAFDgwcNBijN6H4I83GojE6rBIxhmKtqKj7rd3k9UwQM4sePg6zgFSfhvDlq7rVB9dEtA6an0OHGffv6/3JNO9MfQ6coxDwVcliaOIWmHhscki8ex4Da2HjwiDttGB8wDlsIEQqN7oYwr06bHXaZ6PU4Aqzt1dW17rRhfMBETUxjRpbR3RDm1Wl1uJ4mCU/jdmtLS7/qwJxgfMDEUy5R/6plCf9gUxmtfaY4xsPPUFVN2bYmd1owPGAoNW+UnM4ozqSx2+qzxafMisEH6iv3dbvThuEBo4TFnmd0H4T5HS8+ZXQv/Aup2NzT3OBWG8YGzOgfhTAw2NA+CK/QZXPIRK8nMXocZHHrCRKMPheJ4rIGEHiA3CGJM+m1O1zFp0ICjDsrcHdFi+u4kVMdvNbaZUXfWU5GVzZ24+/rSk/ZVkePDQ6HgYFKaAizhJa524yxxZ0yJ4wBKMrQPgivYFUZnTYHYkKM265W1djt+lsLTR192LCvUZO29MDg0k0fPu/e/ZHRt0gKURHAQUb2QXiPbtmT5DHEKAMFup2mxgVM9vVBDMyQ2yNxttqk+JSHsIMZO7d99Mrpj588C4YFDEWPGw5CplHXF96n3WqXR9UeQdaQ4IBdWrRk3AhmTEohAVJgSpy1LpsDEi8e0bXx36+4tYL3BGMmedOyiJhngMjvCkxFhwZg5IAYBCruZfvumlY0drg9gv0ehYDCjGjEhwdr2m5zVx92VrW5FRCu4lN2FaGBxj1J8gcMPhoYHNrvKnbfZEzABKdEkWuC1/iFfp5WkB6Nxb+aiJgw97L1yle+xL921GjWrxOmDE3AOzePQ0q0dpvbHSrjocV7XQHjjj6HA90SMJ5Q8eWSF/tdZOqbjPmA556XACDdkGuLU4oNC8Sjc4cjWcNwcdpY0oS3Nle4fXujMtBulT1JumOq0KopQwKG+kKGAZD1LyZz69TBmDwkXrPnes5A+fzwMdz+zg5NbufYVRtGJnr1phDcXsH7v21p1dA5yb9ylOGL/MS3FGZE484ZQ9yeG/qm0sZO3PLWduyr69eZXSfV3Gvz2QPxTYI7UoMPadWYMQHTV5ljyHXFScU4b40uzUVSlLbzLn9ZX4YjRzs1axOutTA2WGXXo55ajy3/yItvkQZNspCqFHj8uuKkggIUPD5nOC4tTHU9QdKCXWW8/WUlXvu8TPPHyh1WB3Y3dsBq5D4dX3T8F1XBpD5cvvXj/Vo16/HbFIpPH0hEAzx9XXFylxSk4OYpWa6g0YLKwOLtNbjn/d1o69Fn5e3+pi5XlbsxqdGIDgrAKfYLinPC22xBfT9f+ew9e+sObdPse8HzATPmJ2MBlgleE0iJDsGDs4chNEi7gezGkmOYv2gPWrv1e9rjfPdXdvSitc+OcalRGBAZcspdyeJMuJcZK8t3rH1wzZfv7seh/p8gcDKeDZj0O4ngOkFA21Vc4pyFBVnwX/PycN4g7U6Lae2x4cHFe1HdqskSijNqt9rxWVULxqXGICsmFAFa3eP5j3ZS8WRn1eqX1rzxmDbbxL/DswGTcjSMwYUkGxwNd/WYDPy4KF2zeZc+u4oX1h7B1rIWbRo8S1aVsaWuFV02O/ITIhFokffWWepjh/p0cWfjnzYueEz7JeFf82jAEOdlEjDck9cU3zdqQDSeuCwPUaHa7NSwOVT8cfUhPLfqsKtAt6c5Q2bn0Q7XXqWi5CiEBFrkK+y0uMISzI8t/5/HF1ZuWa1buMDjI5iReZPBFCe/feMEBSh4+NLhSI8J1azNj3bX46nlB9Ft4BGvzlg71NKNNqsdY1OikBgaJPMy38fMXNpWW3bTV+89tL6yvFz3C3r0MTUFYCzI//YfmcnM4Um4cHiiZu219djw/JrDhobLNzV0WbGhqhXHemRLwbe5RpY72c43rXnz0Q3lHggXeDRgsidFEGicx64nvmdoUgSevbIQURqVnWzs6HM9jt5Y4tbROZpzjmI+rWpGWWu3a02OYIfK+HtWRPO8Rc/dvL6lvsRji4g8d4sUk5YBooEeu574FoUI988ehqHJEZq012tzuHZIv725Emb8DHdYHfisuhU5sVaclxxpaLFwY3EHg/66bekrv31tzZva7dk4Sx4LGIoZOBhSYMowYzNjMW9Uqmbtrdp3FP/YUmXqEYKDGQeau2BRyDX5a/G7x9jcrsLy0LEjB97YueZNXR5Dn4nnRjBDpxRCVaXAtwHy06Pwp2tGIi5cmx//vrp2PLpkr+sYEbNzxt++pk7XE6aCxAjEhwT6xeQvA+UdxxrvW7lhw79a1z1j2ASZ50YwDkehrOn2vMiQADx3VSGKMrVZUNfUacUd7+xEca3HR9v95hxklbX14Gi3FeenxyAtMsR3H2QyVIDXdNvVB1b99Tc7WutKDe2OhwLmcYCQ65lriW+aU5jiqlKnxQeq2+pwFY76wmSTumfLOYrZVNuGKRmEpDCffIzNTLy24cjOG9t3vlfTYnC4wGMBU7Q/FVyQ6btfG+aUGR+G+y4ehkCL+w8LnaOA1z8vx7MrD7tKMXirdqsdn1Q2Y3RyFIbEhrkmv30Cc4eq4L3S3at+98lfH9e+lmo/eSRgaPxPx5Pdoc3jC3FWIoID8Psr8lGQEa1Je5tLm/D/VhxAQ3ufJu0ZqduuukYyzhHNiIQIBGkQwEZioB5QfvPRzvcX1//Ps6ZaAKR/wITHQrHZp4NIKth5SHCAgsfnDsecwlRNBo0H6zvwi7e2+0S4nOBgxq7GDte8zJiUKMSFBnnjAFsFsLe1teW+1S/evrqtodR0Q0v9ozt5WDATCvzxBAGjjBoQg2vHD3TtyXGX1aHitc/LcaDBeyZ1z5bzTq+msw87jnagw/sOdXMA/EVTbNj8HYv/vNaM4QJPjGAo9pIkYozwxq8HbxQaqOCxucORFOV+RQznB3Dhliq88mkpvOuzd24q23tdx9KOSY7CwCivqC3j/NW8X1G2987Vd95i6hl3/UcVsW1DQBSj+3WEq1TBr2cOxbScBLfbcqiMhV9Vueq7+MOh886A2VDTgr3HOk29eJAZbcy8oPjgJ/+5+jlzhws8MgfDeflSYMozLj8vHffPztHk1uir8mb85r1daOrSdTe/qVgdjG317ei0OTAqMdKMB7x1sqo+uPzlO/9Sd2ib+Vc5euQWaVC0rH/xgKTIYNx70VBEarCRsdfmwPNrjvhVuJzg/NQebO5Cl9WBcanRCA9yv7YMAQ4i6ncgMKAS0ACmZ3atXPi6t4QLdA+YmDSCBaN0vYZwuWVKJkYOcH+1bo/VgT98fAjLdtVp0i9v5LxDquzodZ3BFBUUAHJzIiE8QPlnam/jG9RR0797L1ZtVpVLi1e+XtlcX+Y14QK9A4ayzk8hokw9ryGA/PRI/HJ6FtxdzmF3qHhuzWE8s/KgqwSmv3PeKnVqMP/EQNz+bcvXY9tCzxQrNhF9J3knX5IFQJuVXuKkwoIs+M3MHCRHuV+hbltFK15cd0TCRXM8hMDaVfnyIvoFTFQGqC9yCgBtT1IX/0sh4PYLsl0FvN2tRHC0vRcP/HOvJmdIi28jIIWKrioyuh9G0C9gsqaG4PgRJaabivcVIwdE496LchAa5N6PuKXLins/2IMvSo5p1jfxLSFgTMXAiX632FS3/2FSbLFgytOrfQH8ZNwAxEe4X+PljS/K8c9tNaasTOcbyPlXASzsd6N5/RI19pJRREjSrX0/NzE7DteN16YCaXZShKtujNAPA8OROcnv5mH0G8FkRc4AoN3ZGOJb7rggG0lR2nwhXlKQgtumZ/thSUnPIUIKKfl+90RVn4AZNN5CJCcI6Emrw+rh2mKg4Japg5GVEK5Zm+J7FBqWOszoTniaLgFDEYkpzpG3Hm0LfaRGh+D2GVlyvrOe7F1+t+hUnxFMWk42wPG6tC10c+24gRifFWd0N3wWgfIx6RptDqXyEvqMYOJzCwDyuxlzbxcbHoQ/XJGPQXFyuoweGDyYomamGN0PT9InYCLj/W4o6CvGZ8XjoUuHuariCW0RKB4Do/ON7ocn6fMuIvjdZJavIABXFmW4quIJrXGIQkoBfnyb30x0aR8whT+NBnOO5u0Kj4kKDcSvZw6RUYzmiJgxFaVNfnMPqvk7iDKGFEkFO+83pzD1eNFwv/mu9QxijKTxP9DuDF+T0yFgRhYBLMtCDWK1q5qUfAwLsuDui4YiLVrm6jVFSIUa5jdLOLQNmFFXBBN4imxwNEZ7jw2PLNmLf23X5tytsZlxeGTOcIQEyq2ShiwKKxcizD92DWj6zqHkgjQwFUCOEPC4XpsDjyzZhz+tLXGVu+zodf/8LYWAn00chBm5sqVMWzSRUob4xUGE2n41DRiWC4L7Je3FOVu9rwFvbapwnQawq7oVq/cf1WR3dHCAgmsnDJQVvhpiYDAyJ/rFPKW2IxgKnOa8fdeyTXFmu6tb8cDivejss7v+udem4ol/78OBunZN2p9TkILLRqXJuFQjBCQgPN4v5mG0C5jYDOd33IVygqNn7a9tx81/246D9Z3f+vf76jrw5EcHXLdO7goPDsDvfpiHjDjZHK+RYKTn+MWCO+3CICYjjgnaFCgRZ6W9x+YaueyobD3pf1+xtx67q9s0udbQ5EjMG5nqOtxNuE9xKLnANKO7oTvNAoZyxuUSS4FvT7E5VDy14gA+Lm7AqaZaOnrteHFdCWwaFPF2xspt07Mxc7hM+GqDCzApxueftmo3gokclg+Q+/UbxVl5f2s1Xv6k1DWpezr/3lmLzWXNmlwzJzkSd80a6jqMTLiLsqk3yOcfiGgWMEps8jBX6VHhEct21aHbeub5lS6rA8+tOoRmDU5pJAImZcdjVl6y2235PUIcJv/U5yvcaRMwg8daQOQXk1Zm4TiHu56VxUfx6mdlmqzwDQm04LeX5UlJB/eFUJ86BRG+/bRak4Ch2MGxYB6uRVtCe1aHimdXH8KRhk5N2huRFoWbp/j8l6/eFIAnIzHXp/diaHWLlA8i9w9GFrpp7rLhpU9LYHNoczbJDZMyMTJD5vTdQYwRSJkVZXQ/9KRNwBw/nkQ2OJrcwq+qUFyrzWPr1JgQPHn5CCRocC6Tv2KiCArr9OnFRdrcIoGqAbi/+UXoyjmK+e91JeizaXP29IzcJNfhb1LSoX+I0cKBPdrct5qUJgGjRvAuZt6jRVtCXx9sq8b6Q42atBUcoGD+xTkYkerTo3y9OBi8BDvXnXyVpI/Q5hZp/ftd3Br5HBh9mrQndNPV58DLn5a66sZoITUmFHdeOEQObTtHzi9krt37POoPub+Xw8Q0WwfDZS8tA+FfYPj0D8wXOEcw20+xvaA/Li1IQW6yX1Qf0AajlwMsz/FHn2gzlDQx7Vbybl3a66ha92sG3nYO/zRrV2iuo9eOR5YUo7qlR5P2UqJD8P/9KB9JkcGatOfLGNzDzM/wqqcXAeuN7o7utN35vOKlo2rxG7cD+ELTdoXmnKOYF9Ye0WTxndMP8lNw96whUjfmdBg2MBaoxc1PoWRTr9Hd8QTtSyts/LBLbYte4Lzd17xtoRl2DjU3V6LimDa/JotC+NmkTGQnyfnWp7GF63a9gE23+kW4QK/aLfzhPStUOz8KsDYVj4Qujnb04ZX1pee07eB0nLdIv5k5VEYxJ8Nc5Ti6/z7+8HfHjO6KJ+lTHKprl52XP/7fKtMTAPtNWnujd76swoF67b4HrizKwJShPr9J+BxxIxN+jc/+stnonniaftXn6ovtvOe1Vxj4VLdrCLedGMX0afTYOiYsEPdclIPYML864/3UGH0q8zPq0nXL0FKlzYSXF9G3vOXm5T1cuWk+Mw7oeh3hlnc2V2LR1mpNioQ7XTg80RUyQX5f/Y6ZwX/jLYtfQv3LdqN7YwTd6+fyxyv2sEO9CcxNel9L9E97rx1Pfrgfta3aPLYOtCi4fXo2ijLjNGnPWzGwXa3+5LfY9Y9uo/tiFA8U6N4HXvfiRia8DkCj6UShtSONXVi+p16z9iJDA3DDpIHw2/le5jLmgPuweXGt0V0xkmdOAChfD/XAwmcY+FhCxrxe3VCG+jbt5uR/OCod04cl+l2ZQwbXqy0xv+JFd65HS53R3TGU544Y+WxRo3rswC0Af3p89CjMZmdVq2vCV6vFd/ERQfjDFQUY4F/HnTig8O956z2r0Frl91+mnj3DaPE7tY4K9WYGb/fodcVZYQZe/rQEq05zUsG5GjkwBk/My3Mdpu8H+hh4XV216DWU75IvUc8fkrYPWHlVGTc3PsCAT29T91bNXTb8dtk+NHVoszHe+Qa7ZuwAzMrz8eNO2Hnrz+9wbel8lL7v0zVezoUhpzDy7lc/Zah/BuB+qXuhuR2VbVh3QLuNvkEBiusQfd8+tI33OWr3P84f3idfnN9gzDGvh7bbefvfn2TwHxksNWRMRmV23Sq19WhXpNA5grmyKMM3q98xjqmdTQ/gw39UG90VszGuju7Wpd1qwIAnlMIZQwBcYVg/PMyhMrqtdre/ze2qvvOHm0ub8dbGCtwwOVOzR833/2AYNhw+hiqNykSYA3cy8CCveHIFUGV0Z0zH8O8TuuqF8Up0+ocg+MUGlqjQANexHwGKe4PH/XXtONap7x1mUmQwhiZHQNFo2MHMrrOy23t9ZlGrnZmfV5t2PY7Fv/PbxXSnY3jAIDVToR8suFoJoGcApBvdHSHOFjMvVre993Ns/0CqBpyC8c8OO1sZLVv2Ut6cMnKolwCQsmjCC/Bh9Ujrjdj0e/9eSXcGxgeMU2srOLCzhBJH5RCh0BQjKyFOhdHJxHfxmgc2oK/D6N6YmjkCxqnqkMohBduUpMTJANIkZIRJOZj5WfWDV19G606/X6l7JuYJGKeqT9o5dcTnFJk4gUAyHyPMhgEsVbctmo+ypb70KEw3xqyDOZ29bxxgBN8PWekrzIax11Gb8DC2L9Tm/F0/YK4RDI7Px6BkfQUNGu+goNCpAMmZ18J4zIfUtvrrsPbuveiTh0Zny3wB49TbAQ6mnUrqyCyARphypCX8B6NPVekefvuGVRIu58a8H9ytS7sdVcUPfn3GkuxMFUZxALyQd7y/xOiOeCNzjmBOaCtu58EjNioBMc5bpRSjuyP8jp2Z31UrG+bj86dbjO6MNzJ3wHR3A7tWNWHwuAoKjZ0ni/CERzE+56bin+PD+/zqLCMtmTtgTmg5XE55VzST2jcdREFGd0f4AeYKR2nVLVj+QInRXfFm3hEwna0qV+/eTjnTBhBRkSzCE7pi1DHxbbzm0U/RKyt13eEdAePU2cCcmHRQiRl8KQD/Pg9D6Ie5jxU8rC57/D0cK5WVum7ynoBxqi9vxqDC3QiJnkDwj/IOwqNUJn5d3fr+73F4vVRb1IBX3mrQHW9NVKxhSwDy8UKvwpOYeYu6dc887Phtg9F98RXeNYI5oexgDRVMiiNHwCSQd4akMBlGKSt0B9Y9Xgyb1I7SincGTHcjOCRsFyXm5hJoqKkXDArTY3AdB/beyAvvX4+OWlnUqSHvDBinyt3dwOyVSAsZTUC2t97uCcPZQMpD/PH976O+QsJFY179zc/bbmxRg+IfgFRbFv3DzPyJum3PQpSXG90Xn+S9I5gTDqypR+aEJgoKvRhAoNHdEV5DBfhjtf3Ir7D6ESl7qRPvD5i+dqCvah8NnhJMoHGGHsUivAYzdqvVB6/Fkocqje6LL/P+gHFqqld5cNEOJTRuKIA8mY8Rp8WwsYMfxqJffmZ0V3ydbwSM0741vZyUtIGiM8cQaLDR3RHmxEAfCM/w2uf+jNYqnzmgyay8epL3e1a82MBHK+8DoN3BysJ3uJ4R8UfqnmNPomyj1NT1AN8ZwZxQf6AeeRc5iOh8ALLzWvwfQgMfq7gDq++sMLor/sL3Aqa3DVDtOyg9r5ugnC9PlsRxXKNaon7Nqx9d6zrsT3iE7wWMU/1+O9cd/pKGTs0iolEy6ev3Othh/xUvnb8Y9SWyQ9qDfDNgnDoamCPTtivxg8aCMFBCxm/ZVYv1aV705l9w7EsJFw/z3YBxqtjczim5XyhRyT8ASGrI+B8V4GXqtg8eQKkclGYE3w4YJ1tFE7LmgEid5XNPzcRpMWOnWrfvl/j0pVqj++KvfD9gWluB5opiyp6USOB8OcjNTzAfQGvd9bzuhWI5y8g4vh8wTq1VNk4fsV6JSEoHaKTMx/g8q6Ml+nb+4CfrJFyM5T+3DEsf73CUH3wEjP1Gd0XoygHgbVT+bbnRHRH+FDBOqx6uU3va5wOQc258EcPBzH9zVDQ8iC1vy6SuCfjHLdI31e08TLkXtxAwHSQHufmYT7n8wI1YdU+z0R0Rx/lfwHS3gR28n9LzY4gw1u9GcT6KgU5uibyLP3xzLyA7AczC/wLGqWGfnR2OLygjP5dAeUZ3R7itBYryCK++dyE6t8k2ABPxz4Bxathv48Sk7Ur04IvASJDnSl6K0cus3KcuXf0q6lc4jO6O+Db/vj34cnkJOxyPMrjV6K6IfiKsUVs++zvqX5baLibkvyMYp94WcPmmA8iZXU0KXQBCqNFdEueAuVgtqf4llj8hK3VNyr8Dxqm3ndG4fw9lTY8iBZNlEZ7XKFcddBOveWybLKYzLwkYp46jYEfvDsoYmUPAUID8+9bR5Bhcw4F9N/Ciezegrdro7ojTkIA5oeFgL3JGrqXgxBEAcmQkY1IMG1Q8wCv//AHqdxvdG3EGEjDftHddDycN36lEJ80FKMbo7oiTIKxUtx/4Hfa/0Wt0V8SZScB819GSYxgwvo5CQmdLTV+TYXzpqPrqeux6vgF9fUb3RpwFCZjv6msHarcfwIhLQgk8Tso7mAW3qC0xt2DprbslXLyHTGaeTEuNg6uKnwHTouNV0YShGDZm/Il33bvB6K6IcyMjmFM58kkfk7qBUgvGEvFgmfM1TC8TPaPu+ccC7F4n8y5eRkYwp7Ptg2PcXnMvQHI4ukGYsVTdXPckNn/QYXRfxLmTEcyZ1O47SnkzGgmWSSCEG90dP+IAY6/aVX031txZY3RnRP/IuP9sRGUQTfvFeCU198fMSg4Rh8mPTj8M1KGH1qqN61Zj/bs16JHyLkIIIb5D5mCEELqRgBFC6EYCRgihGwkYIYRuJGCEELqRgBFC6EYCRgihGwkYIYRuJGCEELqRgBFC6EYCRgihGwkYIYRuJGCEELqRgBFC6EYCRgihGwkYIYRuJGCEELqRgBFC6EYCRgihGwkYIYRuJGCEELqRgBFC6EYCRgihGwkYIYRuJGCEELqRgBFC6EYCRgihGwkYIYRuJGCEELqRgBFC6EYCRgihm/8/AAD//7yWrEpmw8R2AAAAAElFTkSuQmCC;" vertex="1" parent="frw4W3FznUpJx_0nHbNc-15">
          <mxGeometry x="1" y="8" width="30" height="30" as="geometry" />
        </mxCell>
        <mxCell id="frw4W3FznUpJx_0nHbNc-20" value="Trigger" style="text;html=1;strokeColor=none;fillColor=none;align=center;verticalAlign=middle;whiteSpace=wrap;rounded=0;fontFamily=Helvetica;fontSize=12;" vertex="1" parent="frw4W3FznUpJx_0nHbNc-15">
          <mxGeometry x="31" y="9" width="60" height="30" as="geometry" />
        </mxCell>
        <mxCell id="frw4W3FznUpJx_0nHbNc-21" value="" style="endArrow=classic;html=1;rounded=0;fontFamily=Helvetica;fontSize=10;dashed=1;entryX=0.383;entryY=0.011;entryDx=0;entryDy=0;entryPerimeter=0;" edge="1" parent="1" source="cAXRqbwzUYpm79ER4dvK-92" target="frw4W3FznUpJx_0nHbNc-16">
          <mxGeometry width="50" height="50" relative="1" as="geometry">
            <mxPoint x="377" y="589" as="sourcePoint" />
            <mxPoint x="377" y="628" as="targetPoint" />
          </mxGeometry>
        </mxCell>
        <mxCell id="frw4W3FznUpJx_0nHbNc-22" value="" style="endArrow=classic;html=1;rounded=0;exitX=0.5;exitY=1;exitDx=0;exitDy=0;entryX=0.5;entryY=1;entryDx=0;entryDy=0;dashed=1;" edge="1" parent="1" source="frw4W3FznUpJx_0nHbNc-17" target="frw4W3FznUpJx_0nHbNc-7">
          <mxGeometry width="50" height="50" relative="1" as="geometry">
            <mxPoint x="349" y="853" as="sourcePoint" />
            <mxPoint x="641" y="1039" as="targetPoint" />
            <Array as="points">
              <mxPoint x="380" y="890" />
              <mxPoint x="704" y="890" />
            </Array>
          </mxGeometry>
        </mxCell>
        <mxCell id="frw4W3FznUpJx_0nHbNc-25" value="" style="endArrow=classic;html=1;rounded=0;exitX=1;exitY=0.5;exitDx=0;exitDy=0;dashed=1;entryX=1;entryY=0.5;entryDx=0;entryDy=0;entryPerimeter=0;" edge="1" parent="1" source="frw4W3FznUpJx_0nHbNc-3" target="iCpjkjbjhnEQOErl1VDS-2">
          <mxGeometry width="50" height="50" relative="1" as="geometry">
            <mxPoint x="799" y="1310" as="sourcePoint" />
            <mxPoint x="826" y="1256" as="targetPoint" />
            <Array as="points">
              <mxPoint x="850" y="740" />
              <mxPoint x="850" y="900" />
            </Array>
          </mxGeometry>
        </mxCell>
      </root>
    </mxGraphModel>
  </diagram>
</mxfile>
